SplineFontDB: 3.0
FontName: MScore-20
FullName: MScore
FamilyName: MScore
Weight: Book
Copyright: This font is distributed under the GNU General Public License. As a special exception, if you create a document which uses this font, and embed this font or unaltered portions of this font into the document, this font does not by itself cause the resulting document to be covered by the GNU General Public License.
Version: 2.11.65
ItalicAngle: 0
UnderlinePosition: -103
UnderlineWidth: 51
Ascent: 819
Descent: 205
sfntRevision: 0x00021c28
LayerCount: 2
Layer: 0 1 "Back"  1
Layer: 1 1 "Fore"  0
NeedsXUIDChange: 1
XUID: [1021 577 2134738168 14462537]
FSType: 0
OS2Version: 1
OS2_WeightWidthSlopeOnly: 0
OS2_UseTypoMetrics: 1
CreationTime: 1271071127
ModificationTime: 1308928509
PfmFamily: 17
TTFWeight: 400
TTFWidth: 5
LineGap: 92
VLineGap: 0
Panose: 2 0 5 3 0 0 0 0 0 0
OS2TypoAscent: 0
OS2TypoAOffset: 1
OS2TypoDescent: 0
OS2TypoDOffset: 1
OS2TypoLinegap: 92
OS2WinAscent: 0
OS2WinAOffset: 1
OS2WinDescent: 0
OS2WinDOffset: 1
HheadAscent: 0
HheadAOffset: 1
HheadDescent: 0
HheadDOffset: 1
OS2SubXSize: 666
OS2SubYSize: 716
OS2SubXOff: 0
OS2SubYOff: 143
OS2SupXSize: 666
OS2SupYSize: 716
OS2SupXOff: 0
OS2SupYOff: 490
OS2StrikeYSize: 50
OS2StrikeYPos: 264
OS2Vendor: 'PfEd'
OS2CodePages: 00000001.00000000
OS2UnicodeRanges: 00000001.10000000.00000000.00000000
Lookup: 258 0 0 "'kern' Horizontal Kerning in Latin lookup 0"  {"'kern' Horizontal Kerning in Latin lookup 0 subtable"  } ['kern' ('latn' <'dflt' > ) ]
DEI: 91125
ShortTable: cvt  2
  33
  633
EndShort
ShortTable: maxp 16
  1
  0
  223
  187
  5
  0
  0
  2
  0
  1
  1
  0
  64
  46
  0
  0
EndShort
LangName: 1033 "" "" "" "FontForge 2.0 : MScore : 12-4-2010" 
GaspTable: 1 65535 2
Encoding: UnicodeBmp
UnicodeInterp: none
NameList: Adobe Glyph List
DisplaySize: -48
AntiAlias: 1
FitToEm: 1
WinInfo: 57655 13 13
BeginChars: 65539 236

StartChar: .notdef
Encoding: 65536 -1 0
Width: 372
Flags: W
LayerCount: 2
Fore
SplineSet
34 0 m 1,0,-1
 34 682 l 1,1,-1
 305 682 l 1,2,-1
 305 0 l 1,3,-1
 34 0 l 1,0,-1
68 34 m 1,4,-1
 271 34 l 1,5,-1
 271 648 l 1,6,-1
 68 648 l 1,7,-1
 68 34 l 1,4,-1
EndSplineSet
EndChar

StartChar: plus
Encoding: 43 43 4
Width: 256
Flags: W
LayerCount: 2
Fore
SplineSet
128 128 m 128,-1,1
 117 128 117 128 109.5 135.5 c 128,-1,2
 102 143 102 143 102 154 c 2,3,-1
 102 230 l 1,4,-1
 26 230 l 2,5,6
 15 230 15 230 7.5 238 c 128,-1,7
 0 246 0 246 0 256 c 128,-1,8
 0 266 0 266 7 274 c 128,-1,9
 14 282 14 282 26 282 c 2,10,-1
 102 282 l 1,11,-1
 102 358 l 2,12,13
 102 368 102 368 109.5 376 c 128,-1,14
 117 384 117 384 128 384 c 128,-1,15
 139 384 139 384 146.5 376.5 c 128,-1,16
 154 369 154 369 154 358 c 2,17,-1
 154 282 l 1,18,-1
 230 282 l 2,19,20
 241 282 241 282 248.5 274 c 128,-1,21
 256 266 256 266 256 256 c 128,-1,22
 256 246 256 246 249 238 c 128,-1,23
 242 230 242 230 230 230 c 2,24,-1
 154 230 l 1,25,-1
 154 154 l 2,26,27
 154 144 154 144 146.5 136 c 128,-1,0
 139 128 139 128 128 128 c 128,-1,1
EndSplineSet
EndChar

StartChar: comma
Encoding: 44 44 5
Width: 117
Flags: W
LayerCount: 2
Fore
SplineSet
68 -37 m 0,0,1
 68 -20 68 -20 57 -9 c 128,-1,2
 46 2 46 2 34 6 c 128,-1,3
 22 10 22 10 11 23.5 c 128,-1,4
 0 37 0 37 0 58 c 0,5,6
 0 83 0 83 17 100.5 c 128,-1,7
 34 118 34 118 58.5 118 c 128,-1,8
 83 118 83 118 100.5 100.5 c 128,-1,9
 118 83 118 83 118 58 c 0,10,11
 118 -28 118 -28 58 -153 c 0,12,13
 54 -161 54 -161 46 -161 c 0,14,15
 40 -161 40 -161 35 -157 c 128,-1,16
 30 -153 30 -153 30 -146 c 0,17,18
 30 -143 30 -143 49 -102.5 c 128,-1,19
 68 -62 68 -62 68 -37 c 0,0,1
EndSplineSet
EndChar

StartChar: hyphen
Encoding: 45 45 6
Width: 171
Flags: W
LayerCount: 2
Fore
SplineSet
156 156 m 2,0,-1
 15 156 l 2,1,2
 9 156 9 156 4.5 160.5 c 128,-1,3
 0 165 0 165 0 171 c 0,4,5
 0 185 0 185 15 185 c 2,6,-1
 156 185 l 2,7,8
 171 185 171 185 171 171 c 0,9,10
 171 165 171 165 166.5 160.5 c 128,-1,11
 162 156 162 156 156 156 c 2,0,-1
EndSplineSet
EndChar

StartChar: period
Encoding: 46 46 7
Width: 117
Flags: W
LayerCount: 2
Fore
SplineSet
0 58.5 m 128,-1,1
 0 83 0 83 17 100.5 c 128,-1,2
 34 118 34 118 58.5 118 c 128,-1,3
 83 118 83 118 100.5 100.5 c 128,-1,4
 118 83 118 83 118 58.5 c 128,-1,5
 118 34 118 34 100.5 17 c 128,-1,6
 83 0 83 0 58.5 0 c 128,-1,7
 34 0 34 0 17 17 c 128,-1,0
 0 34 0 34 0 58.5 c 128,-1,1
EndSplineSet
EndChar

StartChar: zero
Encoding: 48 48 8
Width: 376
Flags: W
LayerCount: 2
Fore
SplineSet
187.5 482 m 128,-1,1
 165 482 165 482 150.5 468 c 128,-1,2
 136 454 136 454 129.5 426.5 c 128,-1,3
 123 399 123 399 121 373.5 c 128,-1,4
 119 348 119 348 119 312 c 0,5,6
 119 302 119 302 119.5 283 c 128,-1,7
 120 264 120 264 120 256 c 128,-1,8
 120 248 120 248 119.5 229 c 128,-1,9
 119 210 119 210 119 200 c 0,10,11
 119 164 119 164 121 138.5 c 128,-1,12
 123 113 123 113 129.5 85.5 c 128,-1,13
 136 58 136 58 150.5 44 c 128,-1,14
 165 30 165 30 187.5 30 c 128,-1,15
 210 30 210 30 224.5 44 c 128,-1,16
 239 58 239 58 245.5 85.5 c 128,-1,17
 252 113 252 113 254 138.5 c 128,-1,18
 256 164 256 164 256 200 c 2,19,-1
 256 256 l 1,20,-1
 256 312 l 2,21,22
 256 348 256 348 254 373.5 c 128,-1,23
 252 399 252 399 245.5 426.5 c 128,-1,24
 239 454 239 454 224.5 468 c 128,-1,0
 210 482 210 482 187.5 482 c 128,-1,1
187 512 m 128,-1,26
 272 512 272 512 324 435.5 c 128,-1,27
 376 359 376 359 376 256 c 128,-1,28
 376 153 376 153 324 76.5 c 128,-1,29
 272 0 272 0 187 0 c 128,-1,30
 102 0 102 0 51 76.5 c 128,-1,31
 0 153 0 153 0 256 c 128,-1,32
 0 359 0 359 51 435.5 c 128,-1,25
 102 512 102 512 187 512 c 128,-1,26
EndSplineSet
EndChar

StartChar: one
Encoding: 49 49 9
Width: 326
Flags: W
LayerCount: 2
Fore
SplineSet
179 499 m 0,0,1
 191 499 191 499 208 506 c 128,-1,2
 225 513 225 513 226 513 c 0,3,4
 238 513 238 513 239 496 c 1,5,-1
 239 120 l 2,6,7
 239 81 239 81 260 52.5 c 128,-1,8
 281 24 281 24 313 24 c 0,9,10
 325 24 325 24 326 12 c 0,11,12
 326 0 326 0 313 0 c 0,13,14
 290 0 290 0 246 6.5 c 128,-1,15
 202 13 202 13 179.5 13 c 128,-1,16
 157 13 157 13 112.5 6.5 c 128,-1,17
 68 0 68 0 45 0 c 0,18,19
 33 0 33 0 33 12 c 0,20,21
 33 23 33 23 45 24 c 1,22,23
 78 24 78 24 99 52.5 c 128,-1,24
 120 81 120 81 120 120 c 2,25,-1
 120 371 l 2,26,27
 120 379 120 379 114.5 384.5 c 128,-1,28
 109 390 109 390 102.5 390 c 128,-1,29
 96 390 96 390 92 383 c 2,30,-1
 27 244 l 2,31,32
 23 235 23 235 14 234 c 0,33,34
 8 234 8 234 3 238.5 c 128,-1,35
 -2 243 -2 243 -2 249 c 0,36,37
 -2 252 -2 252 0 256 c 2,38,-1
 120 512 l 2,39,40
 121 515 121 515 125 515 c 128,-1,41
 129 515 129 515 147 507 c 128,-1,42
 165 499 165 499 179 499 c 0,0,1
EndSplineSet
EndChar

StartChar: two
Encoding: 50 50 10
Width: 376
Flags: W
LayerCount: 2
Fore
SplineSet
234 0 m 0,0,1
 202 0 202 0 179.5 11 c 128,-1,2
 157 22 157 22 146.5 34 c 128,-1,3
 136 46 136 46 120.5 57 c 128,-1,4
 105 68 105 68 87 68 c 0,5,6
 62 68 62 68 44 52.5 c 128,-1,7
 26 37 26 37 24 11 c 1,8,9
 22 0 22 0 12 0 c 0,10,11
 0 0 0 0 0 11 c 0,12,13
 0 49 0 49 18 81 c 128,-1,14
 36 113 36 113 62.5 134.5 c 128,-1,15
 89 156 89 156 120.5 180.5 c 128,-1,16
 152 205 152 205 178.5 228 c 128,-1,17
 205 251 205 251 223 286.5 c 128,-1,18
 241 322 241 322 241 364 c 0,19,20
 241 416 241 416 223.5 452 c 128,-1,21
 206 488 206 488 169 488 c 0,22,23
 147 488 147 488 132 478 c 128,-1,24
 117 468 117 468 117 451 c 0,25,26
 117 437 117 437 135 416 c 128,-1,27
 153 395 153 395 153 381 c 0,28,29
 153 351 153 351 132.5 330.5 c 128,-1,30
 112 310 112 310 83 310 c 0,31,32
 53 310 53 310 32.5 331 c 128,-1,33
 12 352 12 352 12 381 c 0,34,35
 12 438 12 438 58 475 c 128,-1,36
 104 512 104 512 169 512 c 0,37,38
 246 512 246 512 303 470.5 c 128,-1,39
 360 429 360 429 360 364 c 0,40,41
 360 320 360 320 344.5 287 c 128,-1,42
 329 254 329 254 299 234 c 128,-1,43
 269 214 269 214 239.5 200 c 128,-1,44
 210 186 210 186 170 170 c 128,-1,45
 130 154 130 154 105 138 c 1,46,47
 118 141 118 141 132 141 c 0,48,49
 178 141 178 141 228.5 111 c 128,-1,50
 279 81 279 81 307 81 c 0,51,52
 323 81 323 81 333.5 87 c 128,-1,53
 344 93 344 93 347 100.5 c 128,-1,54
 350 108 350 108 354 114 c 128,-1,55
 358 120 358 120 364 120 c 0,56,57
 376 120 376 120 376 108 c 0,58,59
 376 81 376 81 336.5 40.5 c 128,-1,60
 297 0 297 0 234 0 c 0,0,1
EndSplineSet
EndChar

StartChar: three
Encoding: 51 51 11
Width: 342
Flags: W
LayerCount: 2
Fore
SplineSet
269 271 m 0,0,1
 269 261 269 261 280.5 252 c 128,-1,2
 292 243 292 243 305 234.5 c 128,-1,3
 318 226 318 226 329.5 202.5 c 128,-1,4
 341 179 341 179 341 143 c 0,5,6
 341 74 341 74 289.5 37 c 128,-1,7
 238 0 238 0 158 0 c 0,8,9
 95 0 95 0 47.5 31.5 c 128,-1,10
 0 63 0 63 0 116 c 0,11,12
 0 144 0 144 20 163.5 c 128,-1,13
 40 183 40 183 67.5 183 c 128,-1,14
 95 183 95 183 114.5 163 c 128,-1,15
 134 143 134 143 134 116 c 0,16,17
 134 103 134 103 113.5 88.5 c 128,-1,18
 93 74 93 74 93 61 c 0,19,20
 93 42 93 42 112 33 c 128,-1,21
 131 24 131 24 158 24 c 0,22,23
 193 24 193 24 207.5 58.5 c 128,-1,24
 222 93 222 93 222 143 c 2,25,-1
 222 160 l 2,26,27
 222 194 222 194 220 211 c 128,-1,28
 218 228 218 228 206.5 242 c 128,-1,29
 195 256 195 256 171 256 c 2,30,-1
 89 256 l 2,31,32
 75 256 75 256 75 271 c 0,33,34
 75 285 75 285 89 286 c 1,35,-1
 171 286 l 2,36,37
 185 286 185 286 195.5 291.5 c 128,-1,38
 206 297 206 297 211 304.5 c 128,-1,39
 216 312 216 312 218.5 327 c 128,-1,40
 221 342 221 342 221.5 354 c 128,-1,41
 222 366 222 366 222 387 c 2,42,-1
 222 395 l 2,43,44
 222 488 222 488 154 488 c 0,45,46
 94 488 94 488 93 455 c 0,47,48
 93 444 93 444 111.5 431 c 128,-1,49
 130 418 130 418 130 407 c 0,50,51
 130 382 130 382 112.5 364.5 c 128,-1,52
 95 347 95 347 70.5 347 c 128,-1,53
 46 347 46 347 29 364.5 c 128,-1,54
 12 382 12 382 12 407 c 0,55,56
 12 455 12 455 54 483.5 c 128,-1,57
 96 512 96 512 154 512 c 0,58,59
 230 512 230 512 278.5 483 c 128,-1,60
 327 454 327 454 327 395 c 0,61,62
 327 353 327 353 318 330 c 128,-1,63
 309 307 309 307 298 302 c 128,-1,64
 287 297 287 297 278 290 c 128,-1,65
 269 283 269 283 269 271 c 0,0,1
EndSplineSet
EndChar

StartChar: four
Encoding: 52 52 12
Width: 410
Flags: W
LayerCount: 2
Fore
SplineSet
230 499 m 0,0,1
 254 499 254 499 281 506 c 2,2,-1
 308 513 l 1,3,4
 316 513 316 513 321 507 c 128,-1,5
 326 501 326 501 321 496 c 2,6,-1
 30 158 l 1,7,-1
 201 158 l 1,8,-1
 201 292 l 2,9,10
 201 306 201 306 208.5 314 c 128,-1,11
 216 322 216 322 228.5 326.5 c 128,-1,12
 241 331 241 331 260.5 354 c 128,-1,13
 280 377 280 377 298 417 c 0,14,15
 301 423 301 423 307 423 c 0,16,17
 320 423 320 423 321 409 c 1,18,-1
 321 158 l 1,19,-1
 394 158 l 2,20,21
 409 158 409 158 410 143 c 0,22,23
 410 128 410 128 394 128 c 2,24,-1
 321 128 l 1,25,-1
 321 120 l 2,26,27
 321 81 321 81 341 52.5 c 128,-1,28
 361 24 361 24 394 24 c 0,29,30
 406 24 406 24 407 12 c 0,31,32
 407 0 407 0 394 0 c 0,33,34
 371 0 371 0 327 6.5 c 128,-1,35
 283 13 283 13 260.5 13 c 128,-1,36
 238 13 238 13 193 6.5 c 128,-1,37
 148 0 148 0 126 0 c 0,38,39
 114 0 114 0 114 12 c 0,40,41
 114 23 114 23 126 24 c 1,42,43
 159 24 159 24 180 52.5 c 128,-1,44
 201 81 201 81 201 120 c 2,45,-1
 201 128 l 1,46,-1
 30 128 l 2,47,48
 14 128 14 128 6 135.5 c 128,-1,49
 -2 143 -2 143 -2 152 c 0,50,51
 -2 155 -2 155 13 173 c 128,-1,52
 28 191 28 191 49 222 c 128,-1,53
 70 253 70 253 91 292 c 128,-1,54
 112 331 112 331 126.5 385.5 c 128,-1,55
 141 440 141 440 141 496 c 0,56,57
 141 512 141 512 155 512 c 0,58,59
 157 512 157 512 168 509 c 128,-1,60
 179 506 179 506 196.5 502.5 c 128,-1,61
 214 499 214 499 230 499 c 0,0,1
EndSplineSet
EndChar

StartChar: five
Encoding: 53 53 13
Width: 346
Flags: W
LayerCount: 2
Fore
SplineSet
45 512 m 0,0,1
 46 512 46 512 53.5 510.5 c 128,-1,2
 61 509 61 509 74.5 507.5 c 128,-1,3
 88 506 88 506 105 504 c 128,-1,4
 122 502 122 502 144 500.5 c 128,-1,5
 166 499 166 499 187.5 499 c 128,-1,6
 209 499 209 499 231.5 500.5 c 128,-1,7
 254 502 254 502 271.5 504 c 128,-1,8
 289 506 289 506 302 507.5 c 128,-1,9
 315 509 315 509 323.5 510.5 c 128,-1,10
 332 512 332 512 333 512 c 0,11,12
 342 512 342 512 346.5 506 c 128,-1,13
 351 500 351 500 346 496 c 0,14,15
 251 401 251 401 77 400 c 0,16,17
 70 400 70 400 64.5 395 c 128,-1,18
 59 390 59 390 59 383 c 2,19,-1
 59 285 l 1,20,21
 103 329 103 329 167 329 c 0,22,23
 258 329 258 329 307.5 288 c 128,-1,24
 357 247 357 247 357 164 c 0,25,26
 357 93 357 93 301 46.5 c 128,-1,27
 245 0 245 0 167 0 c 0,28,29
 99 0 99 0 49.5 30.5 c 128,-1,30
 0 61 0 61 0 116 c 0,31,32
 0 144 0 144 20 163.5 c 128,-1,33
 40 183 40 183 67.5 183 c 128,-1,34
 95 183 95 183 114.5 163 c 128,-1,35
 134 143 134 143 134 116 c 0,36,37
 134 103 134 103 113.5 88.5 c 128,-1,38
 93 74 93 74 93 61 c 0,39,40
 93 23 93 23 167 24 c 0,41,42
 239 24 239 24 239 164 c 0,43,44
 239 299 239 299 167 299 c 0,45,46
 134 299 134 299 110 291 c 128,-1,47
 86 283 86 283 76.5 273 c 128,-1,48
 67 263 67 263 58.5 255 c 128,-1,49
 50 247 50 247 45 247 c 0,50,51
 30 247 30 247 30 262 c 2,52,-1
 30 496 l 2,53,54
 30 503 30 503 34.5 507.5 c 128,-1,55
 39 512 39 512 45 512 c 0,0,1
EndSplineSet
EndChar

StartChar: six
Encoding: 54 54 14
Width: 349
Flags: W
LayerCount: 2
Fore
SplineSet
174 262 m 0,0,1
 156 262 156 262 144 255 c 128,-1,2
 132 248 132 248 127 231.5 c 128,-1,3
 122 215 122 215 121 200 c 128,-1,4
 120 185 120 185 120 158 c 2,5,-1
 120 143 l 1,6,-1
 120 128 l 2,7,8
 120 100 120 100 121 85.5 c 128,-1,9
 122 71 122 71 127 54.5 c 128,-1,10
 132 38 132 38 144 31 c 128,-1,11
 156 24 156 24 174 24 c 0,12,13
 196 24 196 24 208.5 32 c 128,-1,14
 221 40 221 40 227 59 c 128,-1,15
 233 78 233 78 235 96 c 128,-1,16
 237 114 237 114 237 143 c 0,17,18
 237 203 237 203 225.5 232.5 c 128,-1,19
 214 262 214 262 174 262 c 0,0,1
120 272 m 1,20,21
 153 285 153 285 174 286 c 1,22,23
 255 286 255 286 301.5 250 c 128,-1,24
 348 214 348 214 348 143.5 c 128,-1,25
 348 73 348 73 301 36.5 c 128,-1,26
 254 0 254 0 174 0 c 0,27,28
 92 0 92 0 46 76 c 128,-1,29
 0 152 0 152 0 256 c 0,30,31
 0 359 0 359 54 435.5 c 128,-1,32
 108 512 108 512 195 512 c 0,33,34
 252 512 252 512 294 483 c 128,-1,35
 336 454 336 454 336 407 c 0,36,37
 336 379 336 379 316.5 359 c 128,-1,38
 297 339 297 339 269.5 339 c 128,-1,39
 242 339 242 339 222 359 c 128,-1,40
 202 379 202 379 202 407 c 0,41,42
 202 419 202 419 222 431.5 c 128,-1,43
 242 444 242 444 242 457 c 0,44,45
 242 471 242 471 227.5 479.5 c 128,-1,46
 213 488 213 488 195 488 c 0,47,48
 149 488 149 488 133.5 451 c 128,-1,49
 118 414 118 414 118 346 c 0,50,51
 118 334 118 334 119 309 c 128,-1,52
 120 284 120 284 120 272 c 1,20,21
EndSplineSet
EndChar

StartChar: seven
Encoding: 55 55 15
Width: 346
Flags: W
LayerCount: 2
Fore
SplineSet
69 420 m 0,0,1
 54 420 54 420 42 402 c 128,-1,2
 30 384 30 384 30 348 c 2,3,-1
 30 271 l 2,4,5
 30 256 30 256 15 256 c 128,-1,6
 0 256 0 256 0 271 c 2,7,-1
 0 497 l 2,8,9
 0 512 0 512 15 512 c 0,10,11
 29 512 29 512 30 497 c 1,12,-1
 30 482 l 2,13,14
 30 478 30 478 33 473.5 c 128,-1,15
 36 469 36 469 40 467 c 128,-1,16
 44 465 44 465 45 467 c 0,17,18
 78 512 78 512 125 512 c 0,19,20
 164 512 164 512 198 483.5 c 128,-1,21
 232 455 232 455 255 455 c 0,22,23
 280 455 280 455 301.5 469 c 128,-1,24
 323 483 323 483 335.5 497.5 c 128,-1,25
 348 512 348 512 352 512 c 0,26,27
 358 512 358 512 363.5 508 c 128,-1,28
 369 504 369 504 369 498 c 0,29,30
 369 494 369 494 343 455 c 128,-1,31
 317 416 317 416 286 365 c 128,-1,32
 255 314 255 314 229.5 238 c 128,-1,33
 204 162 204 162 204 92 c 0,34,35
 204 75 204 75 206 57.5 c 128,-1,36
 208 40 208 40 209.5 30 c 128,-1,37
 211 20 211 20 211.5 11.5 c 128,-1,38
 212 3 212 3 209 0 c 128,-1,39
 206 -3 206 -3 199 -3 c 1,40,-1
 170 5 l 2,41,42
 140 13 140 13 120 13 c 0,43,44
 98 13 98 13 70.5 5 c 128,-1,45
 43 -3 43 -3 40 -3 c 0,46,47
 33 -3 33 -3 29 2.5 c 128,-1,48
 25 8 25 8 28 14 c 0,49,50
 65 102 65 102 117.5 185.5 c 128,-1,51
 170 269 170 269 249 378 c 1,52,53
 219 362 219 362 188 361 c 1,54,55
 155 361 155 361 123 390.5 c 128,-1,56
 91 420 91 420 69 420 c 0,0,1
EndSplineSet
EndChar

StartChar: eight
Encoding: 56 56 16
Width: 376
Flags: W
LayerCount: 2
Fore
SplineSet
265 295 m 1,0,1
 315 349 315 349 315 399 c 0,2,3
 315 440 315 440 280 464 c 128,-1,4
 245 488 245 488 196 488 c 0,5,6
 161 488 161 488 140 466 c 128,-1,7
 119 444 119 444 119 416 c 0,8,9
 119 381 119 381 150 362 c 2,10,-1
 265 295 l 1,0,1
296 278 m 1,11,12
 381 229 381 229 381 147 c 0,13,14
 381 87 381 87 329.5 43.5 c 128,-1,15
 278 0 278 0 187 0 c 0,16,17
 111 0 111 0 55.5 40 c 128,-1,18
 0 80 0 80 0 143 c 0,19,20
 0 167 0 167 14 191.5 c 128,-1,21
 28 216 28 216 39.5 228.5 c 128,-1,22
 51 241 51 241 78 266 c 1,23,24
 16 309 16 309 15 375 c 0,25,26
 15 431 15 431 63.5 471.5 c 128,-1,27
 112 512 112 512 196 512 c 0,28,29
 263 512 263 512 311.5 482 c 128,-1,30
 360 452 360 452 360 399 c 0,31,32
 361 345 361 345 296 278 c 1,11,12
109 248 m 1,33,34
 46 193 46 193 45 143 c 1,35,36
 45 92 45 92 87.5 58 c 128,-1,37
 130 24 130 24 187 24 c 0,38,39
 227 24 227 24 251 49.5 c 128,-1,40
 275 75 275 75 275 109 c 0,41,42
 275 152 275 152 240 172 c 2,43,-1
 109 248 l 1,33,34
EndSplineSet
EndChar

StartChar: nine
Encoding: 57 57 17
Width: 349
Flags: W
LayerCount: 2
Fore
SplineSet
174 250 m 0,0,1
 192 250 192 250 204 257 c 128,-1,2
 216 264 216 264 221 280.5 c 128,-1,3
 226 297 226 297 227 312 c 128,-1,4
 228 327 228 327 228 354 c 2,5,-1
 228 369 l 1,6,-1
 228 384 l 2,7,8
 228 412 228 412 227 426.5 c 128,-1,9
 226 441 226 441 221 457.5 c 128,-1,10
 216 474 216 474 204.5 481 c 128,-1,11
 193 488 193 488 174 488 c 0,12,13
 152 488 152 488 139.5 480 c 128,-1,14
 127 472 127 472 121 453 c 128,-1,15
 115 434 115 434 113.5 416 c 128,-1,16
 112 398 112 398 112 369 c 0,17,18
 112 309 112 309 123 279.5 c 128,-1,19
 134 250 134 250 174 250 c 0,0,1
228 240 m 1,20,21
 195 227 195 227 174 226 c 1,22,23
 93 226 93 226 46.5 262 c 128,-1,24
 0 298 0 298 0 368.5 c 128,-1,25
 0 439 0 439 47 475.5 c 128,-1,26
 94 512 94 512 174 512 c 0,27,28
 256 512 256 512 302 436 c 128,-1,29
 348 360 348 360 348 256 c 0,30,31
 348 153 348 153 294.5 76.5 c 128,-1,32
 241 0 241 0 154 0 c 0,33,34
 97 0 97 0 54.5 29 c 128,-1,35
 12 58 12 58 12 105 c 0,36,37
 12 133 12 133 31.5 153 c 128,-1,38
 51 173 51 173 78.5 173 c 128,-1,39
 106 173 106 173 126 153 c 128,-1,40
 146 133 146 133 146 105 c 0,41,42
 146 93 146 93 126 80.5 c 128,-1,43
 106 68 106 68 106 55 c 0,44,45
 106 41 106 41 120.5 32.5 c 128,-1,46
 135 24 135 24 154 24 c 0,47,48
 200 24 200 24 215 61 c 128,-1,49
 230 98 230 98 230 166 c 0,50,51
 230 178 230 178 229 203 c 128,-1,52
 228 228 228 228 228 240 c 1,20,21
EndSplineSet
EndChar

StartChar: f
Encoding: 102 102 18
Width: 588
Flags: W
LayerCount: 2
Fore
SplineSet
467 485 m 1,0,-1
 371 172 l 2,1,2
 349 100 349 100 309.5 22 c 128,-1,3
 270 -56 270 -56 218.5 -129 c 128,-1,4
 167 -202 167 -202 101.5 -248.5 c 128,-1,5
 36 -295 36 -295 -27 -295 c 0,6,7
 -93 -295 -93 -295 -139.5 -271 c 128,-1,8
 -186 -247 -186 -247 -186 -199 c 0,9,10
 -186 -142 -186 -142 -161 -99.5 c 128,-1,11
 -136 -57 -136 -57 -91 -57 c 0,12,13
 -58 -57 -58 -57 -34 -80.5 c 128,-1,14
 -10 -104 -10 -104 -10 -137 c 0,15,16
 -10 -155 -10 -155 -21 -168 c 128,-1,17
 -32 -181 -32 -181 -45 -187 c 128,-1,18
 -58 -193 -58 -193 -69 -205.5 c 128,-1,19
 -80 -218 -80 -218 -80 -237 c 128,-1,20
 -80 -256 -80 -256 -39 -256 c 2,21,-1
 -27 -256 l 2,22,23
 -3 -256 -3 -256 16 -245 c 128,-1,24
 35 -234 35 -234 46 -220.5 c 128,-1,25
 57 -207 57 -207 67.5 -180 c 128,-1,26
 78 -153 78 -153 82.5 -134 c 128,-1,27
 87 -115 87 -115 94.5 -79.5 c 128,-1,28
 102 -44 102 -44 106 -29 c 2,29,-1
 234 485 l 1,30,-1
 125 485 l 2,31,32
 106 485 106 485 105 505 c 0,33,34
 105 513 105 513 111 519 c 128,-1,35
 117 525 117 525 125 525 c 2,36,-1
 245 525 l 1,37,38
 287 668 287 668 399.5 778.5 c 128,-1,39
 512 889 512 889 640 889 c 0,40,41
 706 889 706 889 753 865 c 128,-1,42
 800 841 800 841 800 793 c 0,43,44
 800 736 800 736 774.5 693.5 c 128,-1,45
 749 651 749 651 703 651 c 0,46,47
 670 651 670 651 647 674.5 c 128,-1,48
 624 698 624 698 624 731 c 0,49,50
 624 749 624 749 634.5 762 c 128,-1,51
 645 775 645 775 658.5 781 c 128,-1,52
 672 787 672 787 682.5 800 c 128,-1,53
 693 813 693 813 693 831 c 0,54,55
 693 850 693 850 652 851 c 1,56,-1
 640 851 l 2,57,58
 603 851 603 851 577 831 c 128,-1,59
 551 811 551 811 536 772 c 128,-1,60
 521 733 521 733 513 697.5 c 128,-1,61
 505 662 505 662 495 608 c 128,-1,62
 485 554 485 554 478 525 c 1,63,-1
 598 525 l 2,64,65
 606 525 606 525 611.5 519 c 128,-1,66
 617 513 617 513 617 505 c 0,67,68
 617 486 617 486 598 485 c 1,69,-1
 467 485 l 1,0,-1
EndSplineSet
EndChar

StartChar: m
Encoding: 109 109 19
Width: 802
Flags: W
LayerCount: 2
Fore
SplineSet
-50 260 m 0,0,1
 -50 264 -50 264 -40.5 291.5 c 128,-1,2
 -31 319 -31 319 -9.5 361.5 c 128,-1,3
 12 404 12 404 40 443.5 c 128,-1,4
 68 483 68 483 109.5 512 c 128,-1,5
 151 541 151 541 196 541 c 0,6,7
 229 541 229 541 249.5 512 c 128,-1,8
 270 483 270 483 274 441 c 1,9,10
 339 540 339 540 420 541 c 0,11,12
 455 541 455 541 477 511 c 128,-1,13
 499 481 499 481 504 438 c 1,14,15
 566 540 566 540 645 541 c 0,16,17
 689 541 689 541 722 503.5 c 128,-1,18
 755 466 755 466 755 419 c 0,19,20
 755 406 755 406 752 393 c 2,21,-1
 687 121 l 2,22,23
 686 118 686 118 686 112 c 0,24,25
 686 98 686 98 698 97 c 1,26,27
 718 97 718 97 757.5 128.5 c 128,-1,28
 797 160 797 160 800 160 c 0,29,30
 811 160 811 160 811 150 c 0,31,32
 811 144 811 144 805 137 c 0,33,34
 720 55 720 55 685 32 c 1,35,36
 629 -7 629 -7 580 -7 c 0,37,38
 552 -7 552 -7 535.5 9 c 128,-1,39
 519 25 519 25 519 49 c 0,40,41
 519 54 519 54 521 67 c 1,42,-1
 592 367 l 2,43,44
 596 385 596 385 596 393 c 0,45,46
 596 426 596 426 571 426 c 0,47,48
 549 426 549 426 528 407.5 c 128,-1,49
 507 389 507 389 499 367 c 1,50,-1
 399 18 l 2,51,52
 394 0 394 0 376 0 c 2,53,-1
 272 0 l 2,54,55
 264 0 264 0 260.5 5.5 c 128,-1,56
 257 11 257 11 259 18 c 2,57,-1
 358 367 l 2,58,59
 363 384 363 384 364 396 c 1,60,61
 364 426 364 426 341 426 c 128,-1,62
 318 426 318 426 295.5 408 c 128,-1,63
 273 390 273 390 265 367 c 2,64,-1
 146 18 l 1,65,66
 141 0 141 0 122 0 c 2,67,-1
 18 0 l 2,68,69
 1 0 1 0 6 18 c 1,70,-1
 125 367 l 2,71,72
 131 387 131 387 131 395 c 0,73,74
 131 426 131 426 105 426 c 0,75,76
 69 426 69 426 37 376.5 c 128,-1,77
 5 327 5 327 -15 266 c 0,78,79
 -21 250 -21 250 -38 250 c 0,80,81
 -50 250 -50 250 -50 260 c 0,0,1
EndSplineSet
EndChar

StartChar: p
Encoding: 112 112 20
Width: 668
Flags: W
LayerCount: 2
Fore
SplineSet
427 444 m 0,0,1
 377 444 377 444 332.5 386 c 128,-1,2
 288 328 288 328 265 257 c 128,-1,3
 242 186 242 186 242 136 c 0,4,5
 242 64 242 64 297 65 c 0,6,7
 346 65 346 65 379 100 c 1,8,9
 415 140 415 140 443.5 240.5 c 128,-1,10
 472 341 472 341 472 383 c 0,11,12
 472 444 472 444 427 444 c 0,0,1
-100 261 m 1,13,14
 -96 272 -96 272 -89.5 290.5 c 128,-1,15
 -83 309 -83 309 -59 355.5 c 128,-1,16
 -35 402 -35 402 -9.5 438.5 c 128,-1,17
 16 475 16 475 56 504.5 c 128,-1,18
 96 534 96 534 137 534 c 0,19,20
 187 534 187 534 222.5 508 c 128,-1,21
 258 482 258 482 268 438 c 1,22,23
 308 482 308 482 359 508 c 128,-1,24
 410 534 410 534 458 534 c 0,25,26
 550 534 550 534 601 475.5 c 128,-1,27
 652 417 652 417 652 325 c 0,28,29
 652 248 652 248 621 182 c 128,-1,30
 590 116 590 116 544.5 76 c 128,-1,31
 499 36 499 36 451 14 c 128,-1,32
 403 -8 403 -8 366 -8 c 0,33,34
 323 -8 323 -8 290 1 c 128,-1,35
 257 10 257 10 238.5 19.5 c 128,-1,36
 220 29 220 29 212 29 c 0,37,38
 187 29 187 29 181 10 c 2,39,-1
 109 -202 l 2,40,41
 108 -205 108 -205 108 -211 c 0,42,43
 108 -228 108 -228 137 -232 c 128,-1,44
 166 -236 166 -236 195 -238 c 128,-1,45
 224 -240 224 -240 224 -253 c 128,-1,46
 224 -266 224 -266 211 -266 c 0,47,48
 210 -266 210 -266 197.5 -265 c 128,-1,49
 185 -264 185 -264 164 -263 c 128,-1,50
 143 -262 143 -262 116.5 -260.5 c 128,-1,51
 90 -259 90 -259 56 -258 c 128,-1,52
 22 -257 22 -257 -11 -257 c 128,-1,53
 -44 -257 -44 -257 -79 -258 c 128,-1,54
 -114 -259 -114 -259 -140 -260.5 c 128,-1,55
 -166 -262 -166 -262 -187 -263 c 128,-1,56
 -208 -264 -208 -264 -219.5 -265 c 128,-1,57
 -231 -266 -231 -266 -232 -266 c 0,58,59
 -246 -266 -246 -266 -247 -253 c 0,60,61
 -247 -247 -247 -247 -243.5 -243.5 c 128,-1,62
 -240 -240 -240 -240 -219 -236.5 c 128,-1,63
 -198 -233 -198 -233 -158 -233 c 0,64,65
 -152 -233 -152 -233 -139 -233.5 c 128,-1,66
 -126 -234 -126 -234 -120 -234 c 0,67,68
 -80 -234 -80 -234 -72 -210 c 2,69,-1
 131 382 l 2,70,71
 136 397 136 397 136 410 c 0,72,73
 136 445 136 445 106 444 c 1,74,75
 63 444 63 444 15 387 c 128,-1,76
 -33 330 -33 330 -60 266 c 0,77,78
 -67 249 -67 249 -86 249 c 0,79,80
 -100 249 -100 249 -100 261 c 1,13,14
EndSplineSet
EndChar

StartChar: r
Encoding: 114 114 21
Width: 401
Flags: W
LayerCount: 2
Fore
SplineSet
443 387 m 0,0,1
 416 387 416 387 402 400 c 128,-1,2
 388 413 388 413 385.5 428.5 c 128,-1,3
 383 444 383 444 374 457 c 128,-1,4
 365 470 365 470 346 470 c 0,5,6
 315 470 315 470 280.5 443.5 c 128,-1,7
 246 417 246 417 239 386 c 1,8,-1
 143 18 l 2,9,10
 138 0 138 0 121 0 c 2,11,-1
 18 0 l 2,12,13
 10 0 10 0 6.5 5.5 c 128,-1,14
 3 11 3 11 5 18 c 2,15,-1
 111 427 l 2,16,17
 114 439 114 439 114 451 c 0,18,19
 114 488 114 488 86 487 c 0,20,21
 62 487 62 487 33.5 460 c 128,-1,22
 5 433 5 433 -2 406 c 1,23,24
 -8 396 -8 396 -18 395 c 1,25,26
 -30 395 -30 395 -31 407 c 0,27,28
 -31 413 -31 413 -25.5 427 c 128,-1,29
 -20 441 -20 441 -7 462 c 128,-1,30
 6 483 6 483 24 502 c 128,-1,31
 42 521 42 521 72 534.5 c 128,-1,32
 102 548 102 548 137 548 c 0,33,34
 174 548 174 548 201.5 530.5 c 128,-1,35
 229 513 229 513 243 483 c 1,36,37
 321 549 321 549 412 549 c 0,38,39
 461 549 461 549 491 528.5 c 128,-1,40
 521 508 521 508 521 474 c 0,41,42
 521 442 521 442 497 414.5 c 128,-1,43
 473 387 473 387 443 387 c 0,0,1
EndSplineSet
EndChar

StartChar: s
Encoding: 115 115 22
Width: 378
Flags: W
LayerCount: 2
Fore
SplineSet
224 403 m 0,0,1
 224 377 224 377 252.5 352 c 128,-1,2
 281 327 281 327 315 307 c 128,-1,3
 349 287 349 287 377.5 252 c 128,-1,4
 406 217 406 217 406 175 c 0,5,6
 406 98 406 98 341 49 c 128,-1,7
 276 0 276 0 188 0 c 0,8,9
 126 0 126 0 80.5 28.5 c 128,-1,10
 35 57 35 57 35 106 c 0,11,12
 35 137 35 137 50.5 159.5 c 128,-1,13
 66 182 66 182 91 182 c 128,-1,14
 116 182 116 182 133 164.5 c 128,-1,15
 150 147 150 147 150 123 c 0,16,17
 150 111 150 111 130.5 97 c 128,-1,18
 111 83 111 83 111 71 c 0,19,20
 111 48 111 48 132.5 38 c 128,-1,21
 154 28 154 28 184 28 c 0,22,23
 229 28 229 28 262 55 c 128,-1,24
 295 82 295 82 295 123 c 0,25,26
 295 160 295 160 267 190.5 c 128,-1,27
 239 221 239 221 205 240 c 128,-1,28
 171 259 171 259 143 288 c 128,-1,29
 115 317 115 317 115 351 c 0,30,31
 115 428 115 428 172.5 481 c 128,-1,32
 230 534 230 534 310 534 c 0,33,34
 378 534 378 534 411.5 500.5 c 128,-1,35
 445 467 445 467 445 423 c 0,36,37
 445 392 445 392 429.5 371 c 128,-1,38
 414 350 414 350 386 350 c 0,39,40
 362 350 362 350 345 362 c 128,-1,41
 328 374 328 374 328 389 c 0,42,43
 328 393 328 393 340.5 416.5 c 128,-1,44
 353 440 353 440 353 465 c 0,45,46
 353 484 353 484 344 497 c 128,-1,47
 335 510 335 510 318 510 c 0,48,49
 278 510 278 510 251 478 c 128,-1,50
 224 446 224 446 224 403 c 0,0,1
EndSplineSet
EndChar

StartChar: z
Encoding: 122 122 23
Width: 524
Flags: W
LayerCount: 2
Fore
SplineSet
65 18 m 0,0,1
 45 18 45 18 31 9 c 128,-1,2
 17 0 17 0 14 0 c 0,3,4
 9 0 9 0 4.5 4.5 c 128,-1,5
 0 9 0 9 0 14 c 0,6,7
 0 20 0 20 4 25 c 2,8,-1
 394 389 l 1,9,10
 360 378 360 378 321.5 371 c 128,-1,11
 283 364 283 364 232.5 356.5 c 128,-1,12
 182 349 182 349 157 345 c 0,13,14
 72 329 72 329 63 329 c 0,15,16
 28 329 28 329 29 359 c 1,17,18
 29 405 29 405 79.5 446 c 128,-1,19
 130 487 130 487 181 487 c 0,20,21
 210 487 210 487 267 476 c 128,-1,22
 324 465 324 465 352 465 c 0,23,24
 366 465 366 465 395 460 c 128,-1,25
 424 455 424 455 437 455 c 0,26,27
 460 455 460 455 474.5 464.5 c 128,-1,28
 489 474 489 474 492 474 c 0,29,30
 497 474 497 474 501.5 469.5 c 128,-1,31
 506 465 506 465 506 460 c 0,32,33
 506 454 506 454 502 450 c 2,34,-1
 134 108 l 1,35,36
 149 112 149 112 170 112 c 0,37,38
 219 112 219 112 318 117 c 128,-1,39
 417 122 417 122 466 122 c 0,40,41
 495 122 495 122 495 163 c 0,42,43
 495 177 495 177 490 194 c 128,-1,44
 485 211 485 211 485 212 c 0,45,46
 485 225 485 225 500 225 c 0,47,48
 523 225 523 225 522 139 c 0,49,50
 522 70 522 70 493 20.5 c 128,-1,51
 464 -29 464 -29 411 -29 c 0,52,53
 364 -29 364 -29 272 -9 c 128,-1,54
 180 11 180 11 133 11 c 0,55,56
 122 11 122 11 98.5 14.5 c 128,-1,57
 75 18 75 18 65 18 c 0,0,1
EndSplineSet
EndChar

StartChar: rests.0
Encoding: 57600 57600 24
Width: 385
Flags: W
LayerCount: 2
Fore
SplineSet
374 -160 m 2,0,-1
 10 -160 l 2,1,2
 0 -160 0 -160 0 -150 c 2,3,-1
 0 -10 l 2,4,5
 0 0 0 0 10 0 c 2,6,-1
 374 0 l 2,7,8
 384 0 384 0 384 -10 c 2,9,-1
 384 -150 l 2,10,11
 384 -160 384 -160 374 -160 c 2,0,-1
EndSplineSet
EndChar

StartChar: rests.1
Encoding: 57601 57601 25
Width: 385
Flags: W
LayerCount: 2
Fore
SplineSet
374 0 m 2,0,-1
 10 0 l 2,1,2
 0 0 0 0 0 10 c 2,3,-1
 0 150 l 2,4,5
 0 160 0 160 10 160 c 2,6,-1
 374 160 l 2,7,8
 384 160 384 160 384 150 c 2,9,-1
 384 10 l 2,10,11
 384 0 384 0 374 0 c 2,0,-1
EndSplineSet
EndChar

StartChar: rests.0o
Encoding: 57602 57602 26
Width: 385
Flags: W
LayerCount: 2
Fore
SplineSet
374 -160 m 2,0,-1
 10 -160 l 2,1,2
 0 -160 0 -160 0 -150 c 2,3,-1
 0 -26 l 1,4,-1
 -134 -26 l 2,5,6
 -145 -26 -145 -26 -152.5 -18 c 128,-1,7
 -160 -10 -160 -10 -160 0 c 128,-1,8
 -160 10 -160 10 -152.5 18 c 128,-1,9
 -145 26 -145 26 -134 26 c 2,10,-1
 518 26 l 2,11,12
 528 26 528 26 536 18 c 128,-1,13
 544 10 544 10 544 0 c 128,-1,14
 544 -10 544 -10 536 -18 c 128,-1,15
 528 -26 528 -26 518 -26 c 2,16,-1
 384 -26 l 1,17,-1
 384 -150 l 2,18,19
 384 -160 384 -160 374 -160 c 2,0,-1
EndSplineSet
EndChar

StartChar: rests.1o
Encoding: 57603 57603 27
Width: 385
Flags: W
LayerCount: 2
Fore
SplineSet
518 -26 m 2,0,-1
 -134 -26 l 2,1,2
 -145 -26 -145 -26 -152.5 -18 c 128,-1,3
 -160 -10 -160 -10 -160 0 c 128,-1,4
 -160 10 -160 10 -152.5 18 c 128,-1,5
 -145 26 -145 26 -134 26 c 2,6,-1
 0 26 l 1,7,-1
 0 150 l 2,8,9
 0 160 0 160 10 160 c 2,10,-1
 374 160 l 2,11,12
 384 160 384 160 384 150 c 2,13,-1
 384 26 l 1,14,-1
 518 26 l 2,15,16
 528 26 528 26 536 18 c 128,-1,17
 544 10 544 10 544 0 c 128,-1,18
 544 -10 544 -10 536 -18 c 128,-1,19
 528 -26 528 -26 518 -26 c 2,0,-1
EndSplineSet
EndChar

StartChar: rests.M3
Encoding: 57604 57604 28
Width: 461
Flags: W
LayerCount: 2
Fore
SplineSet
451 -256 m 2,0,-1
 317 -256 l 2,1,2
 307 -256 307 -256 307 -246 c 2,3,-1
 307 246 l 2,4,5
 307 256 307 256 317 256 c 2,6,-1
 451 256 l 2,7,8
 461 256 461 256 461 246 c 2,9,-1
 461 -246 l 2,10,11
 461 -256 461 -256 451 -256 c 2,0,-1
143 -256 m 2,12,-1
 10 -256 l 2,13,14
 0 -256 0 -256 0 -246 c 2,15,-1
 0 246 l 2,16,17
 0 256 0 256 10 256 c 2,18,-1
 143 256 l 2,19,20
 153 256 153 256 154 246 c 1,21,-1
 154 -246 l 1,22,23
 153 -256 153 -256 143 -256 c 2,12,-1
EndSplineSet
EndChar

StartChar: rests.M2
Encoding: 57605 57605 29
Width: 153
Flags: W
LayerCount: 2
Fore
SplineSet
143 -256 m 2,0,-1
 10 -256 l 2,1,2
 0 -256 0 -256 0 -246 c 2,3,-1
 0 246 l 2,4,5
 0 256 0 256 10 256 c 2,6,-1
 143 256 l 2,7,8
 153 256 153 256 154 246 c 1,9,-1
 154 -246 l 1,10,11
 153 -256 153 -256 143 -256 c 2,0,-1
EndSplineSet
EndChar

StartChar: rests.M1
Encoding: 57606 57606 30
Width: 153
Flags: W
LayerCount: 2
Fore
SplineSet
143 0 m 2,0,-1
 10 0 l 2,1,2
 0 0 0 0 0 10 c 2,3,-1
 0 246 l 2,4,5
 0 256 0 256 10 256 c 2,6,-1
 143 256 l 2,7,8
 153 256 153 256 154 246 c 1,9,-1
 154 10 l 1,10,11
 153 0 153 0 143 0 c 2,0,-1
EndSplineSet
EndChar

StartChar: rests.2
Encoding: 57607 57607 31
Width: 243
Flags: W
LayerCount: 2
Fore
SplineSet
-6 80 m 0,0,1
 -6 99 -6 99 14 120 c 128,-1,2
 34 141 34 141 57.5 157.5 c 128,-1,3
 81 174 81 174 101 203 c 128,-1,4
 121 232 121 232 121 266 c 0,5,6
 121 307 121 307 95 337 c 2,7,-1
 59 380 l 2,8,9
 55 384 55 384 55 390 c 128,-1,10
 55 396 55 396 61 401 c 128,-1,11
 67 406 67 406 73 406 c 0,12,13
 80 406 80 406 84 400 c 2,14,-1
 239 216 l 2,15,16
 249 203 249 203 249 190 c 0,17,18
 249 171 249 171 229 150 c 128,-1,19
 209 129 209 129 185.5 112.5 c 128,-1,20
 162 96 162 96 142 67 c 128,-1,21
 122 38 122 38 122 4 c 0,22,23
 122 -38 122 -38 146 -67 c 2,24,-1
 232 -168 l 2,25,26
 236 -172 236 -172 237 -178 c 1,27,28
 237 -185 237 -185 231.5 -190 c 128,-1,29
 226 -195 226 -195 220 -195 c 0,30,31
 218 -195 218 -195 203.5 -183.5 c 128,-1,32
 189 -172 189 -172 163.5 -161 c 128,-1,33
 138 -150 138 -150 109 -150 c 0,34,35
 83 -150 83 -150 68.5 -164 c 128,-1,36
 54 -178 54 -178 54 -218 c 0,37,38
 54 -280 54 -280 83 -314 c 0,39,40
 86 -319 86 -319 84 -323.5 c 128,-1,41
 82 -328 82 -328 77 -328 c 0,42,43
 70 -328 70 -328 46 -292 c 128,-1,44
 22 -256 22 -256 -1 -205 c 128,-1,45
 -24 -154 -24 -154 -24 -119 c 0,46,47
 -24 -76 -24 -76 17 -76 c 0,48,49
 66 -76 66 -76 139 -108 c 1,50,-1
 4 54 l 1,51,52
 -6 68 -6 68 -6 80 c 0,0,1
EndSplineSet
EndChar

StartChar: rests.2classical
Encoding: 57608 57608 32
Width: 256
Flags: W
LayerCount: 2
Fore
SplineSet
184 210 m 0,0,1
 215 210 215 210 237 188.5 c 128,-1,2
 259 167 259 167 259 136 c 0,3,4
 259 101 259 101 232.5 78 c 128,-1,5
 206 55 206 55 170 55 c 0,6,7
 126 55 126 55 62 78 c 1,8,-1
 182 -256 l 1,9,10
 171 -266 171 -266 154 -266 c 0,11,12
 138 -266 138 -266 126 -256 c 1,13,-1
 0 174 l 1,14,15
 4 183 4 183 14 183.5 c 128,-1,16
 24 184 24 184 29 174 c 0,17,18
 36 160 36 160 58 135 c 128,-1,19
 80 110 80 110 91 110 c 0,20,21
 106 110 106 110 113.5 125.5 c 128,-1,22
 121 141 121 141 123.5 159.5 c 128,-1,23
 126 178 126 178 140.5 194 c 128,-1,24
 155 210 155 210 184 210 c 0,0,1
EndSplineSet
EndChar

StartChar: rests.3
Encoding: 57609 57609 33
Width: 256
Flags: W
LayerCount: 2
Fore
SplineSet
72 210 m 0,0,1
 101 210 101 210 115.5 194 c 128,-1,2
 130 178 130 178 132.5 159.5 c 128,-1,3
 135 141 135 141 142.5 125.5 c 128,-1,4
 150 110 150 110 165 110 c 0,5,6
 176 110 176 110 198 135 c 128,-1,7
 220 160 220 160 227 174 c 0,8,9
 232 184 232 184 242 183.5 c 128,-1,10
 252 183 252 183 256 174 c 1,11,-1
 130 -256 l 1,12,13
 119 -266 119 -266 102 -266 c 128,-1,14
 85 -266 85 -266 74 -256 c 1,15,-1
 194 78 l 1,16,17
 131 55 131 55 86 55 c 0,18,19
 50 55 50 55 23.5 78 c 128,-1,20
 -3 101 -3 101 -3 136 c 0,21,22
 -3 167 -3 167 19 188.5 c 128,-1,23
 41 210 41 210 72 210 c 0,0,1
EndSplineSet
EndChar

StartChar: rests.4
Encoding: 57610 57610 34
Width: 308
Flags: W
LayerCount: 2
Fore
SplineSet
128 210 m 0,0,1
 157 210 157 210 171 194 c 128,-1,2
 185 178 185 178 187.5 159.5 c 128,-1,3
 190 141 190 141 197.5 125.5 c 128,-1,4
 205 110 205 110 220 110 c 0,5,6
 230 110 230 110 250.5 134.5 c 128,-1,7
 271 159 271 159 279 174 c 0,8,9
 284 184 284 184 293.5 183.5 c 128,-1,10
 303 183 303 183 307 174 c 1,11,-1
 124 -512 l 1,12,13
 113 -522 113 -522 96 -522 c 128,-1,14
 79 -522 79 -522 68 -512 c 1,15,-1
 171 -177 l 1,16,17
 104 -201 104 -201 62 -201 c 0,18,19
 26 -201 26 -201 -0.5 -178 c 128,-1,20
 -27 -155 -27 -155 -27 -120 c 0,21,22
 -27 -89 -27 -89 -5.5 -67.5 c 128,-1,23
 16 -46 16 -46 47 -46 c 0,24,25
 76 -46 76 -46 90.5 -62 c 128,-1,26
 105 -78 105 -78 108 -96.5 c 128,-1,27
 111 -115 111 -115 118 -130.5 c 128,-1,28
 125 -146 125 -146 140 -146 c 0,29,30
 151 -146 151 -146 174.5 -118.5 c 128,-1,31
 198 -91 198 -91 202 -77 c 2,32,-1
 249 78 l 1,33,34
 186 55 186 55 142 55 c 0,35,36
 106 55 106 55 79.5 78 c 128,-1,37
 53 101 53 101 53 136 c 0,38,39
 53 167 53 167 75 188.5 c 128,-1,40
 97 210 97 210 128 210 c 0,0,1
EndSplineSet
EndChar

StartChar: rests.5
Encoding: 57611 57611 35
Width: 333
Flags: W
LayerCount: 2
Fore
SplineSet
158 466 m 0,0,1
 187 466 187 466 201.5 450 c 128,-1,2
 216 434 216 434 218.5 415.5 c 128,-1,3
 221 397 221 397 228.5 381.5 c 128,-1,4
 236 366 236 366 251 366 c 0,5,6
 261 366 261 366 279.5 390.5 c 128,-1,7
 298 415 298 415 304 430 c 0,8,9
 309 440 309 440 319 439.5 c 128,-1,10
 329 439 329 439 333 430 c 1,11,-1
 112 -512 l 1,12,13
 101 -522 101 -522 83 -522 c 0,14,15
 67 -522 67 -522 55 -512 c 1,16,-1
 143 -177 l 1,17,18
 80 -201 80 -201 33 -201 c 0,19,20
 -3 -201 -3 -201 -29.5 -178 c 128,-1,21
 -56 -155 -56 -155 -56 -120 c 0,22,23
 -56 -89 -56 -89 -34.5 -67.5 c 128,-1,24
 -13 -46 -13 -46 17 -46 c 0,25,26
 46 -46 46 -46 61 -62 c 128,-1,27
 76 -78 76 -78 78.5 -96.5 c 128,-1,28
 81 -115 81 -115 88 -130.5 c 128,-1,29
 95 -146 95 -146 111 -146 c 0,30,31
 123 -146 123 -146 145 -117.5 c 128,-1,32
 167 -89 167 -89 171 -74 c 2,33,-1
 211 79 l 1,34,35
 144 55 144 55 102 55 c 0,36,37
 66 55 66 55 39.5 78 c 128,-1,38
 13 101 13 101 13 136 c 0,39,40
 13 167 13 167 35 188.5 c 128,-1,41
 57 210 57 210 88 210 c 0,42,43
 117 210 117 210 131 194 c 128,-1,44
 145 178 145 178 148 159.5 c 128,-1,45
 151 141 151 141 158 125.5 c 128,-1,46
 165 110 165 110 180 110 c 0,47,48
 191 110 191 110 212.5 137.5 c 128,-1,49
 234 165 234 165 238 179 c 2,50,-1
 279 334 l 1,51,52
 218 311 218 311 173 311 c 0,53,54
 137 311 137 311 110.5 334 c 128,-1,55
 84 357 84 357 84 392 c 0,56,57
 84 423 84 423 105.5 444.5 c 128,-1,58
 127 466 127 466 158 466 c 0,0,1
EndSplineSet
EndChar

StartChar: rests.6
Encoding: 57612 57612 36
Width: 359
Flags: W
LayerCount: 2
Fore
SplineSet
188 466 m 0,0,1
 217 466 217 466 232 450 c 128,-1,2
 247 434 247 434 249.5 415.5 c 128,-1,3
 252 397 252 397 259 381.5 c 128,-1,4
 266 366 266 366 282 366 c 0,5,6
 291 366 291 366 307 390 c 128,-1,7
 323 414 323 414 330 430 c 0,8,9
 335 440 335 440 344.5 439.5 c 128,-1,10
 354 439 354 439 358 430 c 1,11,-1
 118 -768 l 1,12,13
 107 -778 107 -778 89 -778 c 0,14,15
 73 -778 73 -778 61 -768 c 1,16,-1
 136 -432 l 1,17,18
 68 -457 68 -457 20 -457 c 0,19,20
 -16 -457 -16 -457 -42.5 -434 c 128,-1,21
 -69 -411 -69 -411 -69 -376 c 0,22,23
 -69 -345 -69 -345 -47 -323.5 c 128,-1,24
 -25 -302 -25 -302 6 -302 c 0,25,26
 35 -302 35 -302 49 -318 c 128,-1,27
 63 -334 63 -334 66 -352.5 c 128,-1,28
 69 -371 69 -371 76 -386.5 c 128,-1,29
 83 -402 83 -402 98 -402 c 0,30,31
 110 -402 110 -402 133.5 -372.5 c 128,-1,32
 157 -343 157 -343 160 -328 c 2,33,-1
 194 -177 l 1,34,35
 131 -201 131 -201 82 -201 c 0,36,37
 46 -201 46 -201 19.5 -178 c 128,-1,38
 -7 -155 -7 -155 -7 -120 c 0,39,40
 -7 -89 -7 -89 14.5 -67.5 c 128,-1,41
 36 -46 36 -46 67 -46 c 0,42,43
 96 -46 96 -46 110.5 -62 c 128,-1,44
 125 -78 125 -78 127.5 -96.5 c 128,-1,45
 130 -115 130 -115 137 -130.5 c 128,-1,46
 144 -146 144 -146 160 -146 c 0,47,48
 171 -146 171 -146 192 -117.5 c 128,-1,49
 213 -89 213 -89 216 -74 c 2,50,-1
 251 79 l 1,51,52
 184 55 184 55 142 55 c 0,53,54
 106 55 106 55 79.5 78 c 128,-1,55
 53 101 53 101 53 136 c 0,56,57
 53 167 53 167 75 188.5 c 128,-1,58
 97 210 97 210 128 210 c 0,59,60
 157 210 157 210 171 194 c 128,-1,61
 185 178 185 178 187.5 159.5 c 128,-1,62
 190 141 190 141 197.5 125.5 c 128,-1,63
 205 110 205 110 220 110 c 0,64,65
 230 110 230 110 249.5 137.5 c 128,-1,66
 269 165 269 165 273 179 c 2,67,-1
 308 334 l 1,68,69
 246 311 246 311 204 311 c 0,70,71
 168 311 168 311 141.5 334 c 128,-1,72
 115 357 115 357 115 392 c 0,73,74
 115 423 115 423 136 444.5 c 128,-1,75
 157 466 157 466 188 466 c 0,0,1
EndSplineSet
EndChar

StartChar: rests.7
Encoding: 57613 57613 37
Width: 385
Flags: W
LayerCount: 2
Fore
SplineSet
219 722 m 0,0,1
 248 722 248 722 263 706 c 128,-1,2
 278 690 278 690 280.5 671.5 c 128,-1,3
 283 653 283 653 290 637.5 c 128,-1,4
 297 622 297 622 312 622 c 0,5,6
 325 622 325 622 355 686 c 0,7,8
 360 696 360 696 370 695.5 c 128,-1,9
 380 695 380 695 384 686 c 1,10,-1
 141 -768 l 1,11,12
 130 -778 130 -778 113 -778 c 0,13,14
 97 -778 97 -778 85 -768 c 1,15,-1
 147 -431 l 1,16,17
 77 -457 77 -457 28 -457 c 0,18,19
 -8 -457 -8 -457 -34.5 -434 c 128,-1,20
 -61 -411 -61 -411 -61 -376 c 0,21,22
 -61 -345 -61 -345 -39.5 -323.5 c 128,-1,23
 -18 -302 -18 -302 12 -302 c 0,24,25
 41 -302 41 -302 56 -318 c 128,-1,26
 71 -334 71 -334 73.5 -352.5 c 128,-1,27
 76 -371 76 -371 83 -386.5 c 128,-1,28
 90 -402 90 -402 105 -402 c 0,29,30
 118 -402 118 -402 141.5 -371.5 c 128,-1,31
 165 -341 165 -341 167 -325 c 2,32,-1
 195 -176 l 1,33,34
 125 -201 125 -201 79 -201 c 0,35,36
 43 -201 43 -201 16.5 -178 c 128,-1,37
 -10 -155 -10 -155 -10 -120 c 0,38,39
 -10 -89 -10 -89 11.5 -67.5 c 128,-1,40
 33 -46 33 -46 63 -46 c 0,41,42
 92 -46 92 -46 107 -62 c 128,-1,43
 122 -78 122 -78 124.5 -96.5 c 128,-1,44
 127 -115 127 -115 134 -130.5 c 128,-1,45
 141 -146 141 -146 157 -146 c 0,46,47
 169 -146 169 -146 190 -116.5 c 128,-1,48
 211 -87 211 -87 214 -72 c 2,49,-1
 242 79 l 1,50,51
 179 55 179 55 131 55 c 0,52,53
 95 55 95 55 68.5 78 c 128,-1,54
 42 101 42 101 42 136 c 0,55,56
 42 167 42 167 63.5 188.5 c 128,-1,57
 85 210 85 210 116 210 c 0,58,59
 145 210 145 210 159.5 194 c 128,-1,60
 174 178 174 178 176.5 159.5 c 128,-1,61
 179 141 179 141 186.5 125.5 c 128,-1,62
 194 110 194 110 209 110 c 0,63,64
 220 110 220 110 239 138.5 c 128,-1,65
 258 167 258 167 261 182 c 2,66,-1
 290 334 l 1,67,68
 227 311 227 311 182 311 c 0,69,70
 146 311 146 311 119.5 334 c 128,-1,71
 93 357 93 357 93 392 c 0,72,73
 93 423 93 423 114.5 444.5 c 128,-1,74
 136 466 136 466 167 466 c 0,75,76
 196 466 196 466 210.5 450 c 128,-1,77
 225 434 225 434 227.5 415.5 c 128,-1,78
 230 397 230 397 237.5 381.5 c 128,-1,79
 245 366 245 366 260 366 c 0,80,81
 270 366 270 366 287.5 393.5 c 128,-1,82
 305 421 305 421 308 435 c 2,83,-1
 337 590 l 1,84,85
 277 567 277 567 234 567 c 0,86,87
 198 567 198 567 171.5 590 c 128,-1,88
 145 613 145 613 145 648 c 0,89,90
 145 679 145 679 166.5 700.5 c 128,-1,91
 188 722 188 722 219 722 c 0,0,1
EndSplineSet
EndChar

StartChar: accidentals.sharp
Encoding: 57614 57614 38
Width: 282
Flags: W
LayerCount: 2
Fore
SplineSet
221 -319 m 2,0,1
 221 -327 221 -327 215.5 -333 c 128,-1,2
 210 -339 210 -339 203 -339 c 0,3,4
 195 -339 195 -339 189 -333.5 c 128,-1,5
 183 -328 183 -328 183 -319 c 2,6,-1
 183 -171 l 1,7,-1
 98 -203 l 1,8,-1
 98 -365 l 2,9,10
 98 -373 98 -373 92 -378.5 c 128,-1,11
 86 -384 86 -384 79 -384 c 128,-1,12
 72 -384 72 -384 66 -378.5 c 128,-1,13
 60 -373 60 -373 60 -365 c 2,14,-1
 60 -216 l 1,15,-1
 28 -228 l 2,16,17
 26 -229 26 -229 20 -229 c 0,18,19
 12 -229 12 -229 6 -223 c 128,-1,20
 0 -217 0 -217 0 -209 c 2,21,-1
 0 -147 l 2,22,23
 0 -133 0 -133 13 -128 c 2,24,-1
 60 -112 l 1,25,-1
 60 52 l 1,26,-1
 28 41 l 2,27,28
 26 40 26 40 20 40 c 0,29,30
 12 40 12 40 6 46 c 128,-1,31
 0 52 0 52 0 60 c 2,32,-1
 0 122 l 2,33,34
 0 135 0 135 13 140 c 2,35,-1
 60 158 l 1,36,-1
 60 319 l 2,37,38
 60 327 60 327 66 333 c 128,-1,39
 72 339 72 339 79 339 c 128,-1,40
 86 339 86 339 92 333.5 c 128,-1,41
 98 328 98 328 98 319 c 2,42,-1
 98 171 l 1,43,-1
 183 203 l 1,44,-1
 183 365 l 2,45,46
 183 373 183 373 189 378.5 c 128,-1,47
 195 384 195 384 203 384 c 0,48,49
 210 384 210 384 215.5 378.5 c 128,-1,50
 221 373 221 373 221 365 c 2,51,-1
 221 216 l 1,52,-1
 254 228 l 2,53,54
 256 229 256 229 261 229 c 0,55,56
 269 229 269 229 275.5 223 c 128,-1,57
 282 217 282 217 282 209 c 2,58,-1
 282 147 l 2,59,60
 282 133 282 133 268 128 c 2,61,-1
 221 112 l 1,62,-1
 221 -52 l 1,63,-1
 254 -41 l 2,64,65
 256 -40 256 -40 261 -40 c 0,66,67
 269 -40 269 -40 275.5 -46 c 128,-1,68
 282 -52 282 -52 282 -60 c 2,69,-1
 282 -122 l 2,70,71
 282 -135 282 -135 268 -140 c 2,72,-1
 221 -158 l 1,73,-1
 221 -319 l 2,0,1
183 97 m 1,74,-1
 98 67 l 1,75,-1
 98 -97 l 1,76,-1
 183 -67 l 1,77,-1
 183 97 l 1,74,-1
EndSplineSet
EndChar

StartChar: accidentals.sharp.slashslash.stem
Encoding: 57615 57615 39
Width: 179
Flags: W
LayerCount: 2
Fore
SplineSet
109 -326 m 2,0,1
 109 -334 109 -334 103 -339.5 c 128,-1,2
 97 -345 97 -345 90 -345 c 0,3,4
 82 -345 82 -345 76.5 -339.5 c 128,-1,5
 71 -334 71 -334 71 -326 c 2,6,-1
 71 -200 l 1,7,-1
 31 -222 l 2,8,9
 27 -225 27 -225 20 -225 c 0,10,11
 12 -225 12 -225 6 -219.5 c 128,-1,12
 0 -214 0 -214 0 -205 c 2,13,-1
 0 -143 l 2,14,15
 0 -132 0 -132 10 -125 c 1,16,-1
 71 -91 l 1,17,-1
 71 69 l 1,18,-1
 31 46 l 2,19,20
 28 44 28 44 20 44 c 128,-1,21
 12 44 12 44 6 49.5 c 128,-1,22
 0 55 0 55 0 65 c 2,23,-1
 0 126 l 2,24,25
 0 136 0 136 10 143 c 1,26,-1
 71 178 l 1,27,-1
 71 326 l 2,28,29
 71 334 71 334 76.5 339.5 c 128,-1,30
 82 345 82 345 90 345 c 0,31,32
 97 345 97 345 103 339.5 c 128,-1,33
 109 334 109 334 109 326 c 2,34,-1
 109 200 l 1,35,-1
 148 222 l 2,36,37
 153 225 153 225 159 225 c 0,38,39
 167 225 167 225 173 219.5 c 128,-1,40
 179 214 179 214 179 205 c 2,41,-1
 179 143 l 2,42,43
 179 132 179 132 169 125 c 1,44,-1
 109 91 l 1,45,-1
 109 -69 l 1,46,-1
 148 -46 l 2,47,48
 151 -44 151 -44 159 -44 c 128,-1,49
 167 -44 167 -44 173 -49.5 c 128,-1,50
 179 -55 179 -55 179 -65 c 2,51,-1
 179 -126 l 2,52,53
 179 -136 179 -136 169 -143 c 1,54,-1
 109 -178 l 1,55,-1
 109 -326 l 2,0,1
EndSplineSet
EndChar

StartChar: accidentals.sharp.slashslashslash.stemstem
Encoding: 57616 57616 40
Width: 282
Flags: W
LayerCount: 2
Fore
SplineSet
221 -324 m 2,0,1
 221 -332 221 -332 215.5 -337.5 c 128,-1,2
 210 -343 210 -343 203 -343 c 0,3,4
 195 -343 195 -343 189 -337.5 c 128,-1,5
 183 -332 183 -332 183 -324 c 2,6,-1
 183 -181 l 1,7,-1
 98 -210 l 1,8,-1
 98 -365 l 2,9,10
 98 -373 98 -373 92 -378.5 c 128,-1,11
 86 -384 86 -384 79 -384 c 128,-1,12
 72 -384 72 -384 66 -378.5 c 128,-1,13
 60 -373 60 -373 60 -365 c 2,14,-1
 60 -222 l 1,15,-1
 44 -227 l 2,16,17
 42 -228 42 -228 37 -228 c 0,18,19
 29 -228 29 -228 22.5 -222 c 128,-1,20
 16 -216 16 -216 16 -208 c 2,21,-1
 16 -167 l 2,22,23
 16 -153 16 -153 31 -147 c 1,24,-1
 60 -138 l 1,25,-1
 60 -75 l 1,26,-1
 27 -85 l 2,27,28
 25 -86 25 -86 20 -86 c 0,29,30
 12 -86 12 -86 6 -80 c 128,-1,31
 0 -74 0 -74 0 -66 c 2,32,-1
 0 -13 l 2,33,34
 0 1 0 1 14 6 c 2,35,-1
 60 20 l 1,36,-1
 60 85 l 1,37,-1
 44 80 l 2,38,39
 42 79 42 79 37 79 c 0,40,41
 29 79 29 79 22.5 85 c 128,-1,42
 16 91 16 91 16 99 c 2,43,-1
 16 140 l 2,44,45
 16 154 16 154 31 160 c 1,46,-1
 60 169 l 1,47,-1
 60 324 l 2,48,49
 60 332 60 332 66 337.5 c 128,-1,50
 72 343 72 343 79 343 c 128,-1,51
 86 343 86 343 92 337.5 c 128,-1,52
 98 332 98 332 98 324 c 2,53,-1
 98 181 l 1,54,-1
 183 210 l 1,55,-1
 183 365 l 2,56,57
 183 373 183 373 189 378.5 c 128,-1,58
 195 384 195 384 203 384 c 0,59,60
 210 384 210 384 215.5 378.5 c 128,-1,61
 221 373 221 373 221 365 c 2,62,-1
 221 222 l 1,63,-1
 238 227 l 2,64,65
 240 228 240 228 245 228 c 0,66,67
 253 228 253 228 259 222 c 128,-1,68
 265 216 265 216 265 208 c 2,69,-1
 265 167 l 2,70,71
 265 153 265 153 251 147 c 1,72,-1
 221 138 l 1,73,-1
 221 75 l 1,74,-1
 255 85 l 2,75,76
 257 86 257 86 261 86 c 0,77,78
 269 86 269 86 275.5 80 c 128,-1,79
 282 74 282 74 282 66 c 2,80,-1
 282 13 l 2,81,82
 282 -1 282 -1 267 -6 c 2,83,-1
 221 -20 l 1,84,-1
 221 -85 l 1,85,-1
 238 -80 l 2,86,87
 240 -79 240 -79 245 -79 c 0,88,89
 253 -79 253 -79 259 -85 c 128,-1,90
 265 -91 265 -91 265 -99 c 2,91,-1
 265 -140 l 2,92,93
 265 -154 265 -154 251 -160 c 1,94,-1
 221 -169 l 1,95,-1
 221 -324 l 2,0,1
183 -34 m 1,96,-1
 98 -61 l 1,97,-1
 98 -126 l 1,98,-1
 183 -97 l 1,99,-1
 183 -34 l 1,96,-1
183 61 m 1,100,-1
 183 126 l 1,101,-1
 98 97 l 1,102,-1
 98 34 l 1,103,-1
 183 61 l 1,100,-1
EndSplineSet
EndChar

StartChar: accidentals.sharp.slashslashslash.stem
Encoding: 57617 57617 41
Width: 243
Flags: W
LayerCount: 2
Fore
SplineSet
141 -311 m 2,0,1
 141 -319 141 -319 135 -325 c 128,-1,2
 129 -331 129 -331 122 -331 c 128,-1,3
 115 -331 115 -331 108.5 -325 c 128,-1,4
 102 -319 102 -319 102 -311 c 2,5,-1
 102 -205 l 1,6,-1
 53 -225 l 2,7,8
 47 -227 47 -227 45 -227 c 0,9,10
 37 -227 37 -227 31 -221.5 c 128,-1,11
 25 -216 25 -216 25 -207 c 2,12,-1
 25 -166 l 2,13,14
 25 -152 25 -152 37 -146 c 2,15,-1
 102 -119 l 1,16,-1
 102 -61 l 1,17,-1
 29 -92 l 2,18,19
 23 -94 23 -94 20 -94 c 0,20,21
 12 -94 12 -94 6 -88.5 c 128,-1,22
 0 -83 0 -83 0 -74 c 2,23,-1
 0 -12 l 2,24,25
 0 2 0 2 12 7 c 2,26,-1
 102 45 l 1,27,-1
 102 102 l 1,28,-1
 53 82 l 2,29,30
 47 80 47 80 45 80 c 0,31,32
 37 80 37 80 31 85.5 c 128,-1,33
 25 91 25 91 25 100 c 2,34,-1
 25 141 l 2,35,36
 25 155 25 155 37 161 c 2,37,-1
 102 188 l 1,38,-1
 102 311 l 2,39,40
 102 319 102 319 108.5 325 c 128,-1,41
 115 331 115 331 122 331 c 128,-1,42
 129 331 129 331 135 325 c 128,-1,43
 141 319 141 319 141 311 c 2,44,-1
 141 205 l 1,45,-1
 190 225 l 2,46,47
 196 227 196 227 199 227 c 0,48,49
 207 227 207 227 213 221.5 c 128,-1,50
 219 216 219 216 219 207 c 2,51,-1
 219 166 l 2,52,53
 219 152 219 152 207 146 c 1,54,-1
 141 119 l 1,55,-1
 141 61 l 1,56,-1
 215 92 l 2,57,58
 221 94 221 94 223 94 c 0,59,60
 231 94 231 94 237.5 88.5 c 128,-1,61
 244 83 244 83 244 74 c 2,62,-1
 244 12 l 2,63,64
 244 -1 244 -1 230 -7 c 2,65,-1
 141 -45 l 1,66,-1
 141 -102 l 1,67,-1
 190 -82 l 2,68,69
 196 -80 196 -80 199 -80 c 0,70,71
 207 -80 207 -80 213 -85.5 c 128,-1,72
 219 -91 219 -91 219 -100 c 2,73,-1
 219 -141 l 2,74,75
 219 -155 219 -155 207 -161 c 1,76,-1
 141 -188 l 1,77,-1
 141 -311 l 2,0,1
EndSplineSet
EndChar

StartChar: accidentals.sharp.slashslash.stemstemstem
Encoding: 57618 57618 42
Width: 410
Flags: W
LayerCount: 2
Fore
SplineSet
339 -307 m 2,0,1
 339 -315 339 -315 333.5 -321 c 128,-1,2
 328 -327 328 -327 320.5 -327 c 128,-1,3
 313 -327 313 -327 307 -321 c 128,-1,4
 301 -315 301 -315 301 -307 c 2,5,-1
 301 -162 l 1,6,-1
 224 -181 l 1,7,-1
 224 -336 l 2,8,9
 224 -344 224 -344 218.5 -349.5 c 128,-1,10
 213 -355 213 -355 205 -355 c 128,-1,11
 197 -355 197 -355 191 -349.5 c 128,-1,12
 185 -344 185 -344 185 -336 c 2,13,-1
 185 -191 l 1,14,-1
 109 -210 l 1,15,-1
 109 -365 l 2,16,17
 109 -373 109 -373 103 -378.5 c 128,-1,18
 97 -384 97 -384 90 -384 c 0,19,20
 82 -384 82 -384 76.5 -378.5 c 128,-1,21
 71 -373 71 -373 71 -365 c 2,22,-1
 71 -220 l 1,23,-1
 26 -231 l 1,24,-1
 20 -231 l 2,25,26
 12 -231 12 -231 6 -225 c 128,-1,27
 0 -219 0 -219 0 -211 c 2,28,-1
 0 -150 l 2,29,30
 0 -134 0 -134 15 -130 c 2,31,-1
 71 -116 l 1,32,-1
 71 49 l 1,33,-1
 26 38 l 2,34,35
 25 38 25 38 23.5 37.5 c 128,-1,36
 22 37 22 37 20 37 c 0,37,38
 12 37 12 37 6 43 c 128,-1,39
 0 49 0 49 0 57 c 2,40,-1
 0 119 l 2,41,42
 0 136 0 136 15 139 c 2,43,-1
 71 153 l 1,44,-1
 71 307 l 2,45,46
 71 315 71 315 76.5 321 c 128,-1,47
 82 327 82 327 90 327 c 0,48,49
 97 327 97 327 103 321 c 128,-1,50
 109 315 109 315 109 307 c 2,51,-1
 109 162 l 1,52,-1
 185 181 l 1,53,-1
 185 336 l 2,54,55
 185 344 185 344 191 349.5 c 128,-1,56
 197 355 197 355 205 355 c 128,-1,57
 213 355 213 355 218.5 349.5 c 128,-1,58
 224 344 224 344 224 336 c 2,59,-1
 224 191 l 1,60,-1
 301 210 l 1,61,-1
 301 365 l 2,62,63
 301 373 301 373 307 378.5 c 128,-1,64
 313 384 313 384 320.5 384 c 128,-1,65
 328 384 328 384 333.5 378.5 c 128,-1,66
 339 373 339 373 339 365 c 2,67,-1
 339 220 l 1,68,-1
 384 231 l 1,69,-1
 389 231 l 2,70,71
 397 231 397 231 403.5 225 c 128,-1,72
 410 219 410 219 410 211 c 2,73,-1
 410 150 l 2,74,75
 410 134 410 134 394 130 c 2,76,-1
 339 116 l 1,77,-1
 339 -49 l 1,78,-1
 384 -38 l 2,79,80
 385 -38 385 -38 386.5 -37.5 c 128,-1,81
 388 -37 388 -37 389 -37 c 0,82,83
 397 -37 397 -37 403.5 -43 c 128,-1,84
 410 -49 410 -49 410 -57 c 2,85,-1
 410 -119 l 2,86,87
 410 -136 410 -136 394 -139 c 1,88,-1
 339 -153 l 1,89,-1
 339 -307 l 2,0,1
301 106 m 1,90,-1
 224 87 l 1,91,-1
 224 -78 l 1,92,-1
 301 -58 l 1,93,-1
 301 106 l 1,90,-1
185 78 m 1,94,-1
 109 58 l 1,95,-1
 109 -106 l 1,96,-1
 185 -87 l 1,97,-1
 185 78 l 1,94,-1
EndSplineSet
EndChar

StartChar: accidentals.natural
Encoding: 57619 57619 43
Width: 171
Flags: W
LayerCount: 2
Fore
SplineSet
-8 384 m 1,0,1
 6 391 6 391 18 391 c 0,2,3
 29 391 29 391 44 384 c 1,4,-1
 41 197 l 1,5,-1
 150 217 l 1,6,-1
 153 217 l 2,7,8
 171 217 171 217 171 200 c 2,9,-1
 178 -384 l 1,10,11
 164 -391 164 -391 152.5 -391 c 128,-1,12
 141 -391 141 -391 127 -384 c 1,13,-1
 130 -197 l 1,14,-1
 22 -217 l 1,15,-1
 18 -217 l 2,16,17
 0 -217 0 -217 0 -200 c 2,18,-1
 -8 384 l 1,0,1
131 -97 m 1,19,-1
 134 115 l 1,20,-1
 40 97 l 1,21,-1
 37 -115 l 1,22,-1
 131 -97 l 1,19,-1
EndSplineSet
EndChar

StartChar: accidentals.flat
Encoding: 57620 57620 44
Width: 204
Flags: W
LayerCount: 2
Fore
SplineSet
28 42 m 2,0,-1
 27 -26 l 1,1,-1
 27 -37 l 2,2,3
 27 -75 27 -75 31 -104 c 1,4,5
 61 -78 61 -78 77.5 -62 c 128,-1,6
 94 -46 94 -46 110 -18 c 128,-1,7
 126 10 126 10 126 38 c 128,-1,8
 126 66 126 66 114 86 c 128,-1,9
 102 106 102 106 82 106 c 0,10,11
 58 106 58 106 43.5 87.5 c 128,-1,12
 29 69 29 69 28 42 c 2,0,-1
-15 -141 m 2,13,-1
 -28 468 l 1,14,15
 -15 476 -15 476 -0.5 476 c 128,-1,16
 14 476 14 476 28 468 c 1,17,-1
 20 115 l 1,18,19
 61 150 61 150 114 150 c 0,20,21
 153 150 153 150 179 118.5 c 128,-1,22
 205 87 205 87 205 45 c 0,23,24
 205 16 205 16 188.5 -10 c 128,-1,25
 172 -36 172 -36 154 -51.5 c 128,-1,26
 136 -67 136 -67 103 -91.5 c 128,-1,27
 70 -116 70 -116 54 -128 c 0,28,29
 49 -132 49 -132 41 -143.5 c 128,-1,30
 33 -155 33 -155 25 -161 c 128,-1,31
 17 -167 17 -167 8 -167 c 0,32,33
 -2 -167 -2 -167 -8.5 -159.5 c 128,-1,34
 -15 -152 -15 -152 -15 -141 c 2,13,-1
EndSplineSet
EndChar

StartChar: accidentals.flat.slash
Encoding: 57621 57621 45
Width: 204
Flags: W
LayerCount: 2
Fore
SplineSet
28 42 m 2,0,-1
 27 -26 l 1,1,-1
 27 -37 l 2,2,3
 27 -75 27 -75 31 -104 c 1,4,5
 61 -78 61 -78 77.5 -62 c 128,-1,6
 94 -46 94 -46 110 -18 c 128,-1,7
 126 10 126 10 126 38 c 128,-1,8
 126 66 126 66 114 86 c 128,-1,9
 102 106 102 106 82 106 c 0,10,11
 58 106 58 106 43.5 87.5 c 128,-1,12
 29 69 29 69 28 42 c 2,0,-1
-24 253 m 1,13,-1
 -28 468 l 1,14,15
 -15 476 -15 476 -0.5 476 c 128,-1,16
 14 476 14 476 28 468 c 1,17,-1
 24 276 l 1,18,-1
 94 311 l 2,19,20
 104 316 104 316 113 309.5 c 128,-1,21
 122 303 122 303 121.5 293.5 c 128,-1,22
 121 284 121 284 111 278 c 2,23,-1
 23 233 l 1,24,-1
 20 115 l 1,25,26
 61 150 61 150 114 150 c 0,27,28
 153 150 153 150 179 118.5 c 128,-1,29
 205 87 205 87 205 45 c 0,30,31
 205 16 205 16 188.5 -10 c 128,-1,32
 172 -36 172 -36 154 -51.5 c 128,-1,33
 136 -67 136 -67 103 -91.5 c 128,-1,34
 70 -116 70 -116 54 -128 c 0,35,36
 49 -132 49 -132 41 -143.5 c 128,-1,37
 33 -155 33 -155 25 -161 c 128,-1,38
 17 -167 17 -167 8 -167 c 0,39,40
 -2 -167 -2 -167 -8.5 -160 c 128,-1,41
 -15 -153 -15 -153 -15 -141 c 2,42,-1
 -23 211 l 1,43,-1
 -94 175 l 2,44,45
 -103 170 -103 170 -112.5 175.5 c 128,-1,46
 -122 181 -122 181 -122 191 c 0,47,48
 -122 203 -122 203 -111 209 c 2,49,-1
 -24 253 l 1,13,-1
EndSplineSet
EndChar

StartChar: accidentals.flat.slashslash
Encoding: 57622 57622 46
Width: 204
Flags: W
LayerCount: 2
Fore
SplineSet
28 42 m 2,0,-1
 27 -26 l 1,1,-1
 27 -37 l 2,2,3
 27 -75 27 -75 31 -104 c 1,4,5
 61 -78 61 -78 77.5 -62 c 128,-1,6
 94 -46 94 -46 110 -18 c 128,-1,7
 126 10 126 10 126 38 c 128,-1,8
 126 66 126 66 114 86 c 128,-1,9
 102 106 102 106 82 106 c 0,10,11
 58 106 58 106 43.5 87.5 c 128,-1,12
 29 69 29 69 28 42 c 2,0,-1
-25 333 m 1,13,-1
 -28 468 l 1,14,15
 -15 476 -15 476 -0.5 476 c 128,-1,16
 14 476 14 476 28 468 c 1,17,-1
 26 358 l 1,18,-1
 94 392 l 2,19,20
 104 397 104 397 113 390.5 c 128,-1,21
 122 384 122 384 121.5 374.5 c 128,-1,22
 121 365 121 365 111 358 c 1,23,-1
 25 315 l 1,24,-1
 23 236 l 1,25,-1
 94 271 l 2,26,27
 104 276 104 276 113 269.5 c 128,-1,28
 122 263 122 263 121.5 253 c 128,-1,29
 121 243 121 243 111 237 c 2,30,-1
 23 193 l 1,31,-1
 20 115 l 1,32,33
 61 150 61 150 114 150 c 0,34,35
 153 150 153 150 179 118.5 c 128,-1,36
 205 87 205 87 205 45 c 0,37,38
 205 16 205 16 188.5 -10 c 128,-1,39
 172 -36 172 -36 154 -51.5 c 128,-1,40
 136 -67 136 -67 103 -91.5 c 128,-1,41
 70 -116 70 -116 54 -128 c 0,42,43
 49 -132 49 -132 41 -143.5 c 128,-1,44
 33 -155 33 -155 25 -161 c 128,-1,45
 17 -167 17 -167 8 -167 c 0,46,47
 -2 -167 -2 -167 -8.5 -160 c 128,-1,48
 -15 -153 -15 -153 -15 -141 c 2,49,-1
 -22 170 l 1,50,-1
 -94 134 l 2,51,52
 -103 129 -103 129 -112.5 135 c 128,-1,53
 -122 141 -122 141 -122 152 c 0,54,55
 -122 164 -122 164 -111 169 c 2,56,-1
 -23 213 l 1,57,-1
 -25 291 l 1,58,-1
 -94 256 l 2,59,60
 -103 251 -103 251 -112.5 257 c 128,-1,61
 -122 263 -122 263 -122 273 c 0,62,63
 -122 284 -122 284 -111 290 c 2,64,-1
 -25 333 l 1,13,-1
EndSplineSet
EndChar

StartChar: accidentals.mirroredflat.flat
Encoding: 57623 57623 47
Width: 410
Flags: W
LayerCount: 2
Fore
SplineSet
213 -167 m 2,0,-1
 197 -167 l 2,1,2
 188 -167 188 -167 180 -161 c 128,-1,3
 172 -155 172 -155 164 -143.5 c 128,-1,4
 156 -132 156 -132 151 -128 c 0,5,6
 136 -116 136 -116 102.5 -91.5 c 128,-1,7
 69 -67 69 -67 51 -51.5 c 128,-1,8
 33 -36 33 -36 16.5 -10 c 128,-1,9
 0 16 0 16 0 45 c 0,10,11
 0 87 0 87 26 118.5 c 128,-1,12
 52 150 52 150 91 150 c 0,13,14
 144 150 144 150 184 116 c 1,15,-1
 177 468 l 1,16,17
 190 476 190 476 204.5 476 c 128,-1,18
 219 476 219 476 232 468 c 1,19,-1
 225 116 l 1,20,21
 265 150 265 150 318 150 c 0,22,23
 357 150 357 150 383.5 118.5 c 128,-1,24
 410 87 410 87 410 45 c 0,25,26
 410 16 410 16 393.5 -10 c 128,-1,27
 377 -36 377 -36 359 -51.5 c 128,-1,28
 341 -67 341 -67 307.5 -91.5 c 128,-1,29
 274 -116 274 -116 259 -128 c 0,30,31
 254 -132 254 -132 246 -143.5 c 128,-1,32
 238 -155 238 -155 230 -161 c 128,-1,33
 222 -167 222 -167 213 -167 c 2,0,-1
177 42 m 2,34,35
 176 69 176 69 161 87.5 c 128,-1,36
 146 106 146 106 123 106 c 0,37,38
 103 106 103 106 91 86 c 128,-1,39
 79 66 79 66 79 38 c 128,-1,40
 79 10 79 10 95 -18 c 128,-1,41
 111 -46 111 -46 127.5 -62.5 c 128,-1,42
 144 -79 144 -79 174 -104 c 1,43,44
 178 -74 178 -74 178 -37 c 2,45,-1
 178 -26 l 1,46,-1
 177 42 l 2,34,35
232 42 m 2,47,-1
 231 -26 l 1,48,-1
 231 -37 l 2,49,50
 231 -75 231 -75 236 -104 c 1,51,52
 266 -78 266 -78 282.5 -62 c 128,-1,53
 299 -46 299 -46 315 -18 c 128,-1,54
 331 10 331 10 331 38 c 128,-1,55
 331 66 331 66 319 86 c 128,-1,56
 307 106 307 106 287 106 c 0,57,58
 263 106 263 106 248 87.5 c 128,-1,59
 233 69 233 69 232 42 c 2,47,-1
EndSplineSet
EndChar

StartChar: accidentals.mirroredflat
Encoding: 57624 57624 48
Width: 204
Flags: W
LayerCount: 2
Fore
SplineSet
146 42 m 2,0,1
 145 69 145 69 130.5 87.5 c 128,-1,2
 116 106 116 106 92 106 c 0,3,4
 72 106 72 106 60 86 c 128,-1,5
 48 66 48 66 48 38 c 128,-1,6
 48 10 48 10 64 -18 c 128,-1,7
 80 -46 80 -46 97 -62.5 c 128,-1,8
 114 -79 114 -79 143 -104 c 1,9,10
 147 -74 147 -74 147 -37 c 2,11,-1
 147 -26 l 1,12,-1
 146 42 l 2,0,1
189 -141 m 2,13,14
 189 -152 189 -152 182.5 -159.5 c 128,-1,15
 176 -167 176 -167 166 -167 c 0,16,17
 157 -167 157 -167 149 -161 c 128,-1,18
 141 -155 141 -155 133 -143.5 c 128,-1,19
 125 -132 125 -132 120 -128 c 0,20,21
 105 -116 105 -116 71.5 -91.5 c 128,-1,22
 38 -67 38 -67 20 -51.5 c 128,-1,23
 2 -36 2 -36 -14.5 -10 c 128,-1,24
 -31 16 -31 16 -31 45 c 0,25,26
 -31 87 -31 87 -4.5 118.5 c 128,-1,27
 22 150 22 150 60 150 c 0,28,29
 112 150 112 150 154 115 c 1,30,-1
 146 468 l 1,31,32
 159 476 159 476 173.5 476 c 128,-1,33
 188 476 188 476 202 468 c 1,34,-1
 189 -141 l 2,13,14
EndSplineSet
EndChar

StartChar: accidentals.mirroredflat.backslash
Encoding: 57625 57625 49
Width: 204
Flags: W
LayerCount: 2
Fore
SplineSet
75 42 m 2,0,1
 74 69 74 69 59 87.5 c 128,-1,2
 44 106 44 106 20 106 c 0,3,4
 0 106 0 106 -12 86 c 128,-1,5
 -24 66 -24 66 -24 38 c 128,-1,6
 -24 10 -24 10 -8 -18 c 128,-1,7
 8 -46 8 -46 25 -62.5 c 128,-1,8
 42 -79 42 -79 72 -104 c 1,9,10
 76 -74 76 -74 76 -37 c 2,11,-1
 76 -26 l 1,12,-1
 75 42 l 2,0,1
126 253 m 1,13,-1
 213 209 l 2,14,15
 224 204 224 204 224 191 c 0,16,17
 224 181 224 181 215 175.5 c 128,-1,18
 206 170 206 170 197 175 c 2,19,-1
 125 211 l 1,20,-1
 118 -141 l 2,21,22
 118 -152 118 -152 111 -159.5 c 128,-1,23
 104 -167 104 -167 94 -167 c 0,24,25
 85 -167 85 -167 77.5 -161 c 128,-1,26
 70 -155 70 -155 61.5 -143.5 c 128,-1,27
 53 -132 53 -132 48 -128 c 0,28,29
 33 -116 33 -116 -0.5 -91.5 c 128,-1,30
 -34 -67 -34 -67 -52 -51.5 c 128,-1,31
 -70 -36 -70 -36 -86 -10 c 128,-1,32
 -102 16 -102 16 -102 45 c 0,33,34
 -102 87 -102 87 -76 118.5 c 128,-1,35
 -50 150 -50 150 -11 150 c 0,36,37
 41 150 41 150 82 115 c 1,38,-1
 80 233 l 1,39,-1
 -8 278 l 2,40,41
 -18 284 -18 284 -18.5 293.5 c 128,-1,42
 -19 303 -19 303 -10.5 309.5 c 128,-1,43
 -2 316 -2 316 8 311 c 2,44,-1
 79 276 l 1,45,-1
 75 468 l 1,46,47
 88 476 88 476 102.5 476 c 128,-1,48
 117 476 117 476 130 468 c 1,49,-1
 126 253 l 1,13,-1
EndSplineSet
EndChar

StartChar: accidentals.flatflat
Encoding: 57626 57626 50
Width: 371
Flags: W
LayerCount: 2
Fore
SplineSet
195 42 m 2,0,-1
 194 -26 l 2,1,2
 194 -28 194 -28 193.5 -31.5 c 128,-1,3
 193 -35 193 -35 193 -37 c 0,4,5
 193 -75 193 -75 197 -104 c 1,6,7
 286 -29 286 -29 286 38 c 0,8,9
 286 67 286 67 275.5 86.5 c 128,-1,10
 265 106 265 106 245 106 c 0,11,12
 222 106 222 106 209 87.5 c 128,-1,13
 196 69 196 69 195 42 c 2,0,-1
151 -141 m 2,14,-1
 148 -33 l 1,15,16
 132 -53 132 -53 92.5 -88 c 128,-1,17
 53 -123 53 -123 48 -128 c 0,18,19
 44 -132 44 -132 37.5 -143.5 c 128,-1,20
 31 -155 31 -155 24 -161 c 128,-1,21
 17 -167 17 -167 8 -167 c 0,22,23
 -2 -167 -2 -167 -8.5 -160 c 128,-1,24
 -15 -153 -15 -153 -15 -141 c 2,25,-1
 -28 468 l 1,26,27
 -15 476 -15 476 -0.5 476 c 128,-1,28
 14 476 14 476 28 468 c 1,29,-1
 20 115 l 1,30,31
 49 150 49 150 92 150 c 0,32,33
 122 150 122 150 145 128 c 1,34,-1
 138 468 l 1,35,36
 151 476 151 476 165.5 476 c 128,-1,37
 180 476 180 476 194 468 c 1,38,-1
 187 115 l 1,39,40
 227 150 227 150 276 150 c 0,41,42
 316 150 316 150 343.5 119 c 128,-1,43
 371 88 371 88 371 46 c 0,44,45
 371 17 371 17 354.5 -9.5 c 128,-1,46
 338 -36 338 -36 320 -51 c 128,-1,47
 302 -66 302 -66 268 -91 c 128,-1,48
 234 -116 234 -116 220 -128 c 0,49,50
 215 -132 215 -132 207.5 -143 c 128,-1,51
 200 -154 200 -154 192 -160.5 c 128,-1,52
 184 -167 184 -167 175 -167 c 0,53,54
 165 -167 165 -167 158 -159 c 128,-1,55
 151 -151 151 -151 151 -141 c 2,14,-1
17 -27 m 1,56,-1
 17 -37 l 2,57,58
 17 -75 17 -75 22 -106 c 1,59,60
 95 -35 95 -35 94 38 c 0,61,62
 94 107 94 107 60 106 c 1,63,64
 21 106 21 106 19 42 c 2,65,-1
 17 -27 l 1,56,-1
EndSplineSet
EndChar

StartChar: accidentals.flatflat.slash
Encoding: 57627 57627 51
Width: 371
Flags: W
LayerCount: 2
Fore
SplineSet
195 42 m 2,0,-1
 194 -26 l 2,1,2
 194 -28 194 -28 193.5 -31.5 c 128,-1,3
 193 -35 193 -35 193 -37 c 0,4,5
 193 -75 193 -75 197 -104 c 1,6,7
 286 -29 286 -29 286 38 c 0,8,9
 286 67 286 67 275.5 86.5 c 128,-1,10
 265 106 265 106 245 106 c 0,11,12
 222 106 222 106 209 87.5 c 128,-1,13
 196 69 196 69 195 42 c 2,0,-1
-124 115 m 0,14,15
 -134 115 -134 115 -142 122.5 c 128,-1,16
 -150 130 -150 130 -150 140 c 0,17,18
 -150 154 -150 154 -136 163 c 2,19,-1
 -23 228 l 1,20,-1
 -28 468 l 1,21,22
 -15 476 -15 476 -0.5 476 c 128,-1,23
 14 476 14 476 28 468 c 1,24,-1
 24 255 l 1,25,-1
 141 323 l 1,26,-1
 138 468 l 1,27,28
 151 476 151 476 165.5 476 c 128,-1,29
 180 476 180 476 194 468 c 1,30,-1
 191 351 l 1,31,-1
 265 393 l 2,32,33
 273 397 273 397 279 397 c 0,34,35
 289 397 289 397 296.5 389.5 c 128,-1,36
 304 382 304 382 304 372 c 0,37,38
 304 358 304 358 291 349 c 1,39,-1
 190 291 l 1,40,-1
 187 115 l 1,41,42
 227 150 227 150 276 150 c 0,43,44
 316 150 316 150 343.5 119 c 128,-1,45
 371 88 371 88 371 46 c 0,46,47
 371 17 371 17 354.5 -9.5 c 128,-1,48
 338 -36 338 -36 320 -51 c 128,-1,49
 302 -66 302 -66 268 -91 c 128,-1,50
 234 -116 234 -116 220 -128 c 0,51,52
 215 -132 215 -132 207.5 -143 c 128,-1,53
 200 -154 200 -154 192 -160.5 c 128,-1,54
 184 -167 184 -167 175 -167 c 0,55,56
 165 -167 165 -167 158 -159.5 c 128,-1,57
 151 -152 151 -152 151 -141 c 2,58,-1
 148 -33 l 1,59,60
 132 -53 132 -53 92.5 -88 c 128,-1,61
 53 -123 53 -123 48 -128 c 0,62,63
 44 -132 44 -132 37.5 -143.5 c 128,-1,64
 31 -155 31 -155 24 -161 c 128,-1,65
 17 -167 17 -167 8 -167 c 0,66,67
 -2 -167 -2 -167 -8.5 -160 c 128,-1,68
 -15 -153 -15 -153 -15 -141 c 2,69,-1
 -22 170 l 1,70,-1
 -111 119 l 2,71,72
 -119 115 -119 115 -124 115 c 0,14,15
143 264 m 1,73,-1
 23 195 l 1,74,-1
 20 115 l 1,75,76
 49 150 49 150 92 150 c 0,77,78
 122 150 122 150 145 128 c 1,79,-1
 143 264 l 1,73,-1
17 -27 m 1,80,-1
 17 -37 l 2,81,82
 17 -75 17 -75 22 -106 c 1,83,84
 95 -35 95 -35 94 38 c 0,85,86
 94 107 94 107 60 106 c 1,87,88
 21 106 21 106 19 42 c 2,89,-1
 17 -27 l 1,80,-1
EndSplineSet
EndChar

StartChar: accidentals.doublesharp
Encoding: 57628 57628 52
Width: 256
Flags: W
LayerCount: 2
Fore
SplineSet
157 0 m 1,0,1
 186 -29 186 -29 248 -29 c 0,2,3
 258 -29 258 -29 258 -39 c 1,4,-1
 267 -128 l 2,5,6
 268 -132 268 -132 265 -135 c 128,-1,7
 262 -138 262 -138 258 -138 c 2,8,-1
 257 -138 l 1,9,-1
 168 -129 l 2,10,11
 158 -127 158 -127 158 -119 c 0,12,13
 158 -57 158 -57 129 -28 c 1,14,15
 100 -57 100 -57 100 -119 c 0,16,17
 100 -127 100 -127 91 -129 c 1,18,-1
 1 -138 l 1,19,-1
 0 -138 l 2,20,21
 -4 -138 -4 -138 -7 -135 c 128,-1,22
 -10 -132 -10 -132 -9 -128 c 2,23,-1
 0 -39 l 1,24,25
 0 -29 0 -29 10 -29 c 0,26,27
 72 -29 72 -29 101 0 c 1,28,29
 72 29 72 29 10 29 c 0,30,31
 0 29 0 29 0 39 c 1,32,-1
 -9 128 l 2,33,34
 -10 132 -10 132 -7 135 c 128,-1,35
 -4 138 -4 138 0 138 c 2,36,-1
 1 138 l 1,37,-1
 91 129 l 1,38,39
 100 127 100 127 100 119 c 0,40,41
 100 57 100 57 129 28 c 1,42,43
 158 57 158 57 158 119 c 0,44,45
 158 127 158 127 168 129 c 2,46,-1
 257 138 l 1,47,-1
 258 138 l 2,48,49
 262 138 262 138 265 135 c 128,-1,50
 268 132 268 132 267 128 c 2,51,-1
 258 39 l 1,52,53
 258 29 258 29 248 29 c 0,54,55
 186 29 186 29 157 0 c 1,0,1
EndSplineSet
EndChar

StartChar: accidentals.rightparen
Encoding: 57629 57629 53
Width: 153
Flags: W
LayerCount: 2
Fore
SplineSet
38 -256 m 0,0,1
 38 -255 38 -255 54 -230 c 128,-1,2
 70 -205 70 -205 86 -145.5 c 128,-1,3
 102 -86 102 -86 102 0 c 128,-1,4
 102 86 102 86 86 146 c 128,-1,5
 70 206 70 206 54 230.5 c 128,-1,6
 38 255 38 255 38 256 c 0,7,8
 38 269 38 269 51 269 c 0,9,10
 60 269 60 269 84.5 232 c 128,-1,11
 109 195 109 195 131.5 128 c 128,-1,12
 154 61 154 61 154 0 c 0,13,14
 154 -62 154 -62 131 -128.5 c 128,-1,15
 108 -195 108 -195 84 -232 c 128,-1,16
 60 -269 60 -269 51 -269 c 0,17,18
 38 -269 38 -269 38 -256 c 0,0,1
EndSplineSet
EndChar

StartChar: accidentals.leftparen
Encoding: 57630 57630 54
Width: 0
Flags: W
LayerCount: 2
Fore
SplineSet
-38 -256 m 0,0,1
 -38 -269 -38 -269 -51 -269 c 0,2,3
 -60 -269 -60 -269 -84 -232 c 128,-1,4
 -108 -195 -108 -195 -131 -128.5 c 128,-1,5
 -154 -62 -154 -62 -154 0 c 0,6,7
 -154 61 -154 61 -131.5 128 c 128,-1,8
 -109 195 -109 195 -84.5 232 c 128,-1,9
 -60 269 -60 269 -51 269 c 0,10,11
 -38 269 -38 269 -38 256 c 0,12,13
 -38 255 -38 255 -54 230.5 c 128,-1,14
 -70 206 -70 206 -86 146 c 128,-1,15
 -102 86 -102 86 -102 0 c 128,-1,16
 -102 -86 -102 -86 -86 -145.5 c 128,-1,17
 -70 -205 -70 -205 -54 -230 c 128,-1,18
 -38 -255 -38 -255 -38 -256 c 0,0,1
EndSplineSet
EndChar

StartChar: arrowheads.open.01
Encoding: 57631 57631 55
Width: 20
Flags: W
LayerCount: 2
Fore
SplineSet
-236 128 m 0,0,1
 -230 128 -230 128 -211.5 111 c 128,-1,2
 -193 94 -193 94 -168.5 74 c 128,-1,3
 -144 54 -144 54 -98.5 37 c 128,-1,4
 -53 20 -53 20 0 20 c 0,5,6
 20 20 20 20 20 0 c 128,-1,7
 20 -20 20 -20 0 -20 c 0,8,9
 -63 -20 -63 -20 -121 -47 c 128,-1,10
 -179 -74 -179 -74 -220 -121 c 0,11,12
 -226 -128 -226 -128 -236 -128 c 0,13,14
 -244 -128 -244 -128 -250 -122.5 c 128,-1,15
 -256 -117 -256 -117 -256 -108 c 0,16,17
 -256 -92 -256 -92 -211 -55 c 128,-1,18
 -166 -18 -166 -18 -115 0 c 1,19,20
 -169 19 -169 19 -212.5 55.5 c 128,-1,21
 -256 92 -256 92 -256 108 c 0,22,23
 -256 117 -256 117 -250 122.5 c 128,-1,24
 -244 128 -244 128 -236 128 c 0,0,1
EndSplineSet
EndChar

StartChar: arrowheads.open.0M1
Encoding: 57632 57632 56
Width: 256
Flags: W
LayerCount: 2
Fore
SplineSet
236 -128 m 0,0,1
 230 -128 230 -128 211.5 -111 c 128,-1,2
 193 -94 193 -94 168.5 -74 c 128,-1,3
 144 -54 144 -54 98.5 -37 c 128,-1,4
 53 -20 53 -20 0 -20 c 0,5,6
 -20 -20 -20 -20 -20 0 c 128,-1,7
 -20 20 -20 20 0 20 c 0,8,9
 53 20 53 20 98.5 37 c 128,-1,10
 144 54 144 54 168.5 74 c 128,-1,11
 193 94 193 94 211 111 c 128,-1,12
 229 128 229 128 236 128 c 0,13,14
 244 128 244 128 250 122.5 c 128,-1,15
 256 117 256 117 256 108 c 0,16,17
 256 93 256 93 212.5 56 c 128,-1,18
 169 19 169 19 115 0 c 1,19,20
 166 -18 166 -18 211 -54.5 c 128,-1,21
 256 -91 256 -91 256 -108 c 0,22,23
 256 -117 256 -117 250 -122.5 c 128,-1,24
 244 -128 244 -128 236 -128 c 0,0,1
EndSplineSet
EndChar

StartChar: arrowheads.open.11
Encoding: 57633 57633 57
Width: 128
Flags: W
LayerCount: 2
Fore
SplineSet
-128 -236 m 0,0,1
 -128 -230 -128 -230 -111 -211.5 c 128,-1,2
 -94 -193 -94 -193 -74 -168.5 c 128,-1,3
 -54 -144 -54 -144 -37 -98.5 c 128,-1,4
 -20 -53 -20 -53 -20 0 c 0,5,6
 -20 9 -20 9 -14 14.5 c 128,-1,7
 -8 20 -8 20 0 20 c 128,-1,8
 8 20 8 20 14 14.5 c 128,-1,9
 20 9 20 9 20 0 c 0,10,11
 20 -63 20 -63 47 -121 c 128,-1,12
 74 -179 74 -179 121 -220 c 0,13,14
 128 -226 128 -226 128 -236 c 0,15,16
 128 -244 128 -244 122.5 -250 c 128,-1,17
 117 -256 117 -256 108 -256 c 0,18,19
 92 -256 92 -256 55 -211 c 128,-1,20
 18 -166 18 -166 0 -115 c 1,21,22
 -19 -169 -19 -169 -55.5 -212.5 c 128,-1,23
 -92 -256 -92 -256 -108 -256 c 0,24,25
 -117 -256 -117 -256 -122.5 -250 c 128,-1,26
 -128 -244 -128 -244 -128 -236 c 0,0,1
EndSplineSet
EndChar

StartChar: arrowheads.open.1M1
Encoding: 57634 57634 58
Width: 128
Flags: W
LayerCount: 2
Fore
SplineSet
128 236 m 0,0,1
 128 230 128 230 111 211.5 c 128,-1,2
 94 193 94 193 74 168.5 c 128,-1,3
 54 144 54 144 37 98.5 c 128,-1,4
 20 53 20 53 20 0 c 0,5,6
 20 -9 20 -9 14 -14.5 c 128,-1,7
 8 -20 8 -20 0 -20 c 128,-1,8
 -8 -20 -8 -20 -14 -14.5 c 128,-1,9
 -20 -9 -20 -9 -20 0 c 0,10,11
 -20 53 -20 53 -37 98.5 c 128,-1,12
 -54 144 -54 144 -74 168.5 c 128,-1,13
 -94 193 -94 193 -111 211 c 128,-1,14
 -128 229 -128 229 -128 236 c 0,15,16
 -128 244 -128 244 -122.5 250 c 128,-1,17
 -117 256 -117 256 -108 256 c 0,18,19
 -93 256 -93 256 -56 212.5 c 128,-1,20
 -19 169 -19 169 0 115 c 1,21,22
 18 166 18 166 54.5 211 c 128,-1,23
 91 256 91 256 108 256 c 0,24,25
 117 256 117 256 122.5 250 c 128,-1,26
 128 244 128 244 128 236 c 0,0,1
EndSplineSet
EndChar

StartChar: arrowheads.close.01
Encoding: 57635 57635 59
Width: 0
Flags: W
LayerCount: 2
Fore
SplineSet
-256 -118 m 0,0,1
 -256 -117 -256 -117 -254.5 -110.5 c 128,-1,2
 -253 -104 -253 -104 -251.5 -93 c 128,-1,3
 -250 -82 -250 -82 -248 -68 c 128,-1,4
 -246 -54 -246 -54 -244.5 -35.5 c 128,-1,5
 -243 -17 -243 -17 -243 0 c 128,-1,6
 -243 17 -243 17 -244.5 35.5 c 128,-1,7
 -246 54 -246 54 -248 68 c 128,-1,8
 -250 82 -250 82 -251.5 93 c 128,-1,9
 -253 104 -253 104 -254.5 110.5 c 128,-1,10
 -256 117 -256 117 -256 118 c 0,11,12
 -256 128 -256 128 -246 128 c 0,13,14
 -242 128 -242 128 -238 124 c 0,15,16
 -209 88 -209 88 -127.5 49 c 128,-1,17
 -46 10 -46 10 0 10 c 0,18,19
 10 10 10 10 10 0 c 128,-1,20
 10 -10 10 -10 0 -10 c 0,21,22
 -46 -10 -46 -10 -127.5 -49 c 128,-1,23
 -209 -88 -209 -88 -238 -124 c 0,24,25
 -242 -128 -242 -128 -246 -128 c 0,26,27
 -256 -128 -256 -128 -256 -118 c 0,0,1
EndSplineSet
EndChar

StartChar: arrowheads.close.0M1
Encoding: 57636 57636 60
Width: 256
Flags: W
LayerCount: 2
Fore
SplineSet
256 -118 m 0,0,1
 256 -128 256 -128 246 -128 c 0,2,3
 242 -128 242 -128 238 -124 c 0,4,5
 209 -88 209 -88 127.5 -49 c 128,-1,6
 46 -10 46 -10 0 -10 c 0,7,8
 -10 -10 -10 -10 -10 0 c 128,-1,9
 -10 10 -10 10 0 10 c 0,10,11
 46 10 46 10 127.5 49 c 128,-1,12
 209 88 209 88 238 124 c 0,13,14
 242 128 242 128 246 128 c 0,15,16
 256 128 256 128 256 118 c 0,17,18
 256 117 256 117 254.5 110.5 c 128,-1,19
 253 104 253 104 251.5 93 c 128,-1,20
 250 82 250 82 248 68 c 128,-1,21
 246 54 246 54 244.5 35.5 c 128,-1,22
 243 17 243 17 243 0 c 128,-1,23
 243 -17 243 -17 244.5 -35.5 c 128,-1,24
 246 -54 246 -54 248 -68 c 128,-1,25
 250 -82 250 -82 251.5 -93 c 128,-1,26
 253 -104 253 -104 254.5 -110.5 c 128,-1,27
 256 -117 256 -117 256 -118 c 0,0,1
EndSplineSet
EndChar

StartChar: arrowheads.close.11
Encoding: 57637 57637 61
Width: 128
Flags: W
LayerCount: 2
Fore
SplineSet
118 -256 m 0,0,1
 117 -256 117 -256 110.5 -254.5 c 128,-1,2
 104 -253 104 -253 93 -251.5 c 128,-1,3
 82 -250 82 -250 68 -248 c 128,-1,4
 54 -246 54 -246 35.5 -244.5 c 128,-1,5
 17 -243 17 -243 0 -243 c 128,-1,6
 -17 -243 -17 -243 -35.5 -244.5 c 128,-1,7
 -54 -246 -54 -246 -68 -248 c 128,-1,8
 -82 -250 -82 -250 -93 -251.5 c 128,-1,9
 -104 -253 -104 -253 -110.5 -254.5 c 128,-1,10
 -117 -256 -117 -256 -118 -256 c 0,11,12
 -128 -256 -128 -256 -128 -246 c 0,13,14
 -128 -242 -128 -242 -124 -238 c 0,15,16
 -88 -209 -88 -209 -49 -127.5 c 128,-1,17
 -10 -46 -10 -46 -10 0 c 0,18,19
 -10 10 -10 10 0 10 c 128,-1,20
 10 10 10 10 10 0 c 0,21,22
 10 -46 10 -46 49 -127.5 c 128,-1,23
 88 -209 88 -209 124 -238 c 0,24,25
 128 -242 128 -242 128 -246 c 0,26,27
 128 -256 128 -256 118 -256 c 0,0,1
EndSplineSet
EndChar

StartChar: arrowheads.close.1M1
Encoding: 57638 57638 62
Width: 128
Flags: W
LayerCount: 2
Fore
SplineSet
-118 256 m 0,0,1
 -117 256 -117 256 -110.5 254.5 c 128,-1,2
 -104 253 -104 253 -93 251.5 c 128,-1,3
 -82 250 -82 250 -68 248 c 128,-1,4
 -54 246 -54 246 -35.5 244.5 c 128,-1,5
 -17 243 -17 243 0 243 c 128,-1,6
 17 243 17 243 35.5 244.5 c 128,-1,7
 54 246 54 246 68 248 c 128,-1,8
 82 250 82 250 93 251.5 c 128,-1,9
 104 253 104 253 110.5 254.5 c 128,-1,10
 117 256 117 256 118 256 c 0,11,12
 128 256 128 256 128 246 c 0,13,14
 128 242 128 242 124 238 c 0,15,16
 88 209 88 209 49 127.5 c 128,-1,17
 10 46 10 46 10 0 c 0,18,19
 10 -10 10 -10 0 -10 c 128,-1,20
 -10 -10 -10 -10 -10 0 c 0,21,22
 -10 46 -10 46 -49 127.5 c 128,-1,23
 -88 209 -88 209 -124 238 c 0,24,25
 -128 242 -128 242 -128 246 c 0,26,27
 -128 256 -128 256 -118 256 c 0,0,1
EndSplineSet
EndChar

StartChar: dots.dot
Encoding: 57639 57639 63
Width: 353
Flags: W
LayerCount: 2
Fore
SplineSet
0 0 m 128,-1,1
 0 24 0 24 17 40.5 c 128,-1,2
 34 57 34 57 57.5 57 c 128,-1,3
 81 57 81 57 98 40.5 c 128,-1,4
 115 24 115 24 115 0 c 128,-1,5
 115 -24 115 -24 98 -40.5 c 128,-1,6
 81 -57 81 -57 57.5 -57 c 128,-1,7
 34 -57 34 -57 17 -40.5 c 128,-1,0
 0 -24 0 -24 0 0 c 128,-1,1
EndSplineSet
EndChar

StartChar: noteheads.uM2
Encoding: 57640 57640 64
Width: 507
Flags: HW
LayerCount: 2
Fore
SplineSet
254 141 m 128,-1,1
 354 141 354 141 415.5 109 c 128,-1,2
 477 77 477 77 497 40 c 1,3,-1
 497 884 l 2,4,5
 497 895 497 895 504.5 902.5 c 128,-1,6
 512 910 512 910 522 910 c 128,-1,7
 532 910 532 910 539.5 902.5 c 128,-1,8
 547 895 547 895 547 884 c 2,9,-1
 547 -115 l 2,10,11
 547 -126 547 -126 539.5 -133.5 c 128,-1,12
 532 -141 532 -141 522 -141 c 128,-1,13
 512 -141 512 -141 504.5 -133.5 c 128,-1,14
 497 -126 497 -126 497 -115 c 2,15,-1
 497 -40 l 1,16,17
 478 -77 478 -77 416 -109 c 128,-1,18
 354 -141 354 -141 254 -141 c 128,-1,19
 154 -141 154 -141 92 -109 c 128,-1,20
 30 -77 30 -77 10 -40 c 1,21,-1
 10 -115 l 2,22,23
 10 -126 10 -126 3 -133.5 c 128,-1,24
 -4 -141 -4 -141 -15 -141 c 128,-1,25
 -26 -141 -26 -141 -33 -133.5 c 128,-1,26
 -40 -126 -40 -126 -40 -115 c 2,27,-1
 -40 115 l 2,28,29
 -40 126 -40 126 -33 133.5 c 128,-1,30
 -26 141 -26 141 -15 141 c 128,-1,31
 -4 141 -4 141 3 133.5 c 128,-1,32
 10 126 10 126 10 115 c 2,33,-1
 10 40 l 1,34,35
 29 77 29 77 91.5 109 c 128,-1,0
 154 141 154 141 254 141 c 128,-1,1
220 115 m 0,36,37
 185 115 185 115 167.5 90.5 c 128,-1,38
 150 66 150 66 150 25 c 0,39,40
 150 -22 150 -22 175 -55.5 c 128,-1,41
 200 -89 200 -89 229.5 -102 c 128,-1,42
 259 -115 259 -115 287 -115 c 0,43,44
 322 -115 322 -115 339.5 -90.5 c 128,-1,45
 357 -66 357 -66 357 -25 c 0,46,47
 357 22 357 22 332 55.5 c 128,-1,48
 307 89 307 89 277.5 102 c 128,-1,49
 248 115 248 115 220 115 c 0,36,37
EndSplineSet
EndChar

StartChar: noteheads.dM2
Encoding: 57641 57641 65
Width: 507
Flags: HW
LayerCount: 2
Fore
SplineSet
254 141 m 128,-1,1
 354 141 354 141 415.5 109 c 128,-1,2
 477 77 477 77 497 40 c 1,3,-1
 497 115 l 2,4,5
 497 126 497 126 504.5 133.5 c 128,-1,6
 512 141 512 141 522 141 c 128,-1,7
 532 141 532 141 539.5 133.5 c 128,-1,8
 547 126 547 126 547 115 c 2,9,-1
 547 -115 l 2,10,11
 547 -126 547 -126 539.5 -133.5 c 128,-1,12
 532 -141 532 -141 522 -141 c 128,-1,13
 512 -141 512 -141 504.5 -133.5 c 128,-1,14
 497 -126 497 -126 497 -115 c 2,15,-1
 497 -40 l 1,16,17
 478 -77 478 -77 416 -109 c 128,-1,18
 354 -141 354 -141 254 -141 c 128,-1,19
 154 -141 154 -141 92 -109 c 128,-1,20
 30 -77 30 -77 10 -40 c 1,21,-1
 10 -884 l 2,22,23
 10 -895 10 -895 3 -902.5 c 128,-1,24
 -4 -910 -4 -910 -15 -910 c 128,-1,25
 -26 -910 -26 -910 -33 -902.5 c 128,-1,26
 -40 -895 -40 -895 -40 -884 c 2,27,-1
 -40 115 l 2,28,29
 -40 126 -40 126 -33 133.5 c 128,-1,30
 -26 141 -26 141 -15 141 c 128,-1,31
 -4 141 -4 141 3 133.5 c 128,-1,32
 10 126 10 126 10 115 c 2,33,-1
 10 40 l 1,34,35
 29 77 29 77 91.5 109 c 128,-1,0
 154 141 154 141 254 141 c 128,-1,1
220 115 m 0,36,37
 185 115 185 115 167.5 90.5 c 128,-1,38
 150 66 150 66 150 25 c 0,39,40
 150 -22 150 -22 175 -55.5 c 128,-1,41
 200 -89 200 -89 229.5 -102 c 128,-1,42
 259 -115 259 -115 287 -115 c 0,43,44
 322 -115 322 -115 339.5 -90.5 c 128,-1,45
 357 -66 357 -66 357 -25 c 0,46,47
 357 22 357 22 332 55.5 c 128,-1,48
 307 89 307 89 277.5 102 c 128,-1,49
 248 115 248 115 220 115 c 0,36,37
EndSplineSet
EndChar

StartChar: noteheads.sM1
Encoding: 57642 57642 66
Width: 507
Flags: HW
LayerCount: 2
Fore
SplineSet
254 141 m 128,-1,1
 354 141 354 141 415.5 109 c 128,-1,2
 477 77 477 77 497 40 c 1,3,-1
 497 115 l 2,4,5
 497 126 497 126 504.5 133.5 c 128,-1,6
 512 141 512 141 522 141 c 128,-1,7
 532 141 532 141 539.5 133.5 c 128,-1,8
 547 126 547 126 547 115 c 2,9,-1
 547 -115 l 2,10,11
 547 -126 547 -126 539.5 -133.5 c 128,-1,12
 532 -141 532 -141 522 -141 c 128,-1,13
 512 -141 512 -141 504.5 -133.5 c 128,-1,14
 497 -126 497 -126 497 -115 c 2,15,-1
 497 -40 l 1,16,17
 478 -77 478 -77 416 -109 c 128,-1,18
 354 -141 354 -141 254 -141 c 128,-1,19
 154 -141 154 -141 92 -109 c 128,-1,20
 30 -77 30 -77 10 -40 c 1,21,-1
 10 -115 l 2,22,23
 10 -126 10 -126 3 -133.5 c 128,-1,24
 -4 -141 -4 -141 -15 -141 c 128,-1,25
 -26 -141 -26 -141 -33 -133.5 c 128,-1,26
 -40 -126 -40 -126 -40 -115 c 2,27,-1
 -40 115 l 2,28,29
 -40 126 -40 126 -33 133.5 c 128,-1,30
 -26 141 -26 141 -15 141 c 128,-1,31
 -4 141 -4 141 3 133.5 c 128,-1,32
 10 126 10 126 10 115 c 2,33,-1
 10 40 l 1,34,35
 29 77 29 77 91.5 109 c 128,-1,0
 154 141 154 141 254 141 c 128,-1,1
220 115 m 0,36,37
 185 115 185 115 167.5 90.5 c 128,-1,38
 150 66 150 66 150 25 c 0,39,40
 150 -22 150 -22 175 -55.5 c 128,-1,41
 200 -89 200 -89 229.5 -102 c 128,-1,42
 259 -115 259 -115 287 -115 c 0,43,44
 322 -115 322 -115 339.5 -90.5 c 128,-1,45
 357 -66 357 -66 357 -25 c 0,46,47
 357 22 357 22 332 55.5 c 128,-1,48
 307 89 307 89 277.5 102 c 128,-1,49
 248 115 248 115 220 115 c 0,36,37
EndSplineSet
EndChar

StartChar: noteheads.s0
Encoding: 57643 57643 67
Width: 507
Flags: W
LayerCount: 2
Fore
SplineSet
220 115 m 0,0,1
 185 115 185 115 167.5 90.5 c 128,-1,2
 150 66 150 66 150 25 c 0,3,4
 150 -22 150 -22 175 -55.5 c 128,-1,5
 200 -89 200 -89 229.5 -102 c 128,-1,6
 259 -115 259 -115 287 -115 c 0,7,8
 322 -115 322 -115 339.5 -90.5 c 128,-1,9
 357 -66 357 -66 357 -25 c 0,10,11
 357 22 357 22 332 55.5 c 128,-1,12
 307 89 307 89 277.5 102 c 128,-1,13
 248 115 248 115 220 115 c 0,0,1
254 141 m 0,14,15
 362 141 362 141 434.5 99 c 128,-1,16
 507 57 507 57 507 0 c 0,17,18
 507 -60 507 -60 431.5 -100.5 c 128,-1,19
 356 -141 356 -141 254 -141 c 0,20,21
 148 -141 148 -141 74 -99 c 128,-1,22
 0 -57 0 -57 0 0 c 0,23,24
 0 60 0 60 76 100.5 c 128,-1,25
 152 141 152 141 254 141 c 0,14,15
EndSplineSet
EndChar

StartChar: noteheads.s1
Encoding: 57644 57644 68
Width: 356
Flags: W
LayerCount: 2
Fore
SplineSet
323 66.5 m 128,-1,1
 323 84 323 84 310 96.5 c 128,-1,2
 297 109 297 109 280 109 c 0,3,4
 251 109 251 109 159 49 c 128,-1,5
 67 -11 67 -11 44 -38 c 0,6,7
 33 -51 33 -51 33 -67 c 0,8,9
 33 -84 33 -84 45.5 -96.5 c 128,-1,10
 58 -109 58 -109 76 -109 c 0,11,12
 105 -109 105 -109 197.5 -49 c 128,-1,13
 290 11 290 11 312 38 c 1,14,0
 323 49 323 49 323 66.5 c 128,-1,1
270 140 m 0,15,16
 355 140 355 140 355 67 c 0,17,18
 355 31 355 31 334.5 -17 c 128,-1,19
 314 -65 314 -65 279 -89 c 0,20,21
 201 -141 201 -141 86 -141 c 0,22,23
 0 -141 0 -141 0 -67 c 0,24,25
 0 -31 0 -31 20.5 17 c 128,-1,26
 41 65 41 65 77 89 c 0,27,28
 152 140 152 140 270 140 c 0,15,16
EndSplineSet
EndChar

StartChar: noteheads.s2
Encoding: 57645 57645 69
Width: 337
Flags: W
LayerCount: 2
Fore
SplineSet
225 141 m 0,0,1
 275 141 275 141 306 115.5 c 128,-1,2
 337 90 337 90 337 48 c 0,3,4
 337 -21 337 -21 265.5 -81 c 128,-1,5
 194 -141 194 -141 112 -141 c 0,6,7
 62 -141 62 -141 31 -115.5 c 128,-1,8
 0 -90 0 -90 0 -48 c 0,9,10
 0 21 0 21 71.5 81 c 128,-1,11
 143 141 143 141 225 141 c 0,0,1
EndSplineSet
EndChar

StartChar: noteheads.s0diamond
Encoding: 57646 57646 70
Width: 507
Flags: W
LayerCount: 2
Fore
SplineSet
215 77 m 0,0,1
 201 77 201 77 194.5 63 c 128,-1,2
 188 49 188 49 188 1 c 0,3,4
 188 -33 188 -33 201 -44.5 c 128,-1,5
 214 -56 214 -56 251 -68 c 0,6,7
 281 -77 281 -77 292 -77 c 0,8,9
 306 -77 306 -77 312 -63 c 128,-1,10
 318 -49 318 -49 318 -1 c 0,11,12
 318 33 318 33 305.5 44.5 c 128,-1,13
 293 56 293 56 256 68 c 0,14,15
 226 77 226 77 215 77 c 0,0,1
507 0 m 128,-1,17
 507 -27 507 -27 486.5 -37.5 c 128,-1,18
 466 -48 466 -48 430.5 -54 c 128,-1,19
 395 -60 395 -60 379 -70 c 1,20,21
 364 -78 364 -78 340.5 -97.5 c 128,-1,22
 317 -117 317 -117 296.5 -129 c 128,-1,23
 276 -141 276 -141 253.5 -141 c 128,-1,24
 231 -141 231 -141 210 -129 c 128,-1,25
 189 -117 189 -117 165.5 -97.5 c 128,-1,26
 142 -78 142 -78 128 -70 c 0,27,28
 112 -61 112 -61 76.5 -54.5 c 128,-1,29
 41 -48 41 -48 20.5 -37.5 c 128,-1,30
 0 -27 0 -27 0 0 c 128,-1,31
 0 27 0 27 20.5 37.5 c 128,-1,32
 41 48 41 48 76.5 54 c 128,-1,33
 112 60 112 60 128 70 c 0,34,35
 132 72 132 72 178 106.5 c 128,-1,36
 224 141 224 141 254 141 c 0,37,38
 277 141 277 141 297 129 c 128,-1,39
 317 117 317 117 340.5 97.5 c 128,-1,40
 364 78 364 78 379 70 c 0,41,42
 395 61 395 61 430.5 54.5 c 128,-1,43
 466 48 466 48 486.5 37.5 c 128,-1,16
 507 27 507 27 507 0 c 128,-1,17
EndSplineSet
EndChar

StartChar: noteheads.s1diamond
Encoding: 57647 57647 71
Width: 373
Flags: W
LayerCount: 2
Fore
SplineSet
299 56 m 0,0,1
 299 83 299 83 269 83 c 0,2,3
 244 83 244 83 173 37 c 128,-1,4
 102 -9 102 -9 83 -32 c 0,5,6
 74 -43 74 -43 74 -56 c 0,7,8
 74 -83 74 -83 103 -83 c 0,9,10
 128 -83 128 -83 199 -37 c 128,-1,11
 270 9 270 9 290 32 c 0,12,13
 299 43 299 43 299 56 c 0,0,1
331 141 m 0,14,15
 349 141 349 141 361 128 c 128,-1,16
 373 115 373 115 373 99 c 128,-1,17
 373 83 373 83 353.5 53.5 c 128,-1,18
 334 24 334 24 330 11.5 c 128,-1,19
 326 -1 326 -1 324 -27.5 c 128,-1,20
 322 -54 322 -54 318.5 -70 c 128,-1,21
 315 -86 315 -86 297 -100 c 128,-1,22
 279 -114 279 -114 245 -114 c 0,23,24
 233 -114 233 -114 205.5 -111 c 128,-1,25
 178 -108 178 -108 165 -108 c 0,26,27
 139 -108 139 -108 99 -124 c 128,-1,28
 59 -140 59 -140 42 -140 c 0,29,30
 24 -140 24 -140 12 -127.5 c 128,-1,31
 0 -115 0 -115 0 -99 c 128,-1,32
 0 -83 0 -83 19.5 -53.5 c 128,-1,33
 39 -24 39 -24 43 -11.5 c 128,-1,34
 47 1 47 1 49 27.5 c 128,-1,35
 51 54 51 54 54 70 c 128,-1,36
 57 86 57 86 75.5 100 c 128,-1,37
 94 114 94 114 128 114 c 0,38,39
 140 114 140 114 167.5 111 c 128,-1,40
 195 108 195 108 208 108 c 0,41,42
 234 108 234 108 274 124.5 c 128,-1,43
 314 141 314 141 331 141 c 0,14,15
EndSplineSet
EndChar

StartChar: noteheads.s2diamond
Encoding: 57648 57648 72
Width: 378
Flags: W
LayerCount: 2
Fore
SplineSet
339 141 m 0,0,1
 359 141 359 141 368.5 127.5 c 128,-1,2
 378 114 378 114 378 101 c 0,3,4
 378 79 378 79 338.5 45.5 c 128,-1,5
 299 12 299 12 290 -3 c 0,6,7
 284 -13 284 -13 266.5 -54.5 c 128,-1,8
 249 -96 249 -96 230 -118 c 128,-1,9
 211 -140 211 -140 184 -140 c 0,10,11
 173 -140 173 -140 148 -134 c 128,-1,12
 123 -128 123 -128 110 -128 c 0,13,14
 98 -128 98 -128 73 -134.5 c 128,-1,15
 48 -141 48 -141 38 -141 c 0,16,17
 18 -141 18 -141 9 -127.5 c 128,-1,18
 0 -114 0 -114 0 -101 c 0,19,20
 0 -79 0 -79 39.5 -45.5 c 128,-1,21
 79 -12 79 -12 88 3 c 0,22,23
 94 14 94 14 111.5 55 c 128,-1,24
 129 96 129 96 147.5 118 c 128,-1,25
 166 140 166 140 193 140 c 0,26,27
 204 140 204 140 229 134 c 128,-1,28
 254 128 254 128 267 128 c 0,29,30
 279 128 279 128 304 134.5 c 128,-1,31
 329 141 329 141 339 141 c 0,0,1
EndSplineSet
EndChar

StartChar: noteheads.s0triangle
Encoding: 57649 57649 73
Width: 593
Flags: W
LayerCount: 2
Fore
SplineSet
134 85 m 1,0,1
 181 2 181 2 181 -95 c 0,2,3
 181 -98 181 -98 180.5 -104 c 128,-1,4
 180 -110 180 -110 180 -113 c 1,5,6
 282 -27 282 -27 406 19 c 1,7,8
 262 38 262 38 134 85 c 1,0,1
0 164 m 0,9,10
 0 176 0 176 15 181.5 c 128,-1,11
 30 187 30 187 44 187 c 0,12,13
 47 187 47 187 73 174.5 c 128,-1,14
 99 162 99 162 143.5 143.5 c 128,-1,15
 188 125 188 125 245.5 106.5 c 128,-1,16
 303 88 303 88 384.5 75 c 128,-1,17
 466 62 466 62 551 62 c 2,18,-1
 556 62 l 2,19,20
 570 62 570 62 581.5 55.5 c 128,-1,21
 593 49 593 49 593 38 c 0,22,23
 593 26 593 26 570 17 c 128,-1,24
 547 8 547 8 504 -5 c 128,-1,25
 461 -18 461 -18 409 -38.5 c 128,-1,26
 357 -59 357 -59 288 -106.5 c 128,-1,27
 219 -154 219 -154 157 -219 c 0,28,29
 152 -224 152 -224 141 -224 c 0,30,31
 95 -224 95 -224 95 -201 c 1,32,-1
 96 -196 l 2,33,34
 97 -191 97 -191 98.5 -182 c 128,-1,35
 100 -173 100 -173 101.5 -162.5 c 128,-1,36
 103 -152 103 -152 104 -137.5 c 128,-1,37
 105 -123 105 -123 105 -110 c 0,38,39
 105 31 105 31 16 140 c 0,40,41
 14 142 14 142 9 147 c 128,-1,42
 4 152 4 152 2 155.5 c 128,-1,43
 0 159 0 159 0 164 c 0,9,10
EndSplineSet
EndChar

StartChar: noteheads.d1triangle
Encoding: 57650 57650 74
Width: 429
Flags: W
LayerCount: 2
Fore
SplineSet
104 71 m 1,0,1
 136 -4 136 -4 136 -89 c 1,2,3
 198 -27 198 -27 285 16 c 1,4,5
 187 33 187 33 104 71 c 1,0,1
0 145 m 0,6,7
 0 155 0 155 9.5 162 c 128,-1,8
 19 169 19 169 33 169 c 0,9,10
 38 169 38 169 68 151.5 c 128,-1,11
 98 134 98 134 138 113.5 c 128,-1,12
 178 93 178 93 249.5 75.5 c 128,-1,13
 321 58 321 58 398 58 c 0,14,15
 410 58 410 58 419 51 c 128,-1,16
 428 44 428 44 428 34 c 0,17,18
 428 20 428 20 400 7 c 128,-1,19
 372 -6 372 -6 330.5 -20.5 c 128,-1,20
 289 -35 289 -35 230 -80 c 128,-1,21
 171 -125 171 -125 122 -193 c 0,22,23
 116 -202 116 -202 100 -202 c 0,24,25
 87 -202 87 -202 77.5 -195 c 128,-1,26
 68 -188 68 -188 68 -177 c 0,27,28
 68 -175 68 -175 70 -165 c 128,-1,29
 72 -155 72 -155 74 -136.5 c 128,-1,30
 76 -118 76 -118 76 -96 c 0,31,32
 76 -30 76 -30 57 25.5 c 128,-1,33
 38 81 38 81 19 111 c 128,-1,34
 0 141 0 141 0 145 c 0,6,7
EndSplineSet
EndChar

StartChar: noteheads.u1triangle
Encoding: 57651 57651 75
Width: 429
Flags: W
LayerCount: 2
Fore
SplineSet
104 71 m 1,0,1
 136 -4 136 -4 136 -89 c 1,2,3
 198 -27 198 -27 285 16 c 1,4,5
 187 33 187 33 104 71 c 1,0,1
0 145 m 0,6,7
 0 155 0 155 9.5 162 c 128,-1,8
 19 169 19 169 33 169 c 0,9,10
 38 169 38 169 68 151.5 c 128,-1,11
 98 134 98 134 138 113.5 c 128,-1,12
 178 93 178 93 249.5 75.5 c 128,-1,13
 321 58 321 58 398 58 c 0,14,15
 410 58 410 58 419 51 c 128,-1,16
 428 44 428 44 428 34 c 0,17,18
 428 20 428 20 400 7 c 128,-1,19
 372 -6 372 -6 330.5 -20.5 c 128,-1,20
 289 -35 289 -35 230 -80 c 128,-1,21
 171 -125 171 -125 122 -193 c 0,22,23
 116 -202 116 -202 100 -202 c 0,24,25
 87 -202 87 -202 77.5 -195 c 128,-1,26
 68 -188 68 -188 68 -177 c 0,27,28
 68 -175 68 -175 70 -165 c 128,-1,29
 72 -155 72 -155 74 -136.5 c 128,-1,30
 76 -118 76 -118 76 -96 c 0,31,32
 76 -30 76 -30 57 25.5 c 128,-1,33
 38 81 38 81 19 111 c 128,-1,34
 0 141 0 141 0 145 c 0,6,7
EndSplineSet
EndChar

StartChar: noteheads.u2triangle
Encoding: 57652 57652 76
Width: 357
Flags: W
LayerCount: 2
Fore
SplineSet
56 -177 m 0,0,1
 56 -175 56 -175 57.5 -164.5 c 128,-1,2
 59 -154 59 -154 61 -135.5 c 128,-1,3
 63 -117 63 -117 63 -95 c 0,4,5
 63 -32 63 -32 47.5 23 c 128,-1,6
 32 78 32 78 16 108.5 c 128,-1,7
 0 139 0 139 0 143 c 0,8,9
 0 153 0 153 7 161 c 128,-1,10
 14 169 14 169 26 169 c 0,11,12
 31 169 31 169 56.5 151.5 c 128,-1,13
 82 134 82 134 115 113.5 c 128,-1,14
 148 93 148 93 207.5 75.5 c 128,-1,15
 267 58 267 58 332 58 c 0,16,17
 342 58 342 58 349 50.5 c 128,-1,18
 356 43 356 43 356 33 c 0,19,20
 356 18 356 18 341.5 10.5 c 128,-1,21
 327 3 327 3 286.5 -16.5 c 128,-1,22
 246 -36 246 -36 205 -71 c 0,23,24
 173 -98 173 -98 150 -125 c 128,-1,25
 127 -152 127 -152 119 -167 c 128,-1,26
 111 -182 111 -182 101.5 -192 c 128,-1,27
 92 -202 92 -202 82 -202 c 0,28,29
 71 -202 71 -202 63.5 -194.5 c 128,-1,30
 56 -187 56 -187 56 -177 c 0,0,1
EndSplineSet
EndChar

StartChar: noteheads.d2triangle
Encoding: 57653 57653 77
Width: 357
Flags: W
LayerCount: 2
Fore
SplineSet
56 -177 m 0,0,1
 56 -175 56 -175 57.5 -164.5 c 128,-1,2
 59 -154 59 -154 61 -135.5 c 128,-1,3
 63 -117 63 -117 63 -95 c 0,4,5
 63 -32 63 -32 47.5 23 c 128,-1,6
 32 78 32 78 16 108.5 c 128,-1,7
 0 139 0 139 0 143 c 0,8,9
 0 153 0 153 7 161 c 128,-1,10
 14 169 14 169 26 169 c 0,11,12
 31 169 31 169 56.5 151.5 c 128,-1,13
 82 134 82 134 115 113.5 c 128,-1,14
 148 93 148 93 207.5 75.5 c 128,-1,15
 267 58 267 58 332 58 c 0,16,17
 342 58 342 58 349 50.5 c 128,-1,18
 356 43 356 43 356 33 c 0,19,20
 356 18 356 18 341.5 10.5 c 128,-1,21
 327 3 327 3 286.5 -16.5 c 128,-1,22
 246 -36 246 -36 205 -71 c 0,23,24
 173 -98 173 -98 150 -125 c 128,-1,25
 127 -152 127 -152 119 -167 c 128,-1,26
 111 -182 111 -182 101.5 -192 c 128,-1,27
 92 -202 92 -202 82 -202 c 0,28,29
 71 -202 71 -202 63.5 -194.5 c 128,-1,30
 56 -187 56 -187 56 -177 c 0,0,1
EndSplineSet
EndChar

StartChar: noteheads.s0slash
Encoding: 57654 57654 78
Width: 774
Flags: W
LayerCount: 2
Fore
SplineSet
120 -198 m 1,0,-1
 411 -198 l 1,1,-1
 652 198 l 1,2,-1
 360 198 l 1,3,-1
 120 -198 l 1,0,-1
10 -269 m 2,4,5
 0 -269 0 -269 0 -258 c 0,6,7
 0 -255 0 -255 1 -253 c 2,8,-1
 317 264 l 2,9,10
 320 269 320 269 327 269 c 2,11,-1
 762 269 l 2,12,13
 772 269 772 269 772 258 c 0,14,15
 772 257 772 257 770 253 c 2,16,-1
 455 -264 l 2,17,18
 452 -269 452 -269 445 -269 c 2,19,-1
 10 -269 l 2,4,5
EndSplineSet
EndChar

StartChar: noteheads.s1slash
Encoding: 57655 57655 79
Width: 602
Flags: W
LayerCount: 2
Fore
SplineSet
120 -198 m 1,0,-1
 240 -198 l 1,1,-1
 480 198 l 1,2,-1
 360 198 l 1,3,-1
 120 -198 l 1,0,-1
10 -269 m 2,4,5
 0 -269 0 -269 0 -258 c 0,6,7
 0 -255 0 -255 1 -253 c 2,8,-1
 317 264 l 2,9,10
 320 269 320 269 327 269 c 2,11,-1
 590 269 l 2,12,13
 600 269 600 269 600 258 c 0,14,15
 600 255 600 255 599 253 c 2,16,-1
 283 -264 l 2,17,18
 280 -269 280 -269 273 -269 c 2,19,-1
 10 -269 l 2,4,5
EndSplineSet
EndChar

StartChar: noteheads.s2slash
Encoding: 57656 57656 80
Width: 440
Flags: W
LayerCount: 2
Fore
SplineSet
10 -269 m 2,0,1
 0 -269 0 -269 0 -258 c 0,2,3
 0 -255 0 -255 1 -253 c 2,4,-1
 317 264 l 2,5,6
 320 269 320 269 327 269 c 2,7,-1
 429 269 l 2,8,9
 439 269 439 269 439 258 c 0,10,11
 439 257 439 257 437 253 c 2,12,-1
 122 -264 l 2,13,14
 119 -269 119 -269 113 -269 c 2,15,-1
 10 -269 l 2,0,1
EndSplineSet
EndChar

StartChar: noteheads.s0cross
Encoding: 57657 57657 81
Width: 440
Flags: W
LayerCount: 2
Fore
SplineSet
228 45 m 2,0,1
 226 43 226 43 220 43 c 0,2,3
 213 43 213 43 211 45 c 2,4,-1
 101 120 l 1,5,-1
 43 80 l 1,6,-1
 142 12 l 2,7,8
 149 7 149 7 149.5 0 c 128,-1,9
 150 -7 150 -7 142 -12 c 2,10,-1
 43 -80 l 1,11,-1
 101 -120 l 1,12,-1
 211 -45 l 2,13,14
 213 -43 213 -43 220 -43 c 0,15,16
 226 -43 226 -43 228 -45 c 2,17,-1
 338 -120 l 1,18,-1
 396 -80 l 1,19,-1
 297 -12 l 2,20,21
 290 -7 290 -7 290 0 c 128,-1,22
 290 7 290 7 297 12 c 2,23,-1
 396 80 l 1,24,-1
 338 120 l 1,25,-1
 228 45 l 2,0,1
220 77 m 1,26,-1
 330 151 l 2,27,28
 333 154 333 154 338 154 c 0,29,30
 344 154 344 154 347 151 c 2,31,-1
 432 93 l 2,32,33
 439 88 439 88 439 80 c 0,34,35
 439 73 439 73 432 68 c 2,36,-1
 333 0 l 1,37,-1
 432 -68 l 2,38,39
 439 -73 439 -73 439 -80 c 0,40,41
 439 -88 439 -88 432 -93 c 2,42,-1
 347 -151 l 2,43,44
 344 -154 344 -154 338 -154 c 0,45,46
 333 -154 333 -154 330 -151 c 2,47,-1
 220 -77 l 1,48,-1
 110 -151 l 2,49,50
 107 -154 107 -154 101 -154 c 128,-1,51
 95 -154 95 -154 92 -151 c 2,52,-1
 7 -93 l 2,53,54
 0 -88 0 -88 0 -80 c 0,55,56
 0 -73 0 -73 7 -68 c 2,57,-1
 106 0 l 1,58,-1
 7 68 l 2,59,60
 0 73 0 73 0 80 c 0,61,62
 0 88 0 88 7 93 c 2,63,-1
 92 151 l 2,64,65
 95 154 95 154 101 154 c 0,66,67
 106 154 106 154 110 151 c 2,68,-1
 220 77 l 1,26,-1
EndSplineSet
EndChar

StartChar: noteheads.s1cross
Encoding: 57658 57658 82
Width: 389
Flags: W
LayerCount: 2
Fore
SplineSet
203 36 m 2,0,1
 199 33 199 33 195 33 c 256,2,3
 191 33 191 33 185 36 c 1,4,-1
 80 113 l 1,5,-1
 41 84 l 1,6,-1
 138 12 l 2,7,8
 144 8 144 8 144 0 c 128,-1,9
 144 -8 144 -8 138 -12 c 2,10,-1
 41 -84 l 1,11,-1
 80 -113 l 1,12,-1
 185 -36 l 2,13,14
 190 -33 190 -33 195 -33 c 0,15,16
 199 -33 199 -33 203 -36 c 2,17,-1
 308 -113 l 1,18,-1
 347 -84 l 1,19,-1
 250 -12 l 2,20,21
 244 -8 244 -8 244 0 c 128,-1,22
 244 8 244 8 250 12 c 2,23,-1
 347 84 l 1,24,-1
 308 113 l 1,25,-1
 203 36 l 2,0,1
195 67 m 1,26,-1
 299 144 l 2,27,28
 303 147 303 147 308 147 c 128,-1,29
 313 147 313 147 317 144 c 2,30,-1
 382 96 l 2,31,32
 388 92 388 92 388 84 c 128,-1,33
 388 76 388 76 382 72 c 2,34,-1
 285 0 l 1,35,-1
 382 -72 l 2,36,37
 388 -76 388 -76 388 -84 c 128,-1,38
 388 -92 388 -92 382 -96 c 2,39,-1
 317 -144 l 2,40,41
 313 -147 313 -147 308 -147 c 128,-1,42
 303 -147 303 -147 299 -144 c 2,43,-1
 195 -67 l 1,44,-1
 89 -144 l 2,45,46
 84 -147 84 -147 80 -147 c 128,-1,47
 76 -147 76 -147 71 -144 c 2,48,-1
 6 -96 l 2,49,50
 0 -92 0 -92 0 -84 c 128,-1,51
 0 -76 0 -76 6 -72 c 2,52,-1
 103 0 l 1,53,-1
 6 72 l 2,54,55
 0 76 0 76 0 84 c 128,-1,56
 0 92 0 92 6 96 c 2,57,-1
 71 144 l 2,58,59
 76 147 76 147 80 147 c 128,-1,60
 84 147 84 147 89 144 c 2,61,-1
 195 67 l 1,26,-1
EndSplineSet
EndChar

StartChar: noteheads.s2cross
Encoding: 57659 57659 83
Width: 337
Flags: W
LayerCount: 2
Fore
SplineSet
169 37 m 1,0,-1
 292 137 l 2,1,2
 298 141 298 141 301 141 c 0,3,4
 305 141 305 141 311 137 c 2,5,-1
 332 121 l 2,6,7
 337 116 337 116 337 109 c 0,8,9
 337 103 337 103 332 97 c 1,10,-1
 213 0 l 1,11,-1
 332 -97 l 2,12,13
 337 -102 337 -102 337 -109 c 128,-1,14
 337 -116 337 -116 332 -121 c 2,15,-1
 311 -137 l 2,16,17
 305 -141 305 -141 301 -141 c 0,18,19
 298 -141 298 -141 292 -137 c 2,20,-1
 169 -37 l 1,21,-1
 45 -137 l 2,22,23
 39 -141 39 -141 36 -141 c 0,24,25
 32 -141 32 -141 26 -137 c 2,26,-1
 5 -121 l 2,27,28
 0 -116 0 -116 0 -109 c 0,29,30
 0 -103 0 -103 5 -97 c 1,31,-1
 124 0 l 1,32,-1
 5 97 l 2,33,34
 0 102 0 102 0 109 c 128,-1,35
 0 116 0 116 5 121 c 2,36,-1
 26 137 l 2,37,38
 32 141 32 141 36 141 c 0,39,40
 39 141 39 141 45 137 c 2,41,-1
 169 37 l 1,0,-1
EndSplineSet
EndChar

StartChar: noteheads.s2xcircle
Encoding: 57660 57660 84
Width: 401
Flags: W
LayerCount: 2
Fore
SplineSet
201 177 m 0,0,1
 283 177 283 177 341.5 125.5 c 128,-1,2
 400 74 400 74 400 0 c 128,-1,3
 400 -74 400 -74 341.5 -125.5 c 128,-1,4
 283 -177 283 -177 201 -177 c 0,5,6
 118 -177 118 -177 59 -125.5 c 128,-1,7
 0 -74 0 -74 0 0 c 128,-1,8
 0 74 0 74 59 125.5 c 128,-1,9
 118 177 118 177 201 177 c 0,0,1
201 25 m 1,10,-1
 299 111 l 1,11,12
 254 140 254 140 201 139 c 1,13,14
 147 139 147 139 101 111 c 1,15,-1
 201 25 l 1,10,-1
172 0 m 1,16,-1
 73 87 l 1,17,18
 37 48 37 48 37 0 c 128,-1,19
 37 -48 37 -48 73 -87 c 1,20,-1
 172 0 l 1,16,-1
228 0 m 1,21,-1
 329 -87 l 1,22,23
 364 -49 364 -49 364 0 c 128,-1,24
 364 49 364 49 329 87 c 1,25,-1
 228 0 l 1,21,-1
201 -25 m 1,26,-1
 101 -111 l 1,27,28
 146 -140 146 -140 201 -139 c 0,29,30
 254 -139 254 -139 299 -111 c 1,31,-1
 201 -25 l 1,26,-1
EndSplineSet
EndChar

StartChar: noteheads.s0do
Encoding: 57661 57661 85
Width: 507
Flags: W
LayerCount: 2
Fore
SplineSet
86 -71 m 1,0,-1
 421 -71 l 1,1,-1
 254 65 l 1,2,-1
 86 -71 l 1,0,-1
23 -115 m 2,3,4
 14 -115 14 -115 7 -108.5 c 128,-1,5
 0 -102 0 -102 0 -93 c 0,6,7
 0 -82 0 -82 8 -76 c 2,8,-1
 240 111 l 2,9,10
 245 115 245 115 254 115 c 0,11,12
 262 115 262 115 267 111 c 2,13,-1
 499 -76 l 2,14,15
 507 -82 507 -82 507 -93 c 0,16,17
 507 -102 507 -102 500.5 -108.5 c 128,-1,18
 494 -115 494 -115 484 -115 c 2,19,-1
 23 -115 l 2,3,4
EndSplineSet
EndChar

StartChar: noteheads.d1do
Encoding: 57662 57662 86
Width: 356
Flags: W
LayerCount: 2
Fore
SplineSet
71 -71 m 1,0,-1
 286 -71 l 1,1,-1
 178 58 l 1,2,-1
 71 -71 l 1,0,-1
23 -115 m 2,3,4
 14 -115 14 -115 7 -108.5 c 128,-1,5
 0 -102 0 -102 0 -93 c 0,6,7
 0 -86 0 -86 5 -79 c 2,8,-1
 161 108 l 2,9,10
 167 116 167 116 178 116 c 128,-1,11
 189 116 189 116 196 108 c 2,12,-1
 350 -79 l 2,13,14
 355 -86 355 -86 355 -93 c 0,15,16
 355 -102 355 -102 349 -108.5 c 128,-1,17
 343 -115 343 -115 334 -115 c 2,18,-1
 23 -115 l 2,3,4
EndSplineSet
EndChar

StartChar: noteheads.u1do
Encoding: 57663 57663 87
Width: 356
Flags: W
LayerCount: 2
Fore
SplineSet
71 -71 m 1,0,-1
 286 -71 l 1,1,-1
 178 58 l 1,2,-1
 71 -71 l 1,0,-1
23 -115 m 2,3,4
 14 -115 14 -115 7 -108.5 c 128,-1,5
 0 -102 0 -102 0 -93 c 0,6,7
 0 -86 0 -86 5 -79 c 2,8,-1
 161 108 l 2,9,10
 167 116 167 116 178 116 c 128,-1,11
 189 116 189 116 196 108 c 2,12,-1
 350 -79 l 2,13,14
 355 -86 355 -86 355 -93 c 0,15,16
 355 -102 355 -102 349 -108.5 c 128,-1,17
 343 -115 343 -115 334 -115 c 2,18,-1
 23 -115 l 2,3,4
EndSplineSet
EndChar

StartChar: noteheads.d2do
Encoding: 57664 57664 88
Width: 337
Flags: W
LayerCount: 2
Fore
SplineSet
23 -115 m 2,0,1
 14 -115 14 -115 7 -108.5 c 128,-1,2
 0 -102 0 -102 0 -93 c 0,3,4
 0 -86 0 -86 5 -79 c 2,5,-1
 151 106 l 2,6,7
 158 115 158 115 169 116 c 0,8,9
 179 116 179 116 186 106 c 2,10,-1
 332 -79 l 2,11,12
 337 -86 337 -86 337 -93 c 0,13,14
 337 -102 337 -102 330.5 -108.5 c 128,-1,15
 324 -115 324 -115 314 -115 c 2,16,-1
 23 -115 l 2,0,1
EndSplineSet
EndChar

StartChar: noteheads.u2do
Encoding: 57665 57665 89
Width: 337
Flags: W
LayerCount: 2
Fore
SplineSet
23 -115 m 2,0,1
 14 -115 14 -115 7 -108.5 c 128,-1,2
 0 -102 0 -102 0 -93 c 0,3,4
 0 -86 0 -86 5 -79 c 2,5,-1
 151 106 l 2,6,7
 158 115 158 115 169 116 c 0,8,9
 179 116 179 116 186 106 c 2,10,-1
 332 -79 l 2,11,12
 337 -86 337 -86 337 -93 c 0,13,14
 337 -102 337 -102 330.5 -108.5 c 128,-1,15
 324 -115 324 -115 314 -115 c 2,16,-1
 23 -115 l 2,0,1
EndSplineSet
EndChar

StartChar: noteheads.s0re
Encoding: 57666 57666 90
Width: 507
Flags: W
LayerCount: 2
Fore
SplineSet
45 71 m 1,0,-1
 45 37 l 2,1,2
 45 -71 45 -71 254 -71 c 0,3,4
 462 -71 462 -71 462 37 c 2,5,-1
 462 71 l 1,6,-1
 45 71 l 1,0,-1
0 93 m 2,7,8
 0 102 0 102 6.5 108.5 c 128,-1,9
 13 115 13 115 23 115 c 2,10,-1
 484 115 l 2,11,12
 493 115 493 115 500 108.5 c 128,-1,13
 507 102 507 102 507 93 c 2,14,-1
 507 37 l 2,15,16
 507 -39 507 -39 432.5 -77 c 128,-1,17
 358 -115 358 -115 254 -115 c 128,-1,18
 150 -115 150 -115 75 -77 c 128,-1,19
 0 -39 0 -39 0 37 c 2,20,-1
 0 93 l 2,7,8
EndSplineSet
EndChar

StartChar: noteheads.u1re
Encoding: 57667 57667 91
Width: 356
Flags: W
LayerCount: 2
Fore
SplineSet
45 71 m 1,0,-1
 45 37 l 2,1,2
 45 -10 45 -10 84.5 -40.5 c 128,-1,3
 124 -71 124 -71 178 -71 c 128,-1,4
 232 -71 232 -71 271.5 -40.5 c 128,-1,5
 311 -10 311 -10 311 37 c 2,6,-1
 311 71 l 1,7,-1
 45 71 l 1,0,-1
0 93 m 2,8,9
 0 102 0 102 6.5 108.5 c 128,-1,10
 13 115 13 115 23 115 c 2,11,-1
 334 115 l 2,12,13
 343 115 343 115 349 108.5 c 128,-1,14
 355 102 355 102 355 93 c 2,15,-1
 355 37 l 2,16,17
 355 -29 355 -29 303 -72 c 128,-1,18
 251 -115 251 -115 178 -115 c 128,-1,19
 105 -115 105 -115 52.5 -72 c 128,-1,20
 0 -29 0 -29 0 37 c 2,21,-1
 0 93 l 2,8,9
EndSplineSet
EndChar

StartChar: noteheads.d1re
Encoding: 57668 57668 92
Width: 356
Flags: W
LayerCount: 2
Fore
SplineSet
45 71 m 1,0,-1
 45 37 l 2,1,2
 45 -10 45 -10 84.5 -40.5 c 128,-1,3
 124 -71 124 -71 178 -71 c 128,-1,4
 232 -71 232 -71 271.5 -40.5 c 128,-1,5
 311 -10 311 -10 311 37 c 2,6,-1
 311 71 l 1,7,-1
 45 71 l 1,0,-1
0 93 m 2,8,9
 0 102 0 102 6.5 108.5 c 128,-1,10
 13 115 13 115 23 115 c 2,11,-1
 334 115 l 2,12,13
 343 115 343 115 349 108.5 c 128,-1,14
 355 102 355 102 355 93 c 2,15,-1
 355 37 l 2,16,17
 355 -29 355 -29 303 -72 c 128,-1,18
 251 -115 251 -115 178 -115 c 128,-1,19
 105 -115 105 -115 52.5 -72 c 128,-1,20
 0 -29 0 -29 0 37 c 2,21,-1
 0 93 l 2,8,9
EndSplineSet
EndChar

StartChar: noteheads.u2re
Encoding: 57669 57669 93
Width: 337
Flags: W
LayerCount: 2
Fore
SplineSet
0 93 m 2,0,1
 0 102 0 102 6.5 108.5 c 128,-1,2
 13 115 13 115 23 115 c 2,3,-1
 314 115 l 2,4,5
 323 115 323 115 330 108.5 c 128,-1,6
 337 102 337 102 337 93 c 2,7,-1
 337 37 l 2,8,9
 337 -28 337 -28 287.5 -71.5 c 128,-1,10
 238 -115 238 -115 169 -115 c 128,-1,11
 100 -115 100 -115 50 -71.5 c 128,-1,12
 0 -28 0 -28 0 37 c 2,13,-1
 0 93 l 2,0,1
EndSplineSet
EndChar

StartChar: noteheads.d2re
Encoding: 57670 57670 94
Width: 337
Flags: W
LayerCount: 2
Fore
SplineSet
0 93 m 2,0,1
 0 102 0 102 6.5 108.5 c 128,-1,2
 13 115 13 115 23 115 c 2,3,-1
 314 115 l 2,4,5
 323 115 323 115 330 108.5 c 128,-1,6
 337 102 337 102 337 93 c 2,7,-1
 337 37 l 2,8,9
 337 -28 337 -28 287.5 -71.5 c 128,-1,10
 238 -115 238 -115 169 -115 c 128,-1,11
 100 -115 100 -115 50 -71.5 c 128,-1,12
 0 -28 0 -28 0 37 c 2,13,-1
 0 93 l 2,0,1
EndSplineSet
EndChar

StartChar: noteheads.s0mi
Encoding: 57671 57671 95
Width: 507
Flags: W
LayerCount: 2
Fore
SplineSet
97 6 m 1,0,-1
 268 -62 l 1,1,-1
 410 -6 l 1,2,-1
 239 62 l 1,3,-1
 97 6 l 1,0,-1
14 -20 m 2,4,5
 0 -15 0 -15 0 0 c 128,-1,6
 0 15 0 15 14 20 c 2,7,-1
 245 114 l 2,8,9
 248 115 248 115 254 115 c 0,10,11
 259 115 259 115 262 114 c 2,12,-1
 493 20 l 2,13,14
 507 15 507 15 507 0 c 128,-1,15
 507 -15 507 -15 493 -20 c 2,16,-1
 262 -114 l 2,17,18
 259 -115 259 -115 254 -115 c 0,19,20
 248 -115 248 -115 245 -114 c 2,21,-1
 14 -20 l 2,4,5
EndSplineSet
EndChar

StartChar: noteheads.s1mi
Encoding: 57672 57672 96
Width: 337
Flags: W
LayerCount: 2
Fore
SplineSet
75 6 m 1,0,-1
 179 -59 l 1,1,-1
 262 -6 l 1,2,-1
 158 59 l 1,3,-1
 75 6 l 1,0,-1
10 -18 m 2,4,5
 0 -11 0 -11 0 0 c 128,-1,6
 0 11 0 11 10 18 c 2,7,-1
 157 112 l 2,8,9
 163 115 163 115 169 115 c 0,10,11
 174 115 174 115 180 112 c 2,12,-1
 327 18 l 2,13,14
 337 11 337 11 337 0 c 128,-1,15
 337 -11 337 -11 327 -18 c 2,16,-1
 180 -112 l 2,17,18
 174 -115 174 -115 169 -115 c 0,19,20
 163 -115 163 -115 157 -112 c 2,21,-1
 10 -18 l 2,4,5
EndSplineSet
EndChar

StartChar: noteheads.s2mi
Encoding: 57673 57673 97
Width: 337
Flags: W
LayerCount: 2
Fore
SplineSet
10 -18 m 2,0,1
 0 -11 0 -11 0 0 c 128,-1,2
 0 11 0 11 10 18 c 2,3,-1
 157 112 l 2,4,5
 163 115 163 115 169 115 c 0,6,7
 174 115 174 115 180 112 c 2,8,-1
 327 18 l 2,9,10
 337 11 337 11 337 0 c 128,-1,11
 337 -11 337 -11 327 -18 c 2,12,-1
 180 -112 l 2,13,14
 174 -115 174 -115 169 -115 c 0,15,16
 163 -115 163 -115 157 -112 c 2,17,-1
 10 -18 l 2,0,1
EndSplineSet
EndChar

StartChar: noteheads.u0fa
Encoding: 57674 57674 98
Width: 507
Flags: W
LayerCount: 2
Fore
SplineSet
138 71 m 1,0,-1
 462 -59 l 1,1,-1
 462 71 l 1,2,-1
 138 71 l 1,0,-1
0 93 m 0,3,4
 0 102 0 102 6.5 108.5 c 128,-1,5
 13 115 13 115 23 115 c 2,6,-1
 484 115 l 2,7,8
 493 115 493 115 500 108.5 c 128,-1,9
 507 102 507 102 507 93 c 2,10,-1
 507 -93 l 2,11,12
 507 -102 507 -102 500.5 -108.5 c 128,-1,13
 494 -115 494 -115 484 -115 c 0,14,15
 479 -115 479 -115 476 -114 c 2,16,-1
 14 72 l 2,17,18
 0 77 0 77 0 93 c 0,3,4
EndSplineSet
EndChar

StartChar: noteheads.d0fa
Encoding: 57675 57675 99
Width: 507
Flags: W
LayerCount: 2
Fore
SplineSet
369 -71 m 1,0,-1
 45 59 l 1,1,-1
 45 -71 l 1,2,-1
 369 -71 l 1,0,-1
507 -93 m 0,3,4
 507 -102 507 -102 500.5 -108.5 c 128,-1,5
 494 -115 494 -115 484 -115 c 2,6,-1
 23 -115 l 2,7,8
 14 -115 14 -115 7 -108.5 c 128,-1,9
 0 -102 0 -102 0 -93 c 2,10,-1
 0 93 l 2,11,12
 0 102 0 102 6.5 108.5 c 128,-1,13
 13 115 13 115 23 115 c 0,14,15
 28 115 28 115 31 114 c 2,16,-1
 493 -72 l 2,17,18
 507 -77 507 -77 507 -93 c 0,3,4
EndSplineSet
EndChar

StartChar: noteheads.u1fa
Encoding: 57676 57676 100
Width: 356
Flags: W
LayerCount: 2
Fore
SplineSet
103 71 m 1,0,-1
 311 -53 l 1,1,-1
 311 71 l 1,2,-1
 103 71 l 1,0,-1
0 93 m 0,3,4
 0 102 0 102 6.5 108.5 c 128,-1,5
 13 115 13 115 23 115 c 2,6,-1
 334 115 l 2,7,8
 343 115 343 115 349 108.5 c 128,-1,9
 355 102 355 102 355 93 c 2,10,-1
 355 -93 l 2,11,12
 355 -102 355 -102 349 -108.5 c 128,-1,13
 343 -115 343 -115 334 -115 c 0,14,15
 326 -115 326 -115 322 -112 c 2,16,-1
 11 74 l 2,17,18
 0 80 0 80 0 93 c 0,3,4
EndSplineSet
EndChar

StartChar: noteheads.d1fa
Encoding: 57677 57677 101
Width: 356
Flags: W
LayerCount: 2
Fore
SplineSet
252 -71 m 1,0,-1
 45 53 l 1,1,-1
 45 -71 l 1,2,-1
 252 -71 l 1,0,-1
355 -93 m 0,3,4
 355 -102 355 -102 349 -108.5 c 128,-1,5
 343 -115 343 -115 334 -115 c 2,6,-1
 23 -115 l 2,7,8
 14 -115 14 -115 7 -108.5 c 128,-1,9
 0 -102 0 -102 0 -93 c 2,10,-1
 0 93 l 2,11,12
 0 102 0 102 6.5 108.5 c 128,-1,13
 13 115 13 115 23 115 c 0,14,15
 29 115 29 115 34 112 c 2,16,-1
 345 -74 l 2,17,18
 355 -80 355 -80 355 -93 c 0,3,4
EndSplineSet
EndChar

StartChar: noteheads.u2fa
Encoding: 57678 57678 102
Width: 337
Flags: W
LayerCount: 2
Fore
SplineSet
0 93 m 0,0,1
 0 102 0 102 6.5 108.5 c 128,-1,2
 13 115 13 115 23 115 c 2,3,-1
 314 115 l 2,4,5
 323 115 323 115 330 108.5 c 128,-1,6
 337 102 337 102 337 93 c 2,7,-1
 337 -93 l 2,8,9
 337 -102 337 -102 330.5 -108.5 c 128,-1,10
 324 -115 324 -115 314 -115 c 0,11,12
 308 -115 308 -115 302 -112 c 2,13,-1
 10 74 l 2,14,15
 0 81 0 81 0 93 c 0,0,1
EndSplineSet
EndChar

StartChar: noteheads.d2fa
Encoding: 57679 57679 103
Width: 337
Flags: W
LayerCount: 2
Fore
SplineSet
337 -93 m 0,0,1
 337 -102 337 -102 330.5 -108.5 c 128,-1,2
 324 -115 324 -115 314 -115 c 2,3,-1
 23 -115 l 2,4,5
 14 -115 14 -115 7 -108.5 c 128,-1,6
 0 -102 0 -102 0 -93 c 2,7,-1
 0 93 l 2,8,9
 0 102 0 102 6.5 108.5 c 128,-1,10
 13 115 13 115 23 115 c 0,11,12
 29 115 29 115 35 112 c 2,13,-1
 327 -74 l 2,14,15
 337 -81 337 -81 337 -93 c 0,0,1
EndSplineSet
EndChar

StartChar: noteheads.s0la
Encoding: 57680 57680 104
Width: 507
Flags: W
LayerCount: 2
Fore
SplineSet
45 71 m 1,0,-1
 45 -71 l 1,1,-1
 462 -71 l 1,2,-1
 462 71 l 1,3,-1
 45 71 l 1,0,-1
23 115 m 2,4,-1
 484 115 l 2,5,6
 493 115 493 115 500 108.5 c 128,-1,7
 507 102 507 102 507 93 c 2,8,-1
 507 -93 l 2,9,10
 507 -102 507 -102 500.5 -108.5 c 128,-1,11
 494 -115 494 -115 484 -115 c 2,12,-1
 23 -115 l 2,13,14
 14 -115 14 -115 7 -108.5 c 128,-1,15
 0 -102 0 -102 0 -93 c 2,16,-1
 0 93 l 2,17,18
 0 102 0 102 7 108.5 c 128,-1,19
 14 115 14 115 23 115 c 2,4,-1
EndSplineSet
EndChar

StartChar: noteheads.s1la
Encoding: 57681 57681 105
Width: 356
Flags: W
LayerCount: 2
Fore
SplineSet
45 71 m 1,0,-1
 45 -71 l 1,1,-1
 311 -71 l 1,2,-1
 311 71 l 1,3,-1
 45 71 l 1,0,-1
23 115 m 2,4,-1
 334 115 l 2,5,6
 343 115 343 115 349 108.5 c 128,-1,7
 355 102 355 102 355 93 c 2,8,-1
 355 -93 l 2,9,10
 355 -102 355 -102 349 -108.5 c 128,-1,11
 343 -115 343 -115 334 -115 c 2,12,-1
 23 -115 l 2,13,14
 14 -115 14 -115 7 -108.5 c 128,-1,15
 0 -102 0 -102 0 -93 c 2,16,-1
 0 93 l 2,17,18
 0 102 0 102 7 108.5 c 128,-1,19
 14 115 14 115 23 115 c 2,4,-1
EndSplineSet
EndChar

StartChar: noteheads.s2la
Encoding: 57682 57682 106
Width: 337
Flags: W
LayerCount: 2
Fore
SplineSet
23 115 m 2,0,-1
 314 115 l 2,1,2
 323 115 323 115 330 108.5 c 128,-1,3
 337 102 337 102 337 93 c 2,4,-1
 337 -93 l 2,5,6
 337 -102 337 -102 330.5 -108.5 c 128,-1,7
 324 -115 324 -115 314 -115 c 2,8,-1
 23 -115 l 2,9,10
 14 -115 14 -115 7 -108.5 c 128,-1,11
 0 -102 0 -102 0 -93 c 2,12,-1
 0 93 l 2,13,14
 0 102 0 102 7 108.5 c 128,-1,15
 14 115 14 115 23 115 c 2,0,-1
EndSplineSet
EndChar

StartChar: noteheads.s0ti
Encoding: 57683 57683 107
Width: 507
Flags: W
LayerCount: 2
Fore
SplineSet
254 -68 m 1,0,-1
 437 27 l 1,1,2
 349 71 349 71 254 71 c 0,3,4
 158 71 158 71 70 27 c 1,5,-1
 254 -68 l 1,0,-1
0 26 m 0,6,7
 0 51 0 51 83.5 83.5 c 128,-1,8
 167 116 167 116 254 116 c 0,9,10
 382 116 382 116 495 46 c 0,11,12
 507 38 507 38 507 26 c 0,13,14
 507 12 507 12 495 6 c 2,15,-1
 264 -113 l 2,16,17
 261 -115 261 -115 254 -115 c 128,-1,18
 247 -115 247 -115 244 -113 c 2,19,-1
 12 6 l 2,20,21
 0 12 0 12 0 26 c 0,6,7
EndSplineSet
EndChar

StartChar: noteheads.u1ti
Encoding: 57684 57684 108
Width: 356
Flags: W
LayerCount: 2
Fore
SplineSet
178 -65 m 1,0,-1
 299 28 l 1,1,2
 247 71 247 71 178.5 71 c 128,-1,3
 110 71 110 71 57 28 c 1,4,-1
 178 -65 l 1,0,-1
178 115 m 128,-1,6
 225 115 225 115 268.5 96.5 c 128,-1,7
 312 78 312 78 334 57 c 128,-1,8
 356 36 356 36 356 25 c 0,9,10
 356 16 356 16 347 8 c 2,11,-1
 191 -111 l 2,12,13
 186 -115 186 -115 178 -115 c 0,14,15
 169 -115 169 -115 164 -111 c 2,16,-1
 9 8 l 2,17,18
 0 15 0 15 0 25 c 0,19,20
 0 37 0 37 22 57.5 c 128,-1,21
 44 78 44 78 87.5 96.5 c 128,-1,5
 131 115 131 115 178 115 c 128,-1,6
EndSplineSet
EndChar

StartChar: noteheads.d1ti
Encoding: 57685 57685 109
Width: 356
Flags: W
LayerCount: 2
Fore
SplineSet
178 -65 m 1,0,-1
 299 28 l 1,1,2
 247 71 247 71 178.5 71 c 128,-1,3
 110 71 110 71 57 28 c 1,4,-1
 178 -65 l 1,0,-1
178 115 m 128,-1,6
 225 115 225 115 268.5 96.5 c 128,-1,7
 312 78 312 78 334 57 c 128,-1,8
 356 36 356 36 356 25 c 0,9,10
 356 16 356 16 347 8 c 2,11,-1
 191 -111 l 2,12,13
 186 -115 186 -115 178 -115 c 0,14,15
 169 -115 169 -115 164 -111 c 2,16,-1
 9 8 l 2,17,18
 0 15 0 15 0 25 c 0,19,20
 0 37 0 37 22 57.5 c 128,-1,21
 44 78 44 78 87.5 96.5 c 128,-1,5
 131 115 131 115 178 115 c 128,-1,6
EndSplineSet
EndChar

StartChar: noteheads.u2ti
Encoding: 57686 57686 110
Width: 337
Flags: W
LayerCount: 2
Fore
SplineSet
169 115 m 0,0,1
 205 115 205 115 238 103.5 c 128,-1,2
 271 92 271 92 291.5 76 c 128,-1,3
 312 60 312 60 324.5 46 c 128,-1,4
 337 32 337 32 337 25 c 0,5,6
 337 15 337 15 329 8 c 2,7,-1
 182 -111 l 2,8,9
 177 -115 177 -115 169 -115 c 0,10,11
 160 -115 160 -115 155 -111 c 2,12,-1
 8 8 l 2,13,14
 0 14 0 14 0 25 c 128,-1,15
 0 36 0 36 20.5 57 c 128,-1,16
 41 78 41 78 82.5 96.5 c 128,-1,17
 124 115 124 115 169 115 c 0,0,1
EndSplineSet
EndChar

StartChar: noteheads.d2ti
Encoding: 57687 57687 111
Width: 337
Flags: W
LayerCount: 2
Fore
SplineSet
169 115 m 0,0,1
 205 115 205 115 238 103.5 c 128,-1,2
 271 92 271 92 291.5 76 c 128,-1,3
 312 60 312 60 324.5 46 c 128,-1,4
 337 32 337 32 337 25 c 0,5,6
 337 15 337 15 329 8 c 2,7,-1
 182 -111 l 2,8,9
 177 -115 177 -115 169 -115 c 0,10,11
 160 -115 160 -115 155 -111 c 2,12,-1
 8 8 l 2,13,14
 0 14 0 14 0 25 c 128,-1,15
 0 36 0 36 20.5 57 c 128,-1,16
 41 78 41 78 82.5 96.5 c 128,-1,17
 124 115 124 115 169 115 c 0,0,1
EndSplineSet
EndChar

StartChar: scripts.ufermata
Encoding: 57688 57688 112
Width: 339
Flags: W
LayerCount: 2
Fore
SplineSet
-69 49 m 128,-1,1
 -69 78 -69 78 -49 98 c 128,-1,2
 -29 118 -29 118 0 118 c 128,-1,3
 29 118 29 118 49 98 c 128,-1,4
 69 78 69 78 69 49 c 128,-1,5
 69 20 69 20 49 0.5 c 128,-1,6
 29 -19 29 -19 0 -19 c 128,-1,7
 -29 -19 -29 -19 -49 0.5 c 128,-1,0
 -69 20 -69 20 -69 49 c 128,-1,1
0 372 m 128,-1,9
 62 372 62 372 116.5 346.5 c 128,-1,10
 171 321 171 321 206.5 281 c 128,-1,11
 242 241 242 241 269 196 c 128,-1,12
 296 151 296 151 311 107 c 128,-1,13
 326 63 326 63 333 35 c 128,-1,14
 340 7 340 7 340 -3 c 0,15,16
 340 -9 340 -9 334 -13.5 c 128,-1,17
 328 -18 328 -18 321 -18 c 0,18,19
 305 -18 305 -18 301 0 c 0,20,21
 281 115 281 115 197 191.5 c 128,-1,22
 113 268 113 268 0 268 c 128,-1,23
 -113 268 -113 268 -197 191.5 c 128,-1,24
 -281 115 -281 115 -301 0 c 0,25,26
 -304 -18 -304 -18 -321 -18 c 0,27,28
 -328 -18 -328 -18 -334 -13.5 c 128,-1,29
 -340 -9 -340 -9 -340 -3 c 0,30,31
 -340 7 -340 7 -333 35 c 128,-1,32
 -326 63 -326 63 -311 107 c 128,-1,33
 -296 151 -296 151 -269 196 c 128,-1,34
 -242 241 -242 241 -206.5 281 c 128,-1,35
 -171 321 -171 321 -116.5 346.5 c 128,-1,8
 -62 372 -62 372 0 372 c 128,-1,9
EndSplineSet
EndChar

StartChar: scripts.dfermata
Encoding: 57689 57689 113
Width: 339
Flags: W
LayerCount: 2
Fore
SplineSet
-69 -49 m 128,-1,1
 -69 -20 -69 -20 -49 -0.5 c 128,-1,2
 -29 19 -29 19 0 19 c 128,-1,3
 29 19 29 19 49 -0.5 c 128,-1,4
 69 -20 69 -20 69 -49 c 128,-1,5
 69 -78 69 -78 49 -98 c 128,-1,6
 29 -118 29 -118 0 -118 c 128,-1,7
 -29 -118 -29 -118 -49 -98 c 128,-1,0
 -69 -78 -69 -78 -69 -49 c 128,-1,1
0 -372 m 128,-1,9
 -62 -372 -62 -372 -116.5 -346.5 c 128,-1,10
 -171 -321 -171 -321 -206.5 -281 c 128,-1,11
 -242 -241 -242 -241 -269 -196 c 128,-1,12
 -296 -151 -296 -151 -311 -107 c 128,-1,13
 -326 -63 -326 -63 -333 -35 c 128,-1,14
 -340 -7 -340 -7 -340 3 c 0,15,16
 -340 9 -340 9 -334 13.5 c 128,-1,17
 -328 18 -328 18 -321 18 c 0,18,19
 -305 18 -305 18 -301 0 c 0,20,21
 -281 -115 -281 -115 -197 -191.5 c 128,-1,22
 -113 -268 -113 -268 0 -268 c 128,-1,23
 113 -268 113 -268 197 -191.5 c 128,-1,24
 281 -115 281 -115 301 0 c 0,25,26
 304 18 304 18 321 18 c 0,27,28
 328 18 328 18 334 13.5 c 128,-1,29
 340 9 340 9 340 3 c 0,30,31
 340 -7 340 -7 333 -35 c 128,-1,32
 326 -63 326 -63 311 -107 c 128,-1,33
 296 -151 296 -151 269 -196 c 128,-1,34
 242 -241 242 -241 206.5 -281 c 128,-1,35
 171 -321 171 -321 116.5 -346.5 c 128,-1,8
 62 -372 62 -372 0 -372 c 128,-1,9
EndSplineSet
EndChar

StartChar: scripts.ushortfermata
Encoding: 57690 57690 114
Width: 256
Flags: W
LayerCount: 2
Fore
SplineSet
-93 68.5 m 128,-1,1
 -93 97 -93 97 -73.5 116.5 c 128,-1,2
 -54 136 -54 136 -25.5 136 c 128,-1,3
 3 136 3 136 23 116.5 c 128,-1,4
 43 97 43 97 43 68.5 c 128,-1,5
 43 40 43 40 23 20 c 128,-1,6
 3 0 3 0 -25.5 0 c 128,-1,7
 -54 0 -54 0 -73.5 20 c 128,-1,0
 -93 40 -93 40 -93 68.5 c 128,-1,1
-237 0 m 0,8,9
 -245 0 -245 0 -250.5 5.5 c 128,-1,10
 -256 11 -256 11 -256 19 c 0,11,12
 -256 20 -256 20 -254 27 c 1,13,-1
 -17 552 l 2,14,15
 -12 563 -12 563 0 563 c 128,-1,16
 12 563 12 563 17 552 c 2,17,-1
 254 27 l 2,18,19
 256 21 256 21 256 19 c 0,20,21
 256 11 256 11 250.5 5.5 c 128,-1,22
 245 0 245 0 237 0 c 2,23,-1
 186 0 l 2,24,25
 174 0 174 0 169 11 c 2,26,-1
 -26 439 l 1,27,-1
 -219 11 l 2,28,29
 -225 0 -225 0 -237 0 c 0,8,9
EndSplineSet
EndChar

StartChar: scripts.dshortfermata
Encoding: 57691 57691 115
Width: 256
Flags: W
LayerCount: 2
Fore
SplineSet
93 -68.5 m 128,-1,1
 93 -97 93 -97 73.5 -116.5 c 128,-1,2
 54 -136 54 -136 25.5 -136 c 128,-1,3
 -3 -136 -3 -136 -23 -116.5 c 128,-1,4
 -43 -97 -43 -97 -43 -68.5 c 128,-1,5
 -43 -40 -43 -40 -23 -20 c 128,-1,6
 -3 0 -3 0 25.5 0 c 128,-1,7
 54 0 54 0 73.5 -20 c 128,-1,0
 93 -40 93 -40 93 -68.5 c 128,-1,1
237 0 m 0,8,9
 245 0 245 0 250.5 -5.5 c 128,-1,10
 256 -11 256 -11 256 -19 c 0,11,12
 256 -20 256 -20 254 -27 c 1,13,-1
 17 -552 l 2,14,15
 12 -563 12 -563 0 -563 c 128,-1,16
 -12 -563 -12 -563 -17 -552 c 2,17,-1
 -254 -27 l 2,18,19
 -256 -21 -256 -21 -256 -19 c 0,20,21
 -256 -11 -256 -11 -250.5 -5.5 c 128,-1,22
 -245 0 -245 0 -237 0 c 2,23,-1
 -186 0 l 2,24,25
 -174 0 -174 0 -169 -11 c 2,26,-1
 26 -439 l 1,27,-1
 219 -11 l 2,28,29
 225 0 225 0 237 0 c 0,8,9
EndSplineSet
EndChar

StartChar: scripts.ulongfermata
Encoding: 57692 57692 116
Width: 320
Flags: W
LayerCount: 2
Fore
SplineSet
-69 68.5 m 128,-1,1
 -69 97 -69 97 -49 116.5 c 128,-1,2
 -29 136 -29 136 0 136 c 128,-1,3
 29 136 29 136 49 116.5 c 128,-1,4
 69 97 69 97 69 68.5 c 128,-1,5
 69 40 69 40 49 20 c 128,-1,6
 29 0 29 0 0 0 c 128,-1,7
 -29 0 -29 0 -49 20 c 128,-1,0
 -69 40 -69 40 -69 68.5 c 128,-1,1
-309 384 m 2,8,-1
 310 384 l 2,9,10
 320 384 320 384 321 374 c 1,11,-1
 321 19 l 2,12,13
 321 12 321 12 315 6 c 128,-1,14
 309 0 309 0 301 0 c 128,-1,15
 293 0 293 0 287.5 6 c 128,-1,16
 282 12 282 12 282 19 c 2,17,-1
 282 282 l 1,18,-1
 -282 282 l 1,19,-1
 -282 19 l 2,20,21
 -282 12 -282 12 -287.5 6 c 128,-1,22
 -293 0 -293 0 -301 0 c 0,23,24
 -308 0 -308 0 -313.5 5.5 c 128,-1,25
 -319 11 -319 11 -319 19 c 2,26,-1
 -319 374 l 2,27,28
 -319 384 -319 384 -309 384 c 2,8,-1
EndSplineSet
EndChar

StartChar: scripts.dlongfermata
Encoding: 57693 57693 117
Width: 320
Flags: W
LayerCount: 2
Fore
SplineSet
-69 -68.5 m 128,-1,1
 -69 -40 -69 -40 -49 -20 c 128,-1,2
 -29 0 -29 0 0 0 c 128,-1,3
 29 0 29 0 49 -20 c 128,-1,4
 69 -40 69 -40 69 -68.5 c 128,-1,5
 69 -97 69 -97 49 -116.5 c 128,-1,6
 29 -136 29 -136 0 -136 c 128,-1,7
 -29 -136 -29 -136 -49 -116.5 c 128,-1,0
 -69 -97 -69 -97 -69 -68.5 c 128,-1,1
-309 -384 m 2,8,9
 -319 -384 -319 -384 -319 -374 c 2,10,-1
 -319 -19 l 2,11,12
 -319 -11 -319 -11 -313.5 -5.5 c 128,-1,13
 -308 0 -308 0 -301 0 c 0,14,15
 -293 0 -293 0 -287.5 -6 c 128,-1,16
 -282 -12 -282 -12 -282 -19 c 2,17,-1
 -282 -282 l 1,18,-1
 282 -282 l 1,19,-1
 282 -19 l 2,20,21
 282 -12 282 -12 287.5 -6 c 128,-1,22
 293 0 293 0 301 0 c 128,-1,23
 309 0 309 0 315 -6 c 128,-1,24
 321 -12 321 -12 321 -19 c 2,25,-1
 321 -374 l 2,26,27
 321 -384 321 -384 310 -384 c 2,28,-1
 -309 -384 l 2,8,9
EndSplineSet
EndChar

StartChar: scripts.uverylongfermata
Encoding: 57694 57694 118
Width: 385
Flags: W
LayerCount: 2
Fore
SplineSet
-61 61.5 m 128,-1,1
 -61 87 -61 87 -43.5 105 c 128,-1,2
 -26 123 -26 123 0 123 c 128,-1,3
 26 123 26 123 43.5 105 c 128,-1,4
 61 87 61 87 61 61.5 c 128,-1,5
 61 36 61 36 43.5 18 c 128,-1,6
 26 0 26 0 0 0 c 128,-1,7
 -26 0 -26 0 -43.5 18 c 128,-1,0
 -61 36 -61 36 -61 61.5 c 128,-1,1
-246 230 m 2,8,-1
 246 230 l 2,9,10
 256 230 256 230 256 220 c 2,11,-1
 256 19 l 2,12,13
 256 12 256 12 250 6 c 128,-1,14
 244 0 244 0 236.5 0 c 128,-1,15
 229 0 229 0 223 6 c 128,-1,16
 217 12 217 12 217 19 c 2,17,-1
 217 154 l 1,18,-1
 -217 154 l 1,19,-1
 -217 19 l 2,20,21
 -217 12 -217 12 -223 6 c 128,-1,22
 -229 0 -229 0 -236.5 0 c 128,-1,23
 -244 0 -244 0 -250 6 c 128,-1,24
 -256 12 -256 12 -256 19 c 2,25,-1
 -256 220 l 2,26,27
 -256 230 -256 230 -246 230 c 2,8,-1
-374 410 m 2,28,-1
 374 410 l 2,29,30
 384 410 384 410 384 399 c 2,31,-1
 384 19 l 2,32,33
 384 12 384 12 378.5 6 c 128,-1,34
 373 0 373 0 364.5 0 c 128,-1,35
 356 0 356 0 350.5 6 c 128,-1,36
 345 12 345 12 345 19 c 2,37,-1
 345 282 l 1,38,-1
 -345 282 l 1,39,-1
 -345 19 l 2,40,41
 -345 12 -345 12 -350.5 6 c 128,-1,42
 -356 0 -356 0 -364.5 0 c 128,-1,43
 -373 0 -373 0 -378.5 6 c 128,-1,44
 -384 12 -384 12 -384 19 c 2,45,-1
 -384 399 l 2,46,47
 -384 410 -384 410 -374 410 c 2,28,-1
EndSplineSet
EndChar

StartChar: scripts.dverylongfermata
Encoding: 57695 57695 119
Width: 385
Flags: W
LayerCount: 2
Fore
SplineSet
-61 -61.5 m 128,-1,1
 -61 -36 -61 -36 -43.5 -18 c 128,-1,2
 -26 0 -26 0 0 0 c 128,-1,3
 26 0 26 0 43.5 -18 c 128,-1,4
 61 -36 61 -36 61 -61.5 c 128,-1,5
 61 -87 61 -87 43.5 -105 c 128,-1,6
 26 -123 26 -123 0 -123 c 128,-1,7
 -26 -123 -26 -123 -43.5 -105 c 128,-1,0
 -61 -87 -61 -87 -61 -61.5 c 128,-1,1
-246 -230 m 2,8,9
 -256 -230 -256 -230 -256 -220 c 2,10,-1
 -256 -19 l 2,11,12
 -256 -12 -256 -12 -250 -6 c 128,-1,13
 -244 0 -244 0 -236.5 0 c 128,-1,14
 -229 0 -229 0 -223 -6 c 128,-1,15
 -217 -12 -217 -12 -217 -19 c 2,16,-1
 -217 -154 l 1,17,-1
 217 -154 l 1,18,-1
 217 -19 l 2,19,20
 217 -12 217 -12 223 -6 c 128,-1,21
 229 0 229 0 236.5 0 c 128,-1,22
 244 0 244 0 250 -6 c 128,-1,23
 256 -12 256 -12 256 -19 c 2,24,-1
 256 -220 l 2,25,26
 256 -230 256 -230 246 -230 c 2,27,-1
 -246 -230 l 2,8,9
-374 -410 m 2,28,29
 -384 -410 -384 -410 -384 -399 c 2,30,-1
 -384 -19 l 2,31,32
 -384 -12 -384 -12 -378.5 -6 c 128,-1,33
 -373 0 -373 0 -364.5 0 c 128,-1,34
 -356 0 -356 0 -350.5 -6 c 128,-1,35
 -345 -12 -345 -12 -345 -19 c 2,36,-1
 -345 -282 l 1,37,-1
 345 -282 l 1,38,-1
 345 -19 l 2,39,40
 345 -12 345 -12 350.5 -6 c 128,-1,41
 356 0 356 0 364.5 0 c 128,-1,42
 373 0 373 0 378.5 -6 c 128,-1,43
 384 -12 384 -12 384 -19 c 2,44,-1
 384 -399 l 2,45,46
 384 -409 384 -409 374 -410 c 1,47,-1
 -374 -410 l 2,28,29
EndSplineSet
EndChar

StartChar: scripts.thumb
Encoding: 57696 57696 120
Width: 102
Flags: W
LayerCount: 2
Fore
SplineSet
22 -128 m 1,0,-1
 25 -180 l 2,1,2
 26 -190 26 -190 18 -197.5 c 128,-1,3
 10 -205 10 -205 0 -205 c 128,-1,4
 -10 -205 -10 -205 -18 -197.5 c 128,-1,5
 -26 -190 -26 -190 -25 -180 c 2,6,-1
 -22 -128 l 1,7,-1
 -22 -126 l 1,8,9
 -59 -117 -59 -117 -80.5 -81 c 128,-1,10
 -102 -45 -102 -45 -102 0 c 0,11,12
 -102 52 -102 52 -73.5 90 c 128,-1,13
 -45 128 -45 128 0 128 c 128,-1,14
 45 128 45 128 73.5 90 c 128,-1,15
 102 52 102 52 102 0 c 0,16,17
 102 -45 102 -45 80 -81 c 128,-1,18
 58 -117 58 -117 22 -126 c 1,19,-1
 22 -128 l 1,0,-1
49 0 m 128,-1,21
 49 97 49 97 0 97 c 0,22,23
 -48 97 -48 97 -48 0 c 128,-1,24
 -48 -97 -48 -97 0 -97 c 0,25,20
 49 -97 49 -97 49 0 c 128,-1,21
EndSplineSet
EndChar

StartChar: scripts.sforzato
Encoding: 57697 57697 121
Width: 230
Flags: W
LayerCount: 2
Fore
SplineSet
-216 90 m 2,0,1
 -230 94 -230 94 -230 109 c 0,2,3
 -230 117 -230 117 -224.5 122.5 c 128,-1,4
 -219 128 -219 128 -211 128 c 0,5,6
 -210 128 -210 128 -209 127 c 1,7,-1
 -207 127 l 1,8,-1
 211 19 l 1,9,10
 230 19 230 19 230 0 c 128,-1,11
 230 -19 230 -19 211 -19 c 1,12,-1
 -207 -127 l 1,13,-1
 -209 -127 l 1,14,15
 -210 -128 -210 -128 -211 -128 c 0,16,17
 -219 -128 -219 -128 -224.5 -122.5 c 128,-1,18
 -230 -117 -230 -117 -230 -109 c 0,19,20
 -230 -95 -230 -95 -216 -90 c 1,21,-1
 41 -24 l 1,22,-1
 184 0 l 1,23,-1
 41 24 l 1,24,-1
 -216 90 l 2,0,1
EndSplineSet
EndChar

StartChar: scripts.espr
Encoding: 57698 57698 122
Width: 487
Flags: W
LayerCount: 2
Fore
SplineSet
-45 90 m 2,0,-1
 -299 24 l 1,1,-1
 -444 0 l 1,2,-1
 -299 -24 l 1,3,-1
 -45 -90 l 2,4,5
 -31 -94 -31 -94 -31 -109 c 0,6,7
 -31 -117 -31 -117 -37 -122.5 c 128,-1,8
 -43 -128 -43 -128 -50 -128 c 0,9,10
 -51 -128 -51 -128 -52 -127.5 c 128,-1,11
 -53 -127 -53 -127 -54 -127 c 2,12,-1
 -467 -19 l 1,13,14
 -486 -19 -486 -19 -486 0 c 128,-1,15
 -486 19 -486 19 -467 19 c 1,16,-1
 -54 127 l 1,17,-1
 -53 127 l 1,18,19
 -51 128 -51 128 -50 128 c 0,20,21
 -42 128 -42 128 -36.5 122.5 c 128,-1,22
 -31 117 -31 117 -31 109 c 0,23,24
 -31 94 -31 94 -45 90 c 2,0,-1
45 90 m 2,25,26
 31 94 31 94 31 109 c 0,27,28
 31 117 31 117 36.5 122.5 c 128,-1,29
 42 128 42 128 50 128 c 0,30,31
 51 128 51 128 53 127 c 1,32,-1
 54 127 l 1,33,-1
 467 19 l 1,34,35
 486 19 486 19 486 0 c 128,-1,36
 486 -19 486 -19 467 -19 c 1,37,-1
 54 -127 l 2,38,39
 53 -127 53 -127 52 -127.5 c 128,-1,40
 51 -128 51 -128 50 -128 c 0,41,42
 43 -128 43 -128 37 -122.5 c 128,-1,43
 31 -117 31 -117 31 -109 c 0,44,45
 31 -95 31 -95 45 -90 c 1,46,-1
 299 -24 l 1,47,-1
 444 0 l 1,48,-1
 299 24 l 1,49,-1
 45 90 l 2,25,26
EndSplineSet
EndChar

StartChar: scripts.staccato
Encoding: 57699 57699 123
Width: 51
Flags: W
LayerCount: 2
Fore
SplineSet
-51 0 m 128,-1,1
 -51 22 -51 22 -36.5 36.5 c 128,-1,2
 -22 51 -22 51 0 51 c 128,-1,3
 22 51 22 51 36.5 36.5 c 128,-1,4
 51 22 51 22 51 0 c 128,-1,5
 51 -22 51 -22 36.5 -36.5 c 128,-1,6
 22 -51 22 -51 0 -51 c 128,-1,7
 -22 -51 -22 -51 -36.5 -36.5 c 128,-1,0
 -51 -22 -51 -22 -51 0 c 128,-1,1
EndSplineSet
EndChar

StartChar: scripts.ustaccatissimo
Encoding: 57700 57700 124
Width: 51
Flags: W
LayerCount: 2
Fore
SplineSet
-13 0 m 2,0,-1
 -51 205 l 2,1,2
 -51 206 -51 206 -51.5 208.5 c 128,-1,3
 -52 211 -52 211 -52 212 c 0,4,5
 -52 230 -52 230 -37 243 c 128,-1,6
 -22 256 -22 256 0 256 c 128,-1,7
 22 256 22 256 37 243 c 128,-1,8
 52 230 52 230 52 212 c 0,9,10
 52 211 52 211 51.5 208.5 c 128,-1,11
 51 206 51 206 51 205 c 2,12,-1
 13 0 l 2,13,14
 11 -13 11 -13 0 -13 c 128,-1,15
 -11 -13 -11 -13 -13 0 c 2,0,-1
EndSplineSet
EndChar

StartChar: scripts.dstaccatissimo
Encoding: 57701 57701 125
Width: 51
Flags: W
LayerCount: 2
Fore
SplineSet
-13 0 m 2,0,1
 -11 13 -11 13 0 13 c 128,-1,2
 11 13 11 13 13 0 c 2,3,-1
 51 -205 l 2,4,5
 51 -206 51 -206 51.5 -208.5 c 128,-1,6
 52 -211 52 -211 52 -212 c 0,7,8
 52 -230 52 -230 37 -243 c 128,-1,9
 22 -256 22 -256 0 -256 c 128,-1,10
 -22 -256 -22 -256 -37 -243 c 128,-1,11
 -52 -230 -52 -230 -52 -212 c 0,12,13
 -52 -211 -52 -211 -51.5 -208.5 c 128,-1,14
 -51 -206 -51 -206 -51 -205 c 2,15,-1
 -13 0 l 2,0,1
EndSplineSet
EndChar

StartChar: scripts.tenuto
Encoding: 57702 57702 126
Width: 153
Flags: W
LayerCount: 2
Fore
SplineSet
133 -20 m 2,0,-1
 -133 -20 l 2,1,2
 -141 -20 -141 -20 -147.5 -14 c 128,-1,3
 -154 -8 -154 -8 -154 0 c 128,-1,4
 -154 8 -154 8 -147.5 14 c 128,-1,5
 -141 20 -141 20 -133 20 c 2,6,-1
 133 20 l 2,7,8
 141 20 141 20 147.5 14 c 128,-1,9
 154 8 154 8 154 0 c 128,-1,10
 154 -8 154 -8 147.5 -14 c 128,-1,11
 141 -20 141 -20 133 -20 c 2,0,-1
EndSplineSet
EndChar

StartChar: scripts.uportato
Encoding: 57703 57703 127
Width: 153
Flags: W
LayerCount: 2
Fore
SplineSet
-41 169 m 128,-1,1
 -41 186 -41 186 -28.5 198 c 128,-1,2
 -16 210 -16 210 0 210 c 128,-1,3
 16 210 16 210 28.5 198 c 128,-1,4
 41 186 41 186 41 169 c 128,-1,5
 41 152 41 152 28.5 140 c 128,-1,6
 16 128 16 128 0 128 c 128,-1,7
 -16 128 -16 128 -28.5 140 c 128,-1,0
 -41 152 -41 152 -41 169 c 128,-1,1
135 -18 m 2,8,-1
 -135 -18 l 2,9,10
 -143 -18 -143 -18 -148.5 -13 c 128,-1,11
 -154 -8 -154 -8 -154 0 c 128,-1,12
 -154 8 -154 8 -148.5 13 c 128,-1,13
 -143 18 -143 18 -135 18 c 2,14,-1
 135 18 l 2,15,16
 143 18 143 18 148.5 13 c 128,-1,17
 154 8 154 8 154 0 c 128,-1,18
 154 -8 154 -8 148.5 -13 c 128,-1,19
 143 -18 143 -18 135 -18 c 2,8,-1
EndSplineSet
EndChar

StartChar: scripts.dportato
Encoding: 57704 57704 128
Width: 153
Flags: W
LayerCount: 2
Fore
SplineSet
-41 -169 m 128,-1,1
 -41 -152 -41 -152 -28.5 -140 c 128,-1,2
 -16 -128 -16 -128 0 -128 c 128,-1,3
 16 -128 16 -128 28.5 -140 c 128,-1,4
 41 -152 41 -152 41 -169 c 128,-1,5
 41 -186 41 -186 28.5 -198 c 128,-1,6
 16 -210 16 -210 0 -210 c 128,-1,7
 -16 -210 -16 -210 -28.5 -198 c 128,-1,0
 -41 -186 -41 -186 -41 -169 c 128,-1,1
135 18 m 2,8,9
 143 18 143 18 148.5 13 c 128,-1,10
 154 8 154 8 154 0 c 128,-1,11
 154 -8 154 -8 148.5 -13 c 128,-1,12
 143 -18 143 -18 135 -18 c 2,13,-1
 -135 -18 l 2,14,15
 -143 -18 -143 -18 -148.5 -13 c 128,-1,16
 -154 -8 -154 -8 -154 0 c 128,-1,17
 -154 8 -154 8 -148.5 13 c 128,-1,18
 -143 18 -143 18 -135 18 c 2,19,-1
 135 18 l 2,8,9
EndSplineSet
EndChar

StartChar: scripts.umarcato
Encoding: 57705 57705 129
Width: 128
Flags: W
LayerCount: 2
Fore
SplineSet
-115 0 m 0,0,1
 -128 0 -128 0 -128 12 c 0,2,3
 -128 16 -128 16 -127 18 c 2,4,-1
 -11 274 l 2,5,6
 -8 281 -8 281 0 281.5 c 128,-1,7
 8 282 8 282 11 274 c 2,8,-1
 127 18 l 2,9,10
 128 16 128 16 128 12 c 0,11,12
 128 0 128 0 115 0 c 2,13,-1
 47 0 l 2,14,15
 39 0 39 0 35 7 c 2,16,-1
 -35 161 l 1,17,-1
 -103 7 l 2,18,19
 -107 0 -107 0 -115 0 c 0,0,1
EndSplineSet
EndChar

StartChar: scripts.dmarcato
Encoding: 57706 57706 130
Width: 128
Flags: W
LayerCount: 2
Fore
SplineSet
115 0 m 0,0,1
 128 0 128 0 128 -12 c 0,2,3
 128 -16 128 -16 127 -18 c 2,4,-1
 11 -274 l 2,5,6
 8 -281 8 -281 0 -281.5 c 128,-1,7
 -8 -282 -8 -282 -11 -274 c 2,8,-1
 -127 -18 l 2,9,10
 -128 -16 -128 -16 -128 -12 c 0,11,12
 -128 0 -128 0 -115 0 c 2,13,-1
 -47 0 l 2,14,15
 -39 0 -39 0 -35 -7 c 2,16,-1
 35 -161 l 1,17,-1
 103 -7 l 2,18,19
 107 0 107 0 115 0 c 0,0,1
EndSplineSet
EndChar

StartChar: scripts.open
Encoding: 57707 57707 131
Width: 102
Flags: W
LayerCount: 2
Fore
SplineSet
102 0 m 128,-1,1
 102 -52 102 -52 73.5 -90 c 128,-1,2
 45 -128 45 -128 0 -128 c 128,-1,3
 -45 -128 -45 -128 -73.5 -90 c 128,-1,4
 -102 -52 -102 -52 -102 0 c 128,-1,5
 -102 52 -102 52 -73.5 90 c 128,-1,6
 -45 128 -45 128 0 128 c 128,-1,7
 45 128 45 128 73.5 90 c 128,-1,0
 102 52 102 52 102 0 c 128,-1,1
58 0 m 128,-1,9
 58 40 58 40 44 68.5 c 128,-1,10
 30 97 30 97 0 97 c 128,-1,11
 -30 97 -30 97 -44 68.5 c 128,-1,12
 -58 40 -58 40 -58 0 c 128,-1,13
 -58 -40 -58 -40 -44 -68.5 c 128,-1,14
 -30 -97 -30 -97 0 -97 c 128,-1,15
 30 -97 30 -97 44 -68.5 c 128,-1,8
 58 -40 58 -40 58 0 c 128,-1,9
EndSplineSet
EndChar

StartChar: scripts.stopped
Encoding: 57708 57708 132
Width: 141
Flags: W
LayerCount: 2
Fore
SplineSet
0 -141 m 128,-1,1
 -10 -141 -10 -141 -18 -133.5 c 128,-1,2
 -26 -126 -26 -126 -26 -115 c 2,3,-1
 -26 -26 l 1,4,-1
 -115 -26 l 2,5,6
 -126 -26 -126 -26 -133.5 -18 c 128,-1,7
 -141 -10 -141 -10 -141 0 c 128,-1,8
 -141 10 -141 10 -133.5 18 c 128,-1,9
 -126 26 -126 26 -115 26 c 2,10,-1
 -26 26 l 1,11,-1
 -26 115 l 2,12,13
 -26 126 -26 126 -18 133.5 c 128,-1,14
 -10 141 -10 141 0 141 c 128,-1,15
 10 141 10 141 18 133.5 c 128,-1,16
 26 126 26 126 26 115 c 2,17,-1
 26 26 l 1,18,-1
 115 26 l 2,19,20
 126 26 126 26 133.5 18 c 128,-1,21
 141 10 141 10 141 0 c 128,-1,22
 141 -10 141 -10 133.5 -18 c 128,-1,23
 126 -26 126 -26 115 -26 c 2,24,-1
 26 -26 l 1,25,-1
 26 -115 l 2,26,27
 26 -126 26 -126 18 -133.5 c 128,-1,0
 10 -141 10 -141 0 -141 c 128,-1,1
EndSplineSet
EndChar

StartChar: scripts.upbow
Encoding: 57709 57709 133
Width: 166
Flags: W
LayerCount: 2
Fore
SplineSet
131 520 m 2,0,1
 134 532 134 532 148 532 c 0,2,3
 155 532 155 532 161 527 c 128,-1,4
 167 522 167 522 167 514 c 0,5,6
 167 513 167 513 166.5 511.5 c 128,-1,7
 166 510 166 510 166 509 c 2,8,-1
 18 18 l 1,9,10
 18 0 18 0 0 0 c 128,-1,11
 -18 0 -18 0 -18 18 c 1,12,-1
 -166 509 l 1,13,-1
 -166 514 l 2,14,15
 -166 532 -166 532 -148 532 c 0,16,17
 -134 532 -134 532 -131 520 c 2,18,-1
 -41 218 l 1,19,-1
 0 50 l 1,20,-1
 41 218 l 1,21,-1
 131 520 l 2,0,1
EndSplineSet
EndChar

StartChar: scripts.downbow
Encoding: 57710 57710 134
Width: 192
Flags: W
LayerCount: 2
Fore
SplineSet
-182 341 m 2,0,-1
 182 341 l 2,1,2
 192 341 192 341 193 331 c 1,3,-1
 193 15 l 2,4,5
 193 9 193 9 188 4.5 c 128,-1,6
 183 0 183 0 177 0 c 128,-1,7
 171 0 171 0 166 4.5 c 128,-1,8
 161 9 161 9 161 15 c 2,9,-1
 161 205 l 1,10,-1
 -161 205 l 1,11,-1
 -161 15 l 2,12,13
 -161 9 -161 9 -165.5 4.5 c 128,-1,14
 -170 0 -170 0 -176 0 c 128,-1,15
 -182 0 -182 0 -187.5 4.5 c 128,-1,16
 -193 9 -193 9 -193 15 c 2,17,-1
 -193 331 l 1,18,19
 -192 341 -192 341 -182 341 c 2,0,-1
EndSplineSet
EndChar

StartChar: scripts.reverseturn
Encoding: 57711 57711 135
Width: 280
Flags: W
LayerCount: 2
Fore
SplineSet
142 135 m 0,0,1
 199 135 199 135 239.5 95.5 c 128,-1,2
 280 56 280 56 280 0 c 0,3,4
 280 -55 280 -55 246.5 -95 c 128,-1,5
 213 -135 213 -135 163 -135 c 0,6,7
 135 -135 135 -135 114 -119.5 c 128,-1,8
 93 -104 93 -104 93 -81 c 0,9,10
 93 -56 93 -56 109 -41.5 c 128,-1,11
 125 -27 125 -27 148 -27 c 0,12,13
 184 -27 184 -27 198 -58 c 1,14,15
 220 -55 220 -55 234.5 -39.5 c 128,-1,16
 249 -24 249 -24 249 0 c 128,-1,17
 249 24 249 24 230.5 39.5 c 128,-1,18
 212 55 212 55 186 55 c 0,19,20
 153 55 153 55 120 35.5 c 128,-1,21
 87 16 87 16 58 -12 c 128,-1,22
 29 -40 29 -40 -1 -68 c 128,-1,23
 -31 -96 -31 -96 -67.5 -115.5 c 128,-1,24
 -104 -135 -104 -135 -142 -135 c 0,25,26
 -199 -135 -199 -135 -239.5 -95.5 c 128,-1,27
 -280 -56 -280 -56 -280 0 c 0,28,29
 -280 55 -280 55 -246.5 95 c 128,-1,30
 -213 135 -213 135 -163 135 c 0,31,32
 -135 135 -135 135 -114 119.5 c 128,-1,33
 -93 104 -93 104 -93 81 c 0,34,35
 -93 56 -93 56 -109 41.5 c 128,-1,36
 -125 27 -125 27 -148 27 c 0,37,38
 -184 27 -184 27 -198 58 c 1,39,40
 -220 55 -220 55 -234.5 39.5 c 128,-1,41
 -249 24 -249 24 -249 0 c 128,-1,42
 -249 -24 -249 -24 -230.5 -39.5 c 128,-1,43
 -212 -55 -212 -55 -186 -55 c 0,44,45
 -153 -55 -153 -55 -120 -35.5 c 128,-1,46
 -87 -16 -87 -16 -58 12 c 128,-1,47
 -29 40 -29 40 1 68 c 128,-1,48
 31 96 31 96 67.5 115.5 c 128,-1,49
 104 135 104 135 142 135 c 0,0,1
EndSplineSet
EndChar

StartChar: scripts.turn
Encoding: 57712 57712 136
Width: 280
Flags: W
LayerCount: 2
Fore
SplineSet
142 -135 m 0,0,1
 104 -135 104 -135 67.5 -115.5 c 128,-1,2
 31 -96 31 -96 1 -68 c 128,-1,3
 -29 -40 -29 -40 -58 -12 c 128,-1,4
 -87 16 -87 16 -120.5 35.5 c 128,-1,5
 -154 55 -154 55 -186 55 c 0,6,7
 -212 55 -212 55 -230.5 39.5 c 128,-1,8
 -249 24 -249 24 -249 0 c 128,-1,9
 -249 -24 -249 -24 -234 -39.5 c 128,-1,10
 -219 -55 -219 -55 -198 -58 c 1,11,12
 -185 -26 -185 -26 -148 -27 c 0,13,14
 -124 -27 -124 -27 -108.5 -41.5 c 128,-1,15
 -93 -56 -93 -56 -93 -81 c 0,16,17
 -93 -105 -93 -105 -114 -120 c 128,-1,18
 -135 -135 -135 -135 -163 -135 c 0,19,20
 -213 -135 -213 -135 -246.5 -95 c 128,-1,21
 -280 -55 -280 -55 -280 0 c 0,22,23
 -280 56 -280 56 -240 95.5 c 128,-1,24
 -200 135 -200 135 -142 135 c 0,25,26
 -104 135 -104 135 -67.5 115.5 c 128,-1,27
 -31 96 -31 96 -1 68 c 128,-1,28
 29 40 29 40 58 12 c 128,-1,29
 87 -16 87 -16 120.5 -35.5 c 128,-1,30
 154 -55 154 -55 186 -55 c 0,31,32
 212 -55 212 -55 230.5 -39.5 c 128,-1,33
 249 -24 249 -24 249 0 c 128,-1,34
 249 24 249 24 234 39.5 c 128,-1,35
 219 55 219 55 198 58 c 1,36,37
 185 26 185 26 148 27 c 0,38,39
 124 27 124 27 108.5 41.5 c 128,-1,40
 93 56 93 56 93 81 c 0,41,42
 93 105 93 105 114 120 c 128,-1,43
 135 135 135 135 163 135 c 0,44,45
 213 135 213 135 246.5 95 c 128,-1,46
 280 55 280 55 280 0 c 0,47,48
 280 -56 280 -56 239.5 -95.5 c 128,-1,49
 199 -135 199 -135 142 -135 c 0,0,1
EndSplineSet
EndChar

StartChar: scripts.trill
Encoding: 57713 57713 137
Width: 218
Flags: W
LayerCount: 2
Fore
SplineSet
-330 228 m 0,0,1
 -330 262 -330 262 -302.5 286 c 128,-1,2
 -275 310 -275 310 -231 310 c 0,3,4
 -188 310 -188 310 -147 285 c 1,5,-1
 -100 522 l 1,6,7
 -90 517 -90 517 -80 517 c 0,8,9
 -48 517 -48 517 -10 553 c 1,10,-1
 -65 281 l 1,11,-1
 1 317 l 2,12,13
 39 337 39 337 77 338 c 1,14,15
 125 338 125 338 142 309 c 1,16,17
 170 340 170 340 213 340 c 0,18,19
 243 340 243 340 263.5 321.5 c 128,-1,20
 284 303 284 303 284 269 c 0,21,22
 284 233 284 233 264.5 205 c 128,-1,23
 245 177 245 177 217 177 c 0,24,25
 199 177 199 177 188.5 191 c 128,-1,26
 178 205 178 205 178 226 c 0,27,28
 178 261 178 261 198 276.5 c 128,-1,29
 218 292 218 292 240 292 c 2,30,-1
 243 292 l 1,31,32
 232 312 232 312 204 312 c 0,33,34
 185 312 185 312 168.5 300 c 128,-1,35
 152 288 152 288 147 268 c 2,36,-1
 92 -8 l 1,37,38
 75 3 75 3 53.5 3 c 128,-1,39
 32 3 32 3 9 -8 c 1,40,-1
 65 268 l 1,41,-1
 65 275 l 2,42,43
 65 302 65 302 35 302 c 0,44,45
 25 302 25 302 10 295 c 1,46,-1
 -71 250 l 1,47,-1
 -78 218 l 1,48,49
 -27 160 -27 160 -27 106 c 0,50,51
 -27 61 -27 61 -57 25 c 128,-1,52
 -87 -11 -87 -11 -127 -11 c 0,53,54
 -156 -11 -156 -11 -170 16 c 128,-1,55
 -184 43 -184 43 -184 82 c 0,56,57
 -184 107 -184 107 -180 124 c 2,58,-1
 -165 202 l 1,59,60
 -226 176 -226 176 -268 176 c 0,61,62
 -302 176 -302 176 -316 192 c 128,-1,63
 -330 208 -330 208 -330 228 c 0,0,1
-304 232 m 0,64,65
 -304 201 -304 201 -264 202 c 1,66,67
 -222 202 -222 202 -159 230 c 1,68,-1
 -154 255 l 1,69,70
 -194 285 -194 285 -237 285 c 0,71,72
 -272 285 -272 285 -288 268 c 128,-1,73
 -304 251 -304 251 -304 232 c 0,64,65
-88 40 m 0,74,75
 -72 40 -72 40 -62 60 c 128,-1,76
 -52 80 -52 80 -52 102 c 0,77,78
 -52 140 -52 140 -85 182 c 1,79,-1
 -90 155 l 1,80,81
 -103 95 -103 95 -103 70 c 0,82,83
 -103 40 -103 40 -88 40 c 0,74,75
EndSplineSet
EndChar

StartChar: scripts.upedalheel
Encoding: 57714 57714 138
Width: 128
Flags: W
LayerCount: 2
Fore
SplineSet
0 -89 m 128,-1,1
 37 -89 37 -89 63 -63 c 128,-1,2
 89 -37 89 -37 89 0 c 2,3,-1
 89 152 l 2,4,5
 89 160 89 160 94.5 165.5 c 128,-1,6
 100 171 100 171 108.5 171 c 128,-1,7
 117 171 117 171 122.5 165.5 c 128,-1,8
 128 160 128 160 128 152 c 2,9,-1
 128 0 l 2,10,11
 128 -53 128 -53 90.5 -90.5 c 128,-1,12
 53 -128 53 -128 0 -128 c 128,-1,13
 -53 -128 -53 -128 -90.5 -90.5 c 128,-1,14
 -128 -53 -128 -53 -128 0 c 2,15,-1
 -128 152 l 2,16,17
 -128 160 -128 160 -122.5 165.5 c 128,-1,18
 -117 171 -117 171 -108.5 171 c 128,-1,19
 -100 171 -100 171 -94.5 165.5 c 128,-1,20
 -89 160 -89 160 -89 152 c 2,21,-1
 -89 0 l 2,22,23
 -89 -37 -89 -37 -63 -63 c 128,-1,0
 -37 -89 -37 -89 0 -89 c 128,-1,1
EndSplineSet
EndChar

StartChar: scripts.dpedalheel
Encoding: 57715 57715 139
Width: 128
Flags: W
LayerCount: 2
Fore
SplineSet
0 89 m 128,-1,1
 -37 89 -37 89 -63 63 c 128,-1,2
 -89 37 -89 37 -89 0 c 2,3,-1
 -89 -152 l 2,4,5
 -89 -160 -89 -160 -94.5 -165.5 c 128,-1,6
 -100 -171 -100 -171 -108.5 -171 c 128,-1,7
 -117 -171 -117 -171 -122.5 -165.5 c 128,-1,8
 -128 -160 -128 -160 -128 -152 c 2,9,-1
 -128 0 l 2,10,11
 -128 53 -128 53 -90.5 90.5 c 128,-1,12
 -53 128 -53 128 0 128 c 128,-1,13
 53 128 53 128 90.5 90.5 c 128,-1,14
 128 53 128 53 128 0 c 2,15,-1
 128 -152 l 2,16,17
 128 -160 128 -160 122.5 -165.5 c 128,-1,18
 117 -171 117 -171 108.5 -171 c 128,-1,19
 100 -171 100 -171 94.5 -165.5 c 128,-1,20
 89 -160 89 -160 89 -152 c 2,21,-1
 89 0 l 2,22,23
 89 37 89 37 63 63 c 128,-1,0
 37 89 37 89 0 89 c 128,-1,1
EndSplineSet
EndChar

StartChar: scripts.upedaltoe
Encoding: 57716 57716 140
Width: 128
Flags: W
LayerCount: 2
Fore
SplineSet
90 371 m 1,0,1
 93 384 93 384 109 384 c 0,2,3
 117 384 117 384 122.5 378.5 c 128,-1,4
 128 373 128 373 128 365 c 0,5,6
 128 362 128 362 127 359 c 2,7,-1
 19 19 l 1,8,9
 19 0 19 0 0 0 c 128,-1,10
 -19 0 -19 0 -19 19 c 1,11,-1
 -127 359 l 2,12,13
 -128 361 -128 361 -128 365 c 0,14,15
 -128 373 -128 373 -122.5 378.5 c 128,-1,16
 -117 384 -117 384 -109 384 c 0,17,18
 -94 384 -94 384 -90 371 c 2,19,-1
 -24 160 l 1,20,-1
 0 54 l 1,21,-1
 24 160 l 1,22,-1
 90 371 l 1,0,1
EndSplineSet
EndChar

StartChar: scripts.dpedaltoe
Encoding: 57717 57717 141
Width: 128
Flags: W
LayerCount: 2
Fore
SplineSet
90 -371 m 1,0,-1
 24 -160 l 1,1,-1
 0 -54 l 1,2,-1
 -24 -160 l 1,3,-1
 -90 -371 l 1,4,5
 -93 -384 -93 -384 -109 -384 c 0,6,7
 -117 -384 -117 -384 -122.5 -378.5 c 128,-1,8
 -128 -373 -128 -373 -128 -365 c 0,9,10
 -128 -362 -128 -362 -127 -359 c 2,11,-1
 -19 -19 l 1,12,13
 -19 0 -19 0 0 0 c 128,-1,14
 19 0 19 0 19 -19 c 1,15,-1
 127 -359 l 2,16,17
 128 -361 128 -361 128 -365 c 0,18,19
 128 -373 128 -373 122.5 -378.5 c 128,-1,20
 117 -384 117 -384 109 -384 c 0,21,22
 93 -384 93 -384 90 -371 c 1,0,-1
EndSplineSet
EndChar

StartChar: scripts.flageolet
Encoding: 57718 57718 142
Width: 136
Flags: W
LayerCount: 2
Fore
SplineSet
0 136 m 128,-1,1
 57 136 57 136 96.5 96.5 c 128,-1,2
 136 57 136 57 136 0 c 128,-1,3
 136 -57 136 -57 96.5 -96.5 c 128,-1,4
 57 -136 57 -136 0 -136 c 128,-1,5
 -57 -136 -57 -136 -96.5 -96.5 c 128,-1,6
 -136 -57 -136 -57 -136 0 c 128,-1,7
 -136 57 -136 57 -96.5 96.5 c 128,-1,0
 -57 136 -57 136 0 136 c 128,-1,1
0 116 m 128,-1,9
 -48 116 -48 116 -82 82 c 128,-1,10
 -116 48 -116 48 -116 0 c 128,-1,11
 -116 -48 -116 -48 -82 -82 c 128,-1,12
 -48 -116 -48 -116 0 -116 c 128,-1,13
 48 -116 48 -116 82 -82 c 128,-1,14
 116 -48 116 -48 116 0 c 128,-1,15
 116 48 116 48 82 82 c 128,-1,8
 48 116 48 116 0 116 c 128,-1,9
EndSplineSet
EndChar

StartChar: scripts.segno
Encoding: 57719 57719 143
Width: 256
Flags: W
LayerCount: 2
Fore
SplineSet
-207 -51.5 m 128,-1,1
 -207 -38 -207 -38 -198 -29 c 128,-1,2
 -189 -20 -189 -20 -176 -20 c 128,-1,3
 -163 -20 -163 -20 -154 -29 c 128,-1,4
 -145 -38 -145 -38 -145 -51.5 c 128,-1,5
 -145 -65 -145 -65 -154 -73.5 c 128,-1,6
 -163 -82 -163 -82 -176 -82 c 128,-1,7
 -189 -82 -189 -82 -198 -73.5 c 128,-1,0
 -207 -65 -207 -65 -207 -51.5 c 128,-1,1
145 51.5 m 128,-1,9
 145 65 145 65 154 73.5 c 128,-1,10
 163 82 163 82 176 82 c 128,-1,11
 189 82 189 82 198 73.5 c 128,-1,12
 207 65 207 65 207 51.5 c 128,-1,13
 207 38 207 38 198 29 c 128,-1,14
 189 20 189 20 176 20 c 128,-1,15
 163 20 163 20 154 29 c 128,-1,8
 145 38 145 38 145 51.5 c 128,-1,9
-36 -232 m 0,16,17
 -36 -172 -36 -172 19 -172 c 0,18,19
 48 -172 48 -172 63.5 -191 c 128,-1,20
 79 -210 79 -210 79 -236 c 0,21,22
 79 -258 79 -258 67.5 -276 c 128,-1,23
 56 -294 56 -294 38 -301 c 1,24,25
 44 -324 44 -324 64 -338.5 c 128,-1,26
 84 -353 84 -353 109 -353 c 0,27,28
 138 -353 138 -353 157 -330.5 c 128,-1,29
 176 -308 176 -308 176 -276 c 0,30,31
 176 -153 176 -153 0 -52 c 1,32,-1
 -195 -384 l 1,33,-1
 -256 -384 l 1,34,-1
 -47 -27 l 1,35,36
 -143 26 -143 26 -199.5 85.5 c 128,-1,37
 -256 145 -256 145 -256 224 c 0,38,39
 -256 291 -256 291 -213 337.5 c 128,-1,40
 -170 384 -170 384 -109 384 c 0,41,42
 -49 384 -49 384 -6.5 339.5 c 128,-1,43
 36 295 36 295 36 232 c 0,44,45
 36 172 36 172 -19 172 c 0,46,47
 -48 172 -48 172 -63.5 191 c 128,-1,48
 -79 210 -79 210 -79 236 c 0,49,50
 -79 258 -79 258 -67.5 276 c 128,-1,51
 -56 294 -56 294 -38 301 c 1,52,53
 -44 324 -44 324 -64 338.5 c 128,-1,54
 -84 353 -84 353 -109 353 c 0,55,56
 -138 353 -138 353 -157 330.5 c 128,-1,57
 -176 308 -176 308 -176 276 c 0,58,59
 -176 153 -176 153 0 52 c 1,60,-1
 195 384 l 1,61,-1
 256 384 l 1,62,-1
 47 27 l 1,63,64
 143 -26 143 -26 199.5 -85.5 c 128,-1,65
 256 -145 256 -145 256 -224 c 0,66,67
 256 -291 256 -291 213 -337.5 c 128,-1,68
 170 -384 170 -384 109 -384 c 0,69,70
 49 -384 49 -384 6.5 -339 c 128,-1,71
 -36 -294 -36 -294 -36 -232 c 0,16,17
EndSplineSet
EndChar

StartChar: scripts.coda
Encoding: 57720 57720 144
Width: 261
Flags: W
LayerCount: 2
Fore
SplineSet
15 -346 m 2,0,1
 15 -352 15 -352 10.5 -356.5 c 128,-1,2
 6 -361 6 -361 0 -361 c 128,-1,3
 -6 -361 -6 -361 -10.5 -356.5 c 128,-1,4
 -15 -352 -15 -352 -15 -346 c 2,5,-1
 -15 -255 l 1,6,7
 -86 -248 -86 -248 -126.5 -179 c 128,-1,8
 -167 -110 -167 -110 -170 -15 c 1,9,-1
 -260 -15 l 2,10,11
 -266 -15 -266 -15 -270.5 -10.5 c 128,-1,12
 -275 -6 -275 -6 -275 0 c 128,-1,13
 -275 6 -275 6 -270.5 10.5 c 128,-1,14
 -266 15 -266 15 -260 15 c 2,15,-1
 -170 15 l 1,16,17
 -167 109 -167 109 -126.5 178.5 c 128,-1,18
 -86 248 -86 248 -15 255 c 1,19,-1
 -15 346 l 2,20,21
 -15 352 -15 352 -10.5 356.5 c 128,-1,22
 -6 361 -6 361 0 361 c 128,-1,23
 6 361 6 361 10.5 356.5 c 128,-1,24
 15 352 15 352 15 346 c 2,25,-1
 15 255 l 1,26,27
 86 248 86 248 126.5 179 c 128,-1,28
 167 110 167 110 170 15 c 1,29,-1
 260 15 l 2,30,31
 266 15 266 15 270.5 10.5 c 128,-1,32
 275 6 275 6 275 0 c 128,-1,33
 275 -6 275 -6 270.5 -10.5 c 128,-1,34
 266 -15 266 -15 260 -15 c 2,35,-1
 170 -15 l 1,36,37
 167 -109 167 -109 126.5 -178.5 c 128,-1,38
 86 -248 86 -248 15 -255 c 1,39,-1
 15 -346 l 2,0,1
15 15 m 1,40,-1
 95 15 l 1,41,42
 95 58 95 58 92 87.5 c 128,-1,43
 89 117 89 117 82 149.5 c 128,-1,44
 75 182 75 182 58 201 c 128,-1,45
 41 220 41 220 15 224 c 1,46,-1
 15 15 l 1,40,-1
15 -15 m 1,47,-1
 15 -224 l 1,48,49
 41 -220 41 -220 58 -201 c 128,-1,50
 75 -182 75 -182 82 -149.5 c 128,-1,51
 89 -117 89 -117 92 -87.5 c 128,-1,52
 95 -58 95 -58 95 -15 c 1,53,-1
 15 -15 l 1,47,-1
-15 15 m 1,54,-1
 -15 224 l 1,55,56
 -41 220 -41 220 -58 201 c 128,-1,57
 -75 182 -75 182 -82 149.5 c 128,-1,58
 -89 117 -89 117 -92 87.5 c 128,-1,59
 -95 58 -95 58 -95 15 c 1,60,-1
 -15 15 l 1,54,-1
-15 -15 m 1,61,-1
 -95 -15 l 1,62,63
 -95 -58 -95 -58 -92 -87.5 c 128,-1,64
 -89 -117 -89 -117 -82 -149.5 c 128,-1,65
 -75 -182 -75 -182 -58 -201 c 128,-1,66
 -41 -220 -41 -220 -15 -224 c 1,67,-1
 -15 -15 l 1,61,-1
EndSplineSet
EndChar

StartChar: scripts.varcoda
Encoding: 57721 57721 145
Width: 261
Flags: W
LayerCount: 2
Fore
SplineSet
15 -346 m 2,0,1
 15 -352 15 -352 10.5 -356.5 c 128,-1,2
 6 -361 6 -361 0 -361 c 128,-1,3
 -6 -361 -6 -361 -10.5 -356.5 c 128,-1,4
 -15 -352 -15 -352 -15 -346 c 2,5,-1
 -15 -256 l 1,6,-1
 -161 -256 l 2,7,8
 -171 -256 -171 -256 -171 -246 c 2,9,-1
 -171 -15 l 1,10,-1
 -260 -15 l 2,11,12
 -266 -15 -266 -15 -270.5 -10.5 c 128,-1,13
 -275 -6 -275 -6 -275 0 c 128,-1,14
 -275 6 -275 6 -270.5 10.5 c 128,-1,15
 -266 15 -266 15 -260 15 c 2,16,-1
 -171 15 l 1,17,-1
 -171 246 l 2,18,19
 -171 256 -171 256 -161 256 c 2,20,-1
 -15 256 l 1,21,-1
 -15 346 l 2,22,23
 -15 352 -15 352 -10.5 356.5 c 128,-1,24
 -6 361 -6 361 0 361 c 128,-1,25
 6 361 6 361 10.5 356.5 c 128,-1,26
 15 352 15 352 15 346 c 2,27,-1
 15 256 l 1,28,-1
 161 256 l 2,29,30
 171 256 171 256 171 246 c 2,31,-1
 171 15 l 1,32,-1
 260 15 l 2,33,34
 266 15 266 15 270.5 10.5 c 128,-1,35
 275 6 275 6 275 0 c 128,-1,36
 275 -6 275 -6 270.5 -10.5 c 128,-1,37
 266 -15 266 -15 260 -15 c 2,38,-1
 171 -15 l 1,39,-1
 171 -246 l 2,40,41
 171 -256 171 -256 161 -256 c 2,42,-1
 91 -256 l 1,43,-1
 15 -256 l 1,44,-1
 15 -346 l 2,0,1
15 15 m 1,45,-1
 81 15 l 1,46,-1
 81 225 l 1,47,-1
 15 225 l 1,48,-1
 15 15 l 1,45,-1
15 -15 m 1,49,-1
 15 -225 l 1,50,-1
 81 -225 l 1,51,-1
 81 -15 l 1,52,-1
 15 -15 l 1,49,-1
-15 15 m 1,53,-1
 -15 225 l 1,54,-1
 -81 225 l 1,55,-1
 -81 15 l 1,56,-1
 -15 15 l 1,53,-1
-15 -15 m 1,57,-1
 -81 -15 l 1,58,-1
 -81 -225 l 1,59,-1
 -15 -225 l 1,60,-1
 -15 -15 l 1,57,-1
EndSplineSet
EndChar

StartChar: scripts.rcomma
Encoding: 57722 57722 146
Width: 128
Flags: W
LayerCount: 2
Fore
SplineSet
51 13 m 0,0,1
 51 53 51 53 34.5 84 c 128,-1,2
 18 115 18 115 18 122 c 0,3,4
 18 138 18 138 29 149.5 c 128,-1,5
 40 161 40 161 56 161 c 0,6,7
 84 161 84 161 99.5 127 c 128,-1,8
 115 93 115 93 115 60 c 0,9,10
 115 -23 115 -23 26 -150 c 0,11,12
 21 -157 21 -157 12 -157 c 0,13,14
 -3 -157 -3 -157 -3 -141 c 0,15,16
 -3 -138 -3 -138 11 -116.5 c 128,-1,17
 25 -95 25 -95 38 -59.5 c 128,-1,18
 51 -24 51 -24 51 13 c 0,0,1
EndSplineSet
EndChar

StartChar: scripts.lcomma
Encoding: 57723 57723 147
Width: 0
Flags: W
LayerCount: 2
Fore
SplineSet
-51 -13 m 0,0,1
 -51 -53 -51 -53 -34.5 -84 c 128,-1,2
 -18 -115 -18 -115 -18 -122 c 0,3,4
 -18 -138 -18 -138 -29 -149.5 c 128,-1,5
 -40 -161 -40 -161 -56 -161 c 0,6,7
 -84 -161 -84 -161 -99.5 -127 c 128,-1,8
 -115 -93 -115 -93 -115 -60 c 0,9,10
 -115 23 -115 23 -26 150 c 0,11,12
 -21 157 -21 157 -12 157 c 0,13,14
 3 157 3 157 3 141 c 0,15,16
 3 138 3 138 -11 116.5 c 128,-1,17
 -25 95 -25 95 -38 59.5 c 128,-1,18
 -51 24 -51 24 -51 -13 c 0,0,1
EndSplineSet
EndChar

StartChar: scripts.rvarcomma
Encoding: 57724 57724 148
Width: 63
Flags: W
LayerCount: 2
Fore
SplineSet
-65 -169 m 0,0,1
 -79 -169 -79 -169 -79 -154 c 0,2,3
 -79 -150 -79 -150 -78 -147 c 2,4,-1
 29 168 l 2,5,6
 37 193 37 193 63 193 c 0,7,8
 80 193 80 193 91.5 181 c 128,-1,9
 103 169 103 169 103 154 c 0,10,11
 103 150 103 150 99 139 c 1,12,-1
 -50 -160 l 1,13,14
 -56 -169 -56 -169 -65 -169 c 0,0,1
EndSplineSet
EndChar

StartChar: scripts.lvarcomma
Encoding: 57725 57725 149
Width: 63
Flags: W
LayerCount: 2
Fore
SplineSet
65 169 m 0,0,1
 79 169 79 169 79 154 c 0,2,3
 79 150 79 150 78 147 c 2,4,-1
 -29 -168 l 2,5,6
 -37 -193 -37 -193 -63 -193 c 0,7,8
 -80 -193 -80 -193 -91.5 -181 c 128,-1,9
 -103 -169 -103 -169 -103 -154 c 0,10,11
 -103 -150 -103 -150 -99 -139 c 1,12,-1
 50 160 l 1,13,14
 56 169 56 169 65 169 c 0,0,1
EndSplineSet
EndChar

StartChar: scripts.arpeggio
Encoding: 57726 57726 150
Width: 204
Flags: W
LayerCount: 2
Fore
SplineSet
-1 77 m 0,0,1
 -1 94 -1 94 22 113.5 c 128,-1,2
 45 133 45 133 68.5 157.5 c 128,-1,3
 92 182 92 182 92 211 c 0,4,5
 92 239 92 239 75 259 c 1,6,-1
 43 285 l 2,7,8
 37 289 37 289 37 297 c 0,9,10
 37 303 37 303 41.5 308 c 128,-1,11
 46 313 46 313 53 313 c 0,12,13
 59 313 59 313 63 309 c 2,14,-1
 195 200 l 2,15,16
 206 192 206 192 206 179 c 0,17,18
 206 162 206 162 183 142.5 c 128,-1,19
 160 123 160 123 136.5 98.5 c 128,-1,20
 113 74 113 74 113 45 c 0,21,22
 113 17 113 17 130 -3 c 1,23,-1
 162 -29 l 2,24,25
 168 -33 168 -33 168 -41 c 0,26,27
 168 -47 168 -47 163.5 -52 c 128,-1,28
 159 -57 159 -57 152 -57 c 0,29,30
 146 -57 146 -57 141 -53 c 2,31,-1
 10 56 l 2,32,33
 -1 65 -1 65 -1 77 c 0,0,1
EndSplineSet
EndChar

StartChar: scripts.trill_element
Encoding: 57727 57727 151
Width: 256
Flags: W
LayerCount: 2
Fore
SplineSet
179 -1 m 0,0,1
 162 -1 162 -1 142.5 22 c 128,-1,2
 123 45 123 45 98.5 68.5 c 128,-1,3
 74 92 74 92 45 92 c 0,4,5
 17 92 17 92 -3 75 c 1,6,-1
 -29 43 l 2,7,8
 -33 37 -33 37 -41 37 c 0,9,10
 -47 37 -47 37 -52 41.5 c 128,-1,11
 -57 46 -57 46 -57 53 c 0,12,13
 -57 59 -57 59 -53 63 c 2,14,-1
 56 195 l 2,15,16
 64 206 64 206 77 206 c 0,17,18
 94 206 94 206 113.5 183 c 128,-1,19
 133 160 133 160 157.5 136.5 c 128,-1,20
 182 113 182 113 211 113 c 0,21,22
 239 113 239 113 259 130 c 1,23,-1
 285 162 l 2,24,25
 289 168 289 168 297 168 c 0,26,27
 303 168 303 168 308 163.5 c 128,-1,28
 313 159 313 159 313 152 c 0,29,30
 313 146 313 146 309 141 c 2,31,-1
 200 10 l 2,32,33
 191 -1 191 -1 179 -1 c 0,0,1
EndSplineSet
EndChar

StartChar: scripts.arpeggio.arrow.M1
Encoding: 57728 57728 152
Width: 204
Flags: W
LayerCount: 2
Fore
SplineSet
43 285 m 2,0,1
 37 290 37 290 37 298 c 0,2,3
 37 305 37 305 42 309.5 c 128,-1,4
 47 314 47 314 53 314 c 0,5,6
 58 314 58 314 63 309 c 2,7,-1
 152 215 l 2,8,9
 167 198 167 198 172 172 c 1,10,-1
 252 210 l 2,11,12
 266 217 266 217 266 205 c 0,13,14
 266 198 266 198 234.5 167.5 c 128,-1,15
 203 137 203 137 163.5 90.5 c 128,-1,16
 124 44 124 44 109 3 c 1,17,18
 109 0 109 0 101 0 c 0,19,20
 98 0 98 0 97 2 c 0,21,22
 82 43 82 43 42 89.5 c 128,-1,23
 2 136 2 136 -29.5 167 c 128,-1,24
 -61 198 -61 198 -61 205 c 0,25,26
 -61 210 -61 210 -57 211.5 c 128,-1,27
 -53 213 -53 213 -48 211 c 2,28,-1
 46 166 l 1,29,30
 50 172 50 172 59.5 182.5 c 128,-1,31
 69 193 69 193 74.5 199.5 c 128,-1,32
 80 206 80 206 84.5 215 c 128,-1,33
 89 224 89 224 89 231 c 0,34,35
 89 247 89 247 75 259 c 2,36,-1
 43 285 l 2,0,1
EndSplineSet
EndChar

StartChar: scripts.arpeggio.arrow.1
Encoding: 57729 57729 153
Width: 204
Flags: W
LayerCount: 2
Fore
SplineSet
162 -29 m 2,0,1
 168 -34 168 -34 168 -42 c 0,2,3
 168 -49 168 -49 163 -53.5 c 128,-1,4
 158 -58 158 -58 152 -58 c 0,5,6
 147 -58 147 -58 141 -53 c 2,7,-1
 53 41 l 2,8,9
 38 58 38 58 33 84 c 1,10,-1
 -47 46 l 2,11,12
 -61 39 -61 39 -61 51 c 0,13,14
 -61 58 -61 58 -29.5 88.5 c 128,-1,15
 2 119 2 119 41.5 165.5 c 128,-1,16
 81 212 81 212 96 253 c 1,17,18
 96 256 96 256 103 256 c 0,19,20
 106 256 106 256 108 254 c 1,21,22
 123 213 123 213 163 166 c 128,-1,23
 203 119 203 119 234.5 88.5 c 128,-1,24
 266 58 266 58 266 51 c 0,25,26
 266 46 266 46 262 44.5 c 128,-1,27
 258 43 258 43 253 45 c 2,28,-1
 159 90 l 1,29,30
 155 84 155 84 145.5 73.5 c 128,-1,31
 136 63 136 63 130.5 56.5 c 128,-1,32
 125 50 125 50 120.5 41 c 128,-1,33
 116 32 116 32 116 25 c 0,34,35
 116 9 116 9 130 -3 c 2,36,-1
 162 -29 l 2,0,1
EndSplineSet
EndChar

StartChar: scripts.trilelement
Encoding: 57730 57730 154
Width: 106
Flags: W
LayerCount: 2
Fore
SplineSet
-82 1 m 1,0,-1
 -90 -11 l 1,1,-1
 -124 11 l 1,2,-1
 -52 119 l 2,3,4
 -46 128 -46 128 -35 128 c 0,5,6
 -26 128 -26 128 -19 121 c 2,7,-1
 82 -1 l 1,8,-1
 90 11 l 1,9,-1
 124 -11 l 1,10,-1
 52 -119 l 2,11,12
 46 -128 46 -128 35 -128 c 0,13,14
 26 -128 26 -128 19 -121 c 2,15,-1
 -82 1 l 1,0,-1
EndSplineSet
EndChar

StartChar: scripts.prall
Encoding: 57731 57731 155
Width: 214
Flags: W
LayerCount: 2
Fore
SplineSet
220 47 m 2,0,1
 226 56 226 56 237 56 c 0,2,3
 245 56 245 56 251 50 c 128,-1,4
 257 44 257 44 257 36 c 0,5,6
 257 29 257 29 254 25 c 2,7,-1
 159 -119 l 2,8,9
 153 -128 153 -128 141 -128 c 0,10,11
 132 -128 132 -128 126 -121 c 2,12,-1
 26 1 l 1,13,-1
 -54 -119 l 2,14,15
 -60 -128 -60 -128 -72 -128 c 0,16,17
 -81 -128 -81 -128 -87 -121 c 2,18,-1
 -188 1 l 1,19,-1
 -220 -47 l 2,20,21
 -226 -56 -226 -56 -237 -56 c 0,22,23
 -245 -56 -245 -56 -251 -50 c 128,-1,24
 -257 -44 -257 -44 -257 -36 c 0,25,26
 -257 -29 -257 -29 -254 -25 c 2,27,-1
 -159 119 l 2,28,29
 -153 128 -153 128 -141 128 c 0,30,31
 -132 128 -132 128 -126 121 c 2,32,-1
 -26 -1 l 1,33,-1
 54 119 l 2,34,35
 60 128 60 128 72 128 c 0,36,37
 81 128 81 128 87 121 c 2,38,-1
 188 -1 l 1,39,-1
 220 47 l 2,0,1
EndSplineSet
EndChar

StartChar: scripts.mordent
Encoding: 57732 57732 156
Width: 214
Flags: W
LayerCount: 2
Fore
SplineSet
20 -151 m 2,0,1
 20 -159 20 -159 14 -165 c 128,-1,2
 8 -171 8 -171 0 -171 c 128,-1,3
 -8 -171 -8 -171 -14 -165 c 128,-1,4
 -20 -159 -20 -159 -20 -151 c 2,5,-1
 -20 -68 l 1,6,-1
 -54 -119 l 2,7,8
 -60 -128 -60 -128 -72 -128 c 0,9,10
 -81 -128 -81 -128 -87 -121 c 2,11,-1
 -188 1 l 1,12,-1
 -220 -47 l 2,13,14
 -226 -56 -226 -56 -237 -56 c 0,15,16
 -245 -56 -245 -56 -251 -50 c 128,-1,17
 -257 -44 -257 -44 -257 -36 c 0,18,19
 -257 -29 -257 -29 -254 -25 c 2,20,-1
 -159 119 l 2,21,22
 -153 128 -153 128 -141 128 c 0,23,24
 -132 128 -132 128 -126 121 c 2,25,-1
 -26 -1 l 1,26,-1
 -20 6 l 1,27,-1
 -20 151 l 2,28,29
 -20 159 -20 159 -14 165 c 128,-1,30
 -8 171 -8 171 0 171 c 128,-1,31
 8 171 8 171 14 165 c 128,-1,32
 20 159 20 159 20 151 c 2,33,-1
 20 68 l 1,34,-1
 54 119 l 2,35,36
 60 128 60 128 72 128 c 0,37,38
 81 128 81 128 87 121 c 2,39,-1
 188 -1 l 1,40,-1
 220 47 l 2,41,42
 226 56 226 56 237 56 c 0,43,44
 245 56 245 56 251 50 c 128,-1,45
 257 44 257 44 257 36 c 0,46,47
 257 29 257 29 254 25 c 2,48,-1
 159 -119 l 2,49,50
 153 -128 153 -128 141 -128 c 0,51,52
 132 -128 132 -128 126 -121 c 2,53,-1
 26 1 l 1,54,-1
 20 -6 l 1,55,-1
 20 -151 l 2,0,1
EndSplineSet
EndChar

StartChar: scripts.prallprall
Encoding: 57733 57733 157
Width: 320
Flags: W
LayerCount: 2
Fore
SplineSet
327 47 m 2,0,1
 333 56 333 56 344 56 c 0,2,3
 352 56 352 56 358.5 50 c 128,-1,4
 365 44 365 44 365 36 c 0,5,6
 365 31 365 31 360 25 c 2,7,-1
 265 -119 l 2,8,9
 259 -128 259 -128 249 -128 c 128,-1,10
 239 -128 239 -128 232 -121 c 2,11,-1
 132 1 l 1,12,-1
 52 -119 l 2,13,14
 46 -128 46 -128 35 -128 c 0,15,16
 26 -128 26 -128 19 -121 c 2,17,-1
 -82 1 l 1,18,-1
 -162 -119 l 2,19,20
 -168 -128 -168 -128 -178 -128 c 128,-1,21
 -188 -128 -188 -128 -195 -121 c 2,22,-1
 -295 1 l 1,23,-1
 -327 -47 l 2,24,25
 -333 -56 -333 -56 -344 -56 c 0,26,27
 -352 -56 -352 -56 -358.5 -50 c 128,-1,28
 -365 -44 -365 -44 -365 -36 c 0,29,30
 -365 -31 -365 -31 -360 -25 c 2,31,-1
 -265 119 l 2,32,33
 -259 128 -259 128 -248 128 c 0,34,35
 -239 128 -239 128 -232 121 c 2,36,-1
 -132 -1 l 1,37,-1
 -52 119 l 2,38,39
 -46 128 -46 128 -35 128 c 0,40,41
 -26 128 -26 128 -19 121 c 2,42,-1
 82 -1 l 1,43,-1
 162 119 l 2,44,45
 168 128 168 128 178 128 c 128,-1,46
 188 128 188 128 195 121 c 2,47,-1
 295 -1 l 1,48,-1
 327 47 l 2,0,1
EndSplineSet
EndChar

StartChar: scripts.prallmordent
Encoding: 57734 57734 158
Width: 320
Flags: W
LayerCount: 2
Fore
SplineSet
127 -151 m 2,0,1
 127 -159 127 -159 121 -165 c 128,-1,2
 115 -171 115 -171 106.5 -171 c 128,-1,3
 98 -171 98 -171 92 -165 c 128,-1,4
 86 -159 86 -159 86 -151 c 2,5,-1
 86 -68 l 1,6,-1
 52 -119 l 2,7,8
 46 -128 46 -128 35 -128 c 0,9,10
 26 -128 26 -128 19 -121 c 2,11,-1
 -82 1 l 1,12,-1
 -162 -119 l 2,13,14
 -168 -128 -168 -128 -178 -128 c 128,-1,15
 -188 -128 -188 -128 -195 -121 c 2,16,-1
 -295 1 l 1,17,-1
 -327 -47 l 2,18,19
 -333 -56 -333 -56 -344 -56 c 0,20,21
 -352 -56 -352 -56 -358.5 -50 c 128,-1,22
 -365 -44 -365 -44 -365 -36 c 0,23,24
 -365 -31 -365 -31 -360 -25 c 2,25,-1
 -265 119 l 2,26,27
 -259 128 -259 128 -248 128 c 0,28,29
 -239 128 -239 128 -232 121 c 2,30,-1
 -132 -1 l 1,31,-1
 -52 119 l 2,32,33
 -46 128 -46 128 -35 128 c 0,34,35
 -26 128 -26 128 -19 121 c 2,36,-1
 82 -1 l 1,37,-1
 86 6 l 1,38,-1
 86 151 l 2,39,40
 86 159 86 159 92 165 c 128,-1,41
 98 171 98 171 106.5 171 c 128,-1,42
 115 171 115 171 121 165 c 128,-1,43
 127 159 127 159 127 151 c 2,44,-1
 127 68 l 1,45,-1
 162 119 l 2,46,47
 168 128 168 128 178 128 c 128,-1,48
 188 128 188 128 195 121 c 2,49,-1
 295 -1 l 1,50,-1
 327 47 l 2,51,52
 333 56 333 56 344 56 c 0,53,54
 352 56 352 56 358.5 50 c 128,-1,55
 365 44 365 44 365 36 c 0,56,57
 365 31 365 31 360 25 c 2,58,-1
 265 -119 l 2,59,60
 259 -128 259 -128 249 -128 c 128,-1,61
 239 -128 239 -128 232 -121 c 2,62,-1
 132 1 l 1,63,-1
 127 -6 l 1,64,-1
 127 -151 l 2,0,1
EndSplineSet
EndChar

StartChar: scripts.upprall
Encoding: 57735 57735 159
Width: 320
Flags: W
LayerCount: 2
Fore
SplineSet
-344 -312 m 0,0,1
 -363 -312 -363 -312 -382.5 -262 c 128,-1,2
 -402 -212 -402 -212 -402 -164 c 0,3,4
 -402 -88 -402 -88 -360 -25 c 2,5,-1
 -265 119 l 2,6,7
 -259 128 -259 128 -248 128 c 0,8,9
 -239 128 -239 128 -232 121 c 2,10,-1
 -132 -1 l 1,11,-1
 -52 119 l 2,12,13
 -46 128 -46 128 -35 128 c 0,14,15
 -26 128 -26 128 -19 121 c 2,16,-1
 82 -1 l 1,17,-1
 162 119 l 2,18,19
 168 128 168 128 178 128 c 128,-1,20
 188 128 188 128 195 121 c 2,21,-1
 295 -1 l 1,22,-1
 327 47 l 2,23,24
 333 56 333 56 344 56 c 0,25,26
 352 56 352 56 358.5 50 c 128,-1,27
 365 44 365 44 365 36 c 0,28,29
 365 31 365 31 360 25 c 2,30,-1
 265 -119 l 2,31,32
 259 -128 259 -128 249 -128 c 128,-1,33
 239 -128 239 -128 232 -121 c 2,34,-1
 132 1 l 1,35,-1
 52 -119 l 2,36,37
 46 -128 46 -128 35 -128 c 0,38,39
 26 -128 26 -128 19 -121 c 2,40,-1
 -82 1 l 1,41,-1
 -162 -119 l 2,42,43
 -168 -128 -168 -128 -178 -128 c 128,-1,44
 -188 -128 -188 -128 -195 -121 c 2,45,-1
 -295 1 l 1,46,-1
 -327 -47 l 2,47,48
 -362 -98 -362 -98 -361 -164 c 0,49,50
 -361 -198 -361 -198 -351.5 -226.5 c 128,-1,51
 -342 -255 -342 -255 -333 -271.5 c 128,-1,52
 -324 -288 -324 -288 -324 -292 c 0,53,54
 -324 -300 -324 -300 -330 -306 c 128,-1,55
 -336 -312 -336 -312 -344 -312 c 0,0,1
EndSplineSet
EndChar

StartChar: scripts.upmordent
Encoding: 57736 57736 160
Width: 320
Flags: W
LayerCount: 2
Fore
SplineSet
-344 -312 m 0,0,1
 -363 -312 -363 -312 -382.5 -262 c 128,-1,2
 -402 -212 -402 -212 -402 -164 c 0,3,4
 -402 -88 -402 -88 -360 -25 c 2,5,-1
 -265 119 l 2,6,7
 -259 128 -259 128 -248 128 c 0,8,9
 -239 128 -239 128 -232 121 c 2,10,-1
 -132 -1 l 1,11,-1
 -52 119 l 2,12,13
 -46 128 -46 128 -35 128 c 0,14,15
 -26 128 -26 128 -19 121 c 2,16,-1
 82 -1 l 1,17,-1
 86 6 l 1,18,-1
 86 151 l 2,19,20
 86 159 86 159 92 165 c 128,-1,21
 98 171 98 171 106.5 171 c 128,-1,22
 115 171 115 171 121 165 c 128,-1,23
 127 159 127 159 127 151 c 2,24,-1
 127 68 l 1,25,-1
 162 119 l 2,26,27
 168 128 168 128 178 128 c 128,-1,28
 188 128 188 128 195 121 c 2,29,-1
 295 -1 l 1,30,-1
 327 47 l 2,31,32
 333 56 333 56 344 56 c 0,33,34
 352 56 352 56 358.5 50 c 128,-1,35
 365 44 365 44 365 36 c 0,36,37
 365 31 365 31 360 25 c 2,38,-1
 265 -119 l 2,39,40
 259 -128 259 -128 249 -128 c 128,-1,41
 239 -128 239 -128 232 -121 c 2,42,-1
 132 1 l 1,43,-1
 127 -6 l 1,44,-1
 127 -151 l 2,45,46
 127 -159 127 -159 121 -165 c 128,-1,47
 115 -171 115 -171 106.5 -171 c 128,-1,48
 98 -171 98 -171 92 -165 c 128,-1,49
 86 -159 86 -159 86 -151 c 2,50,-1
 86 -68 l 1,51,-1
 52 -119 l 2,52,53
 46 -128 46 -128 35 -128 c 0,54,55
 26 -128 26 -128 19 -121 c 2,56,-1
 -82 1 l 1,57,-1
 -162 -119 l 2,58,59
 -168 -128 -168 -128 -178 -128 c 128,-1,60
 -188 -128 -188 -128 -195 -121 c 2,61,-1
 -295 1 l 1,62,-1
 -327 -47 l 2,63,64
 -362 -98 -362 -98 -361 -164 c 0,65,66
 -361 -198 -361 -198 -351.5 -226.5 c 128,-1,67
 -342 -255 -342 -255 -333 -271.5 c 128,-1,68
 -324 -288 -324 -288 -324 -292 c 0,69,70
 -324 -300 -324 -300 -330 -306 c 128,-1,71
 -336 -312 -336 -312 -344 -312 c 0,0,1
EndSplineSet
EndChar

StartChar: scripts.pralldown
Encoding: 57737 57737 161
Width: 320
Flags: W
LayerCount: 2
Fore
SplineSet
344 -312 m 0,0,1
 336 -312 336 -312 330 -306 c 128,-1,2
 324 -300 324 -300 324 -292 c 0,3,4
 324 -288 324 -288 333 -271.5 c 128,-1,5
 342 -255 342 -255 351.5 -226.5 c 128,-1,6
 361 -198 361 -198 361 -164 c 0,7,8
 361 -98 361 -98 327 -47 c 2,9,-1
 295 1 l 1,10,-1
 195 -121 l 2,11,12
 189 -128 189 -128 178.5 -128 c 128,-1,13
 168 -128 168 -128 162 -119 c 2,14,-1
 82 1 l 1,15,-1
 -19 -121 l 2,16,17
 -25 -128 -25 -128 -35 -128 c 0,18,19
 -46 -128 -46 -128 -52 -119 c 2,20,-1
 -132 1 l 1,21,-1
 -232 -121 l 2,22,23
 -238 -128 -238 -128 -248.5 -128 c 128,-1,24
 -259 -128 -259 -128 -265 -119 c 2,25,-1
 -360 25 l 2,26,27
 -364 31 -364 31 -365 36 c 1,28,29
 -365 44 -365 44 -358.5 50 c 128,-1,30
 -352 56 -352 56 -344 56 c 0,31,32
 -333 56 -333 56 -327 47 c 2,33,-1
 -295 -1 l 1,34,-1
 -195 121 l 2,35,36
 -189 128 -189 128 -178.5 128 c 128,-1,37
 -168 128 -168 128 -162 119 c 2,38,-1
 -82 -1 l 1,39,-1
 19 121 l 2,40,41
 25 128 25 128 35 128 c 0,42,43
 46 128 46 128 52 119 c 2,44,-1
 132 -1 l 1,45,-1
 232 121 l 2,46,47
 238 128 238 128 248 128 c 0,48,49
 259 128 259 128 265 119 c 2,50,-1
 360 -25 l 2,51,52
 402 -88 402 -88 402 -164 c 0,53,54
 402 -212 402 -212 382.5 -262 c 128,-1,55
 363 -312 363 -312 344 -312 c 0,0,1
EndSplineSet
EndChar

StartChar: scripts.downprall
Encoding: 57738 57738 162
Width: 320
Flags: W
LayerCount: 2
Fore
SplineSet
-402 92 m 0,0,1
 -402 143 -402 143 -382 192 c 128,-1,2
 -362 241 -362 241 -344 241 c 0,3,4
 -332 241 -332 241 -326.5 230 c 128,-1,5
 -321 219 -321 219 -327 209 c 0,6,7
 -362 158 -362 158 -361 92 c 0,8,9
 -361 44 -361 44 -342 4 c 1,10,-1
 -265 119 l 2,11,12
 -259 128 -259 128 -248 128 c 0,13,14
 -239 128 -239 128 -232 121 c 2,15,-1
 -132 -1 l 1,16,-1
 -52 119 l 2,17,18
 -46 128 -46 128 -35 128 c 0,19,20
 -26 128 -26 128 -19 121 c 2,21,-1
 82 -1 l 1,22,-1
 162 119 l 2,23,24
 168 128 168 128 178 128 c 128,-1,25
 188 128 188 128 195 121 c 2,26,-1
 295 -1 l 1,27,-1
 327 47 l 2,28,29
 333 56 333 56 344 56 c 0,30,31
 352 56 352 56 358.5 50 c 128,-1,32
 365 44 365 44 365 36 c 0,33,34
 365 31 365 31 360 25 c 2,35,-1
 265 -119 l 2,36,37
 259 -128 259 -128 249 -128 c 128,-1,38
 239 -128 239 -128 232 -121 c 2,39,-1
 132 1 l 1,40,-1
 52 -119 l 2,41,42
 46 -128 46 -128 35 -128 c 0,43,44
 26 -128 26 -128 19 -121 c 2,45,-1
 -82 1 l 1,46,-1
 -162 -119 l 2,47,48
 -168 -128 -168 -128 -178 -128 c 128,-1,49
 -188 -128 -188 -128 -195 -121 c 2,50,-1
 -295 1 l 1,51,-1
 -327 -47 l 2,52,53
 -333 -56 -333 -56 -344 -56 c 0,54,55
 -364 -56 -364 -56 -383 -5.5 c 128,-1,56
 -402 45 -402 45 -402 92 c 0,0,1
EndSplineSet
EndChar

StartChar: scripts.downmordent
Encoding: 57739 57739 163
Width: 320
Flags: W
LayerCount: 2
Fore
SplineSet
-402 92 m 0,0,1
 -402 143 -402 143 -382 192 c 128,-1,2
 -362 241 -362 241 -344 241 c 0,3,4
 -332 241 -332 241 -326.5 230 c 128,-1,5
 -321 219 -321 219 -327 209 c 0,6,7
 -362 158 -362 158 -361 92 c 0,8,9
 -361 44 -361 44 -342 4 c 1,10,-1
 -265 119 l 2,11,12
 -259 128 -259 128 -248 128 c 0,13,14
 -239 128 -239 128 -232 121 c 2,15,-1
 -132 -1 l 1,16,-1
 -52 119 l 2,17,18
 -46 128 -46 128 -35 128 c 0,19,20
 -26 128 -26 128 -19 121 c 2,21,-1
 82 -1 l 1,22,-1
 86 6 l 1,23,-1
 86 151 l 2,24,25
 86 159 86 159 92 165 c 128,-1,26
 98 171 98 171 106.5 171 c 128,-1,27
 115 171 115 171 121 165 c 128,-1,28
 127 159 127 159 127 151 c 2,29,-1
 127 68 l 1,30,-1
 162 119 l 2,31,32
 168 128 168 128 178 128 c 128,-1,33
 188 128 188 128 195 121 c 2,34,-1
 295 -1 l 1,35,-1
 327 47 l 2,36,37
 333 56 333 56 344 56 c 0,38,39
 352 56 352 56 358.5 50 c 128,-1,40
 365 44 365 44 365 36 c 0,41,42
 365 31 365 31 360 25 c 2,43,-1
 265 -119 l 2,44,45
 259 -128 259 -128 249 -128 c 128,-1,46
 239 -128 239 -128 232 -121 c 2,47,-1
 132 1 l 1,48,-1
 127 -6 l 1,49,-1
 127 -151 l 2,50,51
 127 -159 127 -159 121 -165 c 128,-1,52
 115 -171 115 -171 106.5 -171 c 128,-1,53
 98 -171 98 -171 92 -165 c 128,-1,54
 86 -159 86 -159 86 -151 c 2,55,-1
 86 -68 l 1,56,-1
 52 -119 l 2,57,58
 46 -128 46 -128 35 -128 c 0,59,60
 26 -128 26 -128 19 -121 c 2,61,-1
 -82 1 l 1,62,-1
 -162 -119 l 2,63,64
 -168 -128 -168 -128 -178 -128 c 128,-1,65
 -188 -128 -188 -128 -195 -121 c 2,66,-1
 -295 1 l 1,67,-1
 -327 -47 l 2,68,69
 -333 -56 -333 -56 -344 -56 c 0,70,71
 -364 -56 -364 -56 -383 -5.5 c 128,-1,72
 -402 45 -402 45 -402 92 c 0,0,1
EndSplineSet
EndChar

StartChar: scripts.prallup
Encoding: 57740 57740 164
Width: 320
Flags: W
LayerCount: 2
Fore
SplineSet
402 92 m 0,0,1
 402 45 402 45 383.5 -5.5 c 128,-1,2
 365 -56 365 -56 344 -56 c 0,3,4
 333 -56 333 -56 327 -47 c 2,5,-1
 295 1 l 1,6,-1
 195 -121 l 2,7,8
 189 -128 189 -128 178.5 -128 c 128,-1,9
 168 -128 168 -128 162 -119 c 2,10,-1
 82 1 l 1,11,-1
 -19 -121 l 2,12,13
 -25 -128 -25 -128 -35 -128 c 0,14,15
 -46 -128 -46 -128 -52 -119 c 2,16,-1
 -132 1 l 1,17,-1
 -232 -121 l 2,18,19
 -238 -128 -238 -128 -248.5 -128 c 128,-1,20
 -259 -128 -259 -128 -265 -119 c 2,21,-1
 -360 25 l 2,22,23
 -364 31 -364 31 -365 36 c 1,24,25
 -365 44 -365 44 -358.5 50 c 128,-1,26
 -352 56 -352 56 -344 56 c 0,27,28
 -333 56 -333 56 -327 47 c 2,29,-1
 -295 -1 l 1,30,-1
 -195 121 l 2,31,32
 -189 128 -189 128 -178.5 128 c 128,-1,33
 -168 128 -168 128 -162 119 c 2,34,-1
 -82 -1 l 1,35,-1
 19 121 l 2,36,37
 25 128 25 128 35 128 c 0,38,39
 46 128 46 128 52 119 c 2,40,-1
 132 -1 l 1,41,-1
 232 121 l 2,42,43
 238 128 238 128 248 128 c 0,44,45
 259 128 259 128 265 119 c 2,46,-1
 342 4 l 1,47,48
 361 44 361 44 361 92 c 0,49,50
 361 158 361 158 327 209 c 0,51,52
 321 219 321 219 326.5 230 c 128,-1,53
 332 241 332 241 344 241 c 0,54,55
 362 241 362 241 382 192 c 128,-1,56
 402 143 402 143 402 92 c 0,0,1
EndSplineSet
EndChar

StartChar: scripts.lineprall
Encoding: 57741 57741 165
Width: 320
Flags: W
LayerCount: 2
Fore
SplineSet
327 47 m 2,0,1
 333 56 333 56 344 56 c 0,2,3
 352 56 352 56 358.5 50 c 128,-1,4
 365 44 365 44 365 36 c 0,5,6
 365 31 365 31 360 25 c 2,7,-1
 265 -119 l 2,8,9
 259 -128 259 -128 248 -128 c 0,10,11
 239 -128 239 -128 232 -121 c 2,12,-1
 132 1 l 1,13,-1
 52 -119 l 2,14,15
 46 -128 46 -128 35 -128 c 0,16,17
 26 -128 26 -128 19 -121 c 2,18,-1
 -82 1 l 1,19,-1
 -162 -119 l 2,20,21
 -168 -128 -168 -128 -178 -128 c 128,-1,22
 -188 -128 -188 -128 -195 -121 c 2,23,-1
 -295 1 l 1,24,-1
 -327 -47 l 2,25,26
 -333 -56 -333 -56 -344 -56 c 0,27,28
 -352 -56 -352 -56 -358.5 -50 c 128,-1,29
 -365 -44 -365 -44 -365 -36 c 2,30,-1
 -365 476 l 2,31,32
 -365 484 -365 484 -358.5 490.5 c 128,-1,33
 -352 497 -352 497 -344 497 c 128,-1,34
 -336 497 -336 497 -330 490.5 c 128,-1,35
 -324 484 -324 484 -324 476 c 2,36,-1
 -324 32 l 1,37,-1
 -265 119 l 2,38,39
 -259 128 -259 128 -248 128 c 0,40,41
 -239 128 -239 128 -232 121 c 2,42,-1
 -132 -1 l 1,43,-1
 -52 119 l 2,44,45
 -46 128 -46 128 -35 128 c 0,46,47
 -26 128 -26 128 -19 121 c 2,48,-1
 82 -1 l 1,49,-1
 162 119 l 2,50,51
 168 128 168 128 178 128 c 128,-1,52
 188 128 188 128 195 121 c 2,53,-1
 295 -1 l 1,54,-1
 327 47 l 2,0,1
EndSplineSet
EndChar

StartChar: scripts.caesura.curved
Encoding: 57742 57742 166
Width: 513
Flags: W
LayerCount: 2
Fore
SplineSet
289 321 m 0,0,1
 302 321 302 321 311.5 311 c 128,-1,2
 321 301 321 301 321 288 c 0,3,4
 321 256 321 256 314 204.5 c 128,-1,5
 307 153 307 153 275.5 39.5 c 128,-1,6
 244 -74 244 -74 190 -194 c 0,7,8
 185 -205 185 -205 173 -205 c 0,9,10
 163 -205 163 -205 157.5 -196 c 128,-1,11
 152 -187 152 -187 156 -178 c 0,12,13
 240 13 240 13 257 290 c 0,14,15
 258 303 258 303 267.5 312 c 128,-1,16
 277 321 277 321 289 321 c 0,0,1
19 -205 m 0,17,18
 11 -205 11 -205 5.5 -199 c 128,-1,19
 0 -193 0 -193 0 -185 c 0,20,21
 0 -181 0 -181 8.5 -161.5 c 128,-1,22
 17 -142 17 -142 30 -105.5 c 128,-1,23
 43 -69 43 -69 57 -18.5 c 128,-1,24
 71 32 71 32 84 114 c 128,-1,25
 97 196 97 196 103 290 c 0,26,27
 104 303 104 303 113.5 312 c 128,-1,28
 123 321 123 321 135 321 c 0,29,30
 148 321 148 321 157.5 311 c 128,-1,31
 167 301 167 301 167 288 c 0,32,33
 167 256 167 256 160.5 204.5 c 128,-1,34
 154 153 154 153 122 39.5 c 128,-1,35
 90 -74 90 -74 37 -194 c 1,36,37
 31 -205 31 -205 19 -205 c 0,17,18
EndSplineSet
EndChar

StartChar: scripts.caesura.straight
Encoding: 57743 57743 167
Width: 513
Flags: W
LayerCount: 2
Fore
SplineSet
153 -186 m 2,0,-1
 390 289 l 2,1,2
 398 307 398 307 420 307 c 2,3,-1
 453 307 l 2,4,5
 465 307 465 307 465 295 c 0,6,7
 465 291 465 291 464 289 c 2,8,-1
 226 -186 l 2,9,10
 218 -204 218 -204 197 -205 c 1,11,-1
 164 -205 l 2,12,13
 157 -205 157 -205 153.5 -198.5 c 128,-1,14
 150 -192 150 -192 153 -186 c 2,0,-1
9 -186 m 2,15,-1
 247 289 l 2,16,17
 255 307 255 307 276 307 c 2,18,-1
 309 307 l 2,19,20
 321 307 321 307 322 295 c 0,21,22
 322 291 322 291 321 289 c 2,23,-1
 83 -186 l 2,24,25
 75 -204 75 -204 53 -205 c 1,26,-1
 20 -205 l 2,27,28
 8 -205 8 -205 8 -193 c 0,29,30
 8 -188 8 -188 9 -186 c 2,15,-1
EndSplineSet
EndChar

StartChar: flags.u3
Encoding: 57744 57744 168
Width: 231
Flags: W
LayerCount: 2
Fore
SplineSet
-16 -256 m 1,0,-1
 -16 0 l 1,1,-1
 0 0 l 1,2,3
 0 -55 0 -55 22 -113.5 c 128,-1,4
 44 -172 44 -172 75 -222 c 128,-1,5
 106 -272 106 -272 138 -323 c 128,-1,6
 170 -374 170 -374 192 -432 c 128,-1,7
 214 -490 214 -490 214 -546 c 0,8,9
 214 -648 214 -648 171 -758 c 1,10,11
 164 -770 164 -770 152 -770 c 0,12,13
 142 -770 142 -770 134 -762 c 128,-1,14
 126 -754 126 -754 128 -742 c 1,15,16
 171 -641 171 -641 171 -546 c 0,17,18
 171 -497 171 -497 141 -438.5 c 128,-1,19
 111 -380 111 -380 80 -343.5 c 128,-1,20
 49 -307 49 -307 0 -256 c 1,21,-1
 -16 -256 l 1,0,-1
EndSplineSet
EndChar

StartChar: flags.u4
Encoding: 57745 57745 169
Width: 231
Flags: W
LayerCount: 2
Fore
SplineSet
0 0 m 1,0,1
 0 -50 0 -50 21.5 -101.5 c 128,-1,2
 43 -153 43 -153 73.5 -197 c 128,-1,3
 104 -241 104 -241 134.5 -285 c 128,-1,4
 165 -329 165 -329 186.5 -380 c 128,-1,5
 208 -431 208 -431 208 -481 c 0,6,7
 208 -528 208 -528 184 -579 c 1,8,9
 214 -640 214 -640 214 -698 c 0,10,11
 214 -789 214 -789 171 -886 c 1,12,13
 164 -898 164 -898 152 -898 c 0,14,15
 142 -898 142 -898 134 -890 c 128,-1,16
 126 -882 126 -882 128 -870 c 1,17,18
 171 -784 171 -784 171 -698 c 0,19,20
 171 -663 171 -663 155.5 -626.5 c 128,-1,21
 140 -590 140 -590 112 -554 c 128,-1,22
 84 -518 84 -518 59.5 -492.5 c 128,-1,23
 35 -467 35 -467 0 -435 c 1,24,-1
 0 -512 l 1,25,-1
 -16 -512 l 1,26,-1
 -16 0 l 1,27,-1
 0 0 l 1,0,1
157 -529 m 1,28,29
 164 -507 164 -507 164 -481 c 0,30,31
 164 -446 164 -446 149.5 -409.5 c 128,-1,32
 135 -373 135 -373 107.5 -337 c 128,-1,33
 80 -301 80 -301 57 -276 c 128,-1,34
 34 -251 34 -251 0 -218 c 1,35,36
 0 -260 0 -260 17 -305 c 128,-1,37
 34 -350 34 -350 53.5 -380 c 128,-1,38
 73 -410 73 -410 107.5 -457 c 128,-1,39
 142 -504 142 -504 157 -529 c 1,28,29
EndSplineSet
EndChar

StartChar: flags.u5
Encoding: 57746 57746 170
Width: 214
Flags: W
LayerCount: 2
Fore
SplineSet
0 -217 m 1,0,-1
 0 -222 l 2,1,2
 0 -262 0 -262 16.5 -305 c 128,-1,3
 33 -348 33 -348 50.5 -375.5 c 128,-1,4
 68 -403 68 -403 101.5 -450.5 c 128,-1,5
 135 -498 135 -498 150 -519 c 1,6,7
 154 -504 154 -504 154 -485 c 0,8,9
 154 -440 154 -440 126.5 -386.5 c 128,-1,10
 99 -333 99 -333 71 -298.5 c 128,-1,11
 43 -264 43 -264 0 -217 c 1,0,-1
0 0 m 1,12,13
 0 -50 0 -50 20.5 -102 c 128,-1,14
 41 -154 41 -154 70 -198.5 c 128,-1,15
 99 -243 99 -243 128 -287.5 c 128,-1,16
 157 -332 157 -332 177.5 -383.5 c 128,-1,17
 198 -435 198 -435 198 -485 c 0,18,19
 198 -527 198 -527 178 -569 c 1,20,21
 208 -630 208 -630 208 -685 c 0,22,23
 208 -737 208 -737 183 -792 c 1,24,25
 214 -851 214 -851 214 -908 c 0,26,27
 214 -996 214 -996 171 -1087 c 1,28,29
 164 -1099 164 -1099 152 -1100 c 0,30,31
 142 -1100 142 -1100 134 -1091.5 c 128,-1,32
 126 -1083 126 -1083 128 -1072 c 1,33,34
 171 -989 171 -989 171 -908 c 0,35,36
 171 -845 171 -845 123 -785 c 128,-1,37
 75 -725 75 -725 0 -663 c 1,38,-1
 0 -768 l 1,39,-1
 -16 -768 l 1,40,-1
 -16 0 l 1,41,-1
 0 0 l 1,12,13
0 -440 m 1,42,-1
 0 -445 l 2,43,44
 0 -486 0 -486 17 -529 c 128,-1,45
 34 -572 34 -572 52.5 -600 c 128,-1,46
 71 -628 71 -628 105.5 -674 c 128,-1,47
 140 -720 140 -720 155 -742 c 1,48,49
 164 -714 164 -714 164 -685 c 0,50,51
 164 -641 164 -641 135 -592 c 128,-1,52
 106 -543 106 -543 76 -512 c 128,-1,53
 46 -481 46 -481 0 -440 c 1,42,-1
EndSplineSet
EndChar

StartChar: flags.u6
Encoding: 57747 57747 171
Width: 214
Flags: W
LayerCount: 2
Fore
SplineSet
0 -217 m 1,0,-1
 0 -230 l 2,1,2
 0 -271 0 -271 16.5 -314.5 c 128,-1,3
 33 -358 33 -358 50.5 -386.5 c 128,-1,4
 68 -415 68 -415 101.5 -462.5 c 128,-1,5
 135 -510 135 -510 150 -531 c 1,6,7
 154 -515 154 -515 154 -494 c 0,8,9
 154 -459 154 -459 140 -420.5 c 128,-1,10
 126 -382 126 -382 100.5 -344 c 128,-1,11
 75 -306 75 -306 53 -279 c 128,-1,12
 31 -252 31 -252 0 -217 c 1,0,-1
0 0 m 1,13,14
 0 -50 0 -50 20.5 -103 c 128,-1,15
 41 -156 41 -156 70 -201.5 c 128,-1,16
 99 -247 99 -247 128 -292.5 c 128,-1,17
 157 -338 157 -338 177.5 -390.5 c 128,-1,18
 198 -443 198 -443 198 -494 c 0,19,20
 198 -538 198 -538 178 -583 c 1,21,22
 208 -645 208 -645 208 -700 c 0,23,24
 208 -757 208 -757 178 -814 c 1,25,26
 208 -876 208 -876 208 -931 c 0,27,28
 208 -979 208 -979 172 -1022 c 1,29,30
 214 -1096 214 -1096 214 -1161 c 0,31,32
 214 -1252 214 -1252 171 -1345 c 1,33,34
 164 -1356 164 -1356 152 -1356 c 0,35,36
 142 -1356 142 -1356 134 -1347.5 c 128,-1,37
 126 -1339 126 -1339 128 -1328 c 1,38,39
 171 -1244 171 -1244 171 -1161 c 0,40,41
 171 -1126 171 -1126 155.5 -1091 c 128,-1,42
 140 -1056 140 -1056 111.5 -1021.5 c 128,-1,43
 83 -987 83 -987 59 -963 c 128,-1,44
 35 -939 35 -939 0 -908 c 1,45,-1
 0 -1024 l 1,46,-1
 -16 -1024 l 1,47,-1
 -16 0 l 1,48,-1
 0 0 l 1,13,14
0 -447 m 1,49,-1
 0 -461 l 2,50,51
 0 -502 0 -502 16.5 -546 c 128,-1,52
 33 -590 33 -590 51.5 -619 c 128,-1,53
 70 -648 70 -648 103.5 -695 c 128,-1,54
 137 -742 137 -742 152 -766 c 1,55,56
 164 -735 164 -735 164 -700 c 0,57,58
 164 -637 164 -637 118 -575 c 128,-1,59
 72 -513 72 -513 0 -447 c 1,49,-1
0 -678 m 1,60,-1
 0 -691 l 2,61,62
 0 -731 0 -731 16.5 -774 c 128,-1,63
 33 -817 33 -817 49.5 -843 c 128,-1,64
 66 -869 66 -869 101 -917.5 c 128,-1,65
 136 -966 136 -966 148 -984 c 1,66,67
 163 -960 163 -960 164 -931 c 1,68,69
 164 -868 164 -868 118 -806 c 128,-1,70
 72 -744 72 -744 0 -678 c 1,60,-1
EndSplineSet
EndChar

StartChar: flags.d3
Encoding: 57748 57748 172
Width: 276
Flags: W
LayerCount: 2
Fore
SplineSet
201 741 m 0,0,1
 225 741 225 741 250 666 c 128,-1,2
 275 591 275 591 275 525 c 0,3,4
 275 468 275 468 247 411.5 c 128,-1,5
 219 355 219 355 178 308.5 c 128,-1,6
 137 262 137 262 96.5 216 c 128,-1,7
 56 170 56 170 28 113.5 c 128,-1,8
 0 57 0 57 0 0 c 1,9,-1
 -16 0 l 1,10,-1
 -16 256 l 1,11,-1
 0 256 l 1,12,13
 45 284 45 284 80 309.5 c 128,-1,14
 115 335 115 335 152.5 369.5 c 128,-1,15
 190 404 190 404 211 444 c 128,-1,16
 232 484 232 484 232 525 c 0,17,18
 232 619 232 619 177 714 c 1,19,20
 175 725 175 725 183 733 c 128,-1,21
 191 741 191 741 201 741 c 0,0,1
EndSplineSet
EndChar

StartChar: flags.ugrace
Encoding: 57749 57749 173
Width: 214
Flags: W
LayerCount: 2
Fore
SplineSet
-170 -534 m 2,0,-1
 199 -237 l 2,1,2
 206 -232 206 -232 214 -231 c 1,3,4
 225 -231 225 -231 232 -238.5 c 128,-1,5
 239 -246 239 -246 239 -256 c 0,6,7
 239 -269 239 -269 229 -275 c 1,8,-1
 -138 -572 l 2,9,10
 -145 -577 -145 -577 -154 -578 c 1,11,12
 -165 -578 -165 -578 -172 -570.5 c 128,-1,13
 -179 -563 -179 -563 -179 -553 c 0,14,15
 -179 -540 -179 -540 -170 -534 c 2,0,-1
EndSplineSet
EndChar

StartChar: flags.dgrace
Encoding: 57750 57750 174
Width: 276
Flags: W
LayerCount: 2
Fore
SplineSet
-211 504 m 2,0,1
 -223 510 -223 510 -223 525 c 0,2,3
 -223 535 -223 535 -216 542.5 c 128,-1,4
 -209 550 -209 550 -198 550 c 0,5,6
 -193 550 -193 550 -186 547 c 2,7,-1
 288 275 l 2,8,9
 301 268 301 268 301 254 c 0,10,11
 301 244 301 244 294 236 c 128,-1,12
 287 228 287 228 275 228 c 0,13,14
 269 228 269 228 263 231 c 2,15,-1
 -211 504 l 2,0,1
EndSplineSet
EndChar

StartChar: flags.d4
Encoding: 57751 57751 175
Width: 276
Flags: W
LayerCount: 2
Fore
SplineSet
0 205 m 1,0,1
 43 230 43 230 75.5 252 c 128,-1,2
 108 274 108 274 143.5 306 c 128,-1,3
 179 338 179 338 199 374.5 c 128,-1,4
 219 411 219 411 219 449 c 0,5,6
 219 486 219 486 205 520 c 1,7,8
 185 497 185 497 140 455.5 c 128,-1,9
 95 414 95 414 69.5 387 c 128,-1,10
 44 360 44 360 22 317 c 128,-1,11
 0 274 0 274 0 230 c 2,12,-1
 0 205 l 1,0,1
275 679 m 0,13,14
 275 618 275 618 237 560 c 1,15,16
 263 506 263 506 262 449 c 0,17,18
 262 398 262 398 235 349.5 c 128,-1,19
 208 301 208 301 169.5 262.5 c 128,-1,20
 131 224 131 224 92.5 185.5 c 128,-1,21
 54 147 54 147 27 99 c 128,-1,22
 0 51 0 51 0 0 c 1,23,-1
 -16 0 l 1,24,-1
 -16 512 l 1,25,-1
 0 512 l 1,26,-1
 0 435 l 1,27,28
 232 556 232 556 232 679 c 0,29,30
 232 707 232 707 218 742 c 1,31,32
 216 753 216 753 223.5 761.5 c 128,-1,33
 231 770 231 770 242 770 c 128,-1,34
 253 770 253 770 260.5 757.5 c 128,-1,35
 268 745 268 745 270.5 727 c 128,-1,36
 273 709 273 709 274 698 c 128,-1,37
 275 687 275 687 275 679 c 0,13,14
EndSplineSet
EndChar

StartChar: flags.d5
Encoding: 57752 57752 176
Width: 276
Flags: W
LayerCount: 2
Fore
SplineSet
0 215 m 1,0,1
 42 243 42 243 72.5 266.5 c 128,-1,2
 103 290 103 290 138 323 c 128,-1,3
 173 356 173 356 192 393 c 128,-1,4
 211 430 211 430 211 468 c 0,5,6
 211 496 211 496 200 521 c 1,7,8
 180 497 180 497 137 456 c 128,-1,9
 94 415 94 415 68.5 387.5 c 128,-1,10
 43 360 43 360 21.5 317 c 128,-1,11
 0 274 0 274 0 230 c 2,12,-1
 0 215 l 1,0,1
275 907 m 0,13,14
 275 847 275 847 237 790 c 1,15,16
 268 735 268 735 267 677 c 0,17,18
 267 619 267 619 229 560 c 1,19,20
 254 514 254 514 254 468 c 0,21,22
 254 416 254 416 228 365.5 c 128,-1,23
 202 315 202 315 164.5 274.5 c 128,-1,24
 127 234 127 234 89.5 193.5 c 128,-1,25
 52 153 52 153 26 102.5 c 128,-1,26
 0 52 0 52 0 0 c 1,27,-1
 -16 0 l 1,28,-1
 -16 768 l 1,29,-1
 0 768 l 1,30,-1
 0 676 l 1,31,32
 232 786 232 786 232 907 c 0,33,34
 232 936 232 936 218 970 c 1,35,36
 216 981 216 981 223.5 989 c 128,-1,37
 231 997 231 997 242 997 c 0,38,39
 275 997 275 997 275 907 c 0,13,14
0 445 m 1,40,41
 224 557 224 557 224 677 c 0,42,43
 224 713 224 713 206 752 c 1,44,45
 186 728 186 728 141 686.5 c 128,-1,46
 96 645 96 645 70.5 618.5 c 128,-1,47
 45 592 45 592 22.5 548.5 c 128,-1,48
 0 505 0 505 0 461 c 2,49,-1
 0 445 l 1,40,41
EndSplineSet
EndChar

StartChar: flags.d6
Encoding: 57753 57753 177
Width: 276
Flags: W
LayerCount: 2
Fore
SplineSet
275 1051 m 0,0,1
 275 1011 275 1011 256 977 c 1,2,3
 267 934 267 934 267 892 c 0,4,5
 267 848 267 848 248 809 c 1,6,7
 259 755 259 755 259 705 c 0,8,9
 259 651 259 651 233 601 c 1,10,11
 236 552 236 552 237 502 c 1,12,13
 237 449 237 449 212 396 c 128,-1,14
 187 343 187 343 153 298.5 c 128,-1,15
 119 254 119 254 84 209 c 128,-1,16
 49 164 49 164 24.5 111 c 128,-1,17
 0 58 0 58 0 5 c 2,18,-1
 0 0 l 1,19,-1
 -16 0 l 1,20,-1
 -16 1024 l 1,21,-1
 0 1024 l 1,22,-1
 0 896 l 1,23,24
 57 905 57 905 106 922 c 128,-1,25
 155 939 155 939 193.5 973 c 128,-1,26
 232 1007 232 1007 232 1051 c 0,27,28
 232 1067 232 1067 229 1084.5 c 128,-1,29
 226 1102 226 1102 226 1103 c 0,30,31
 226 1113 226 1113 233.5 1119 c 128,-1,32
 241 1125 241 1125 250 1125 c 0,33,34
 265 1125 265 1125 270 1109.5 c 128,-1,35
 275 1094 275 1094 275 1051 c 0,0,1
0 210 m 1,36,37
 39 246 39 246 66 273.5 c 128,-1,38
 93 301 93 301 126 340.5 c 128,-1,39
 159 380 159 380 176 421 c 128,-1,40
 193 462 193 462 193 502 c 2,41,-1
 193 539 l 1,42,43
 174 514 174 514 132 468.5 c 128,-1,44
 90 423 90 423 66 394.5 c 128,-1,45
 42 366 42 366 21 320.5 c 128,-1,46
 0 275 0 275 0 230 c 2,47,-1
 0 210 l 1,36,37
0 435 m 1,48,49
 42 464 42 464 74 489.5 c 128,-1,50
 106 515 106 515 141.5 551 c 128,-1,51
 177 587 177 587 196.5 626.5 c 128,-1,52
 216 666 216 666 216 705 c 0,53,54
 216 721 216 721 212 756 c 1,55,56
 189 729 189 729 146.5 688.5 c 128,-1,57
 104 648 104 648 75.5 620 c 128,-1,58
 47 592 47 592 23.5 549 c 128,-1,59
 0 506 0 506 0 461 c 2,60,-1
 0 435 l 1,48,49
0 666 m 1,61,62
 224 776 224 776 224 892 c 0,63,64
 224 915 224 915 220 934 c 1,65,66
 197 912 197 912 153 881 c 128,-1,67
 109 850 109 850 78.5 828 c 128,-1,68
 48 806 48 806 24 769.5 c 128,-1,69
 0 733 0 733 0 691 c 2,70,-1
 0 666 l 1,61,62
EndSplineSet
EndChar

StartChar: clefs.C
Encoding: 57754 57754 178
Width: 698
Flags: W
LayerCount: 2
Fore
SplineSet
326 0 m 128,-1,1
 326 -75 326 -75 372 -75 c 0,2,3
 386 -75 386 -75 415.5 -59 c 128,-1,4
 445 -43 445 -43 462 -43 c 0,5,6
 558 -43 558 -43 627 -104.5 c 128,-1,7
 696 -166 696 -166 696 -256 c 0,8,9
 696 -512 696 -512 425 -512 c 0,10,11
 360 -512 360 -512 314.5 -470 c 128,-1,12
 269 -428 269 -428 269 -367 c 0,13,14
 269 -334 269 -334 292 -311 c 128,-1,15
 315 -288 315 -288 347 -288 c 128,-1,16
 379 -288 379 -288 402 -311 c 128,-1,17
 425 -334 425 -334 425 -367 c 0,18,19
 425 -387 425 -387 400 -405.5 c 128,-1,20
 375 -424 375 -424 375 -444 c 0,21,22
 375 -461 375 -461 389.5 -472 c 128,-1,23
 404 -483 404 -483 425 -483 c 0,24,25
 508 -483 508 -483 538 -426 c 128,-1,26
 568 -369 568 -369 568 -256 c 0,27,28
 568 -210 568 -210 564.5 -180.5 c 128,-1,29
 561 -151 561 -151 550.5 -124 c 128,-1,30
 540 -97 540 -97 518 -84.5 c 128,-1,31
 496 -72 496 -72 462 -72 c 0,32,33
 409 -72 409 -72 374.5 -117 c 128,-1,34
 340 -162 340 -162 340 -224 c 0,35,36
 340 -238 340 -238 326 -239 c 0,37,38
 313 -239 313 -239 312 -224 c 1,39,40
 312 -105 312 -105 226 -19 c 1,41,-1
 226 -502 l 2,42,43
 226 -512 226 -512 216 -512 c 2,44,-1
 195 -512 l 2,45,46
 185 -512 185 -512 184 -502 c 1,47,-1
 184 502 l 2,48,49
 184 512 184 512 195 512 c 2,50,-1
 216 512 l 2,51,52
 226 512 226 512 226 502 c 2,53,-1
 226 19 l 1,54,55
 312 105 312 105 312 224 c 0,56,57
 312 238 312 238 326 239 c 0,58,59
 340 239 340 239 340 224 c 0,60,61
 340 162 340 162 374.5 117 c 128,-1,62
 409 72 409 72 462 72 c 0,63,64
 496 72 496 72 518 84.5 c 128,-1,65
 540 97 540 97 550.5 124 c 128,-1,66
 561 151 561 151 564.5 180.5 c 128,-1,67
 568 210 568 210 568 256 c 0,68,69
 568 369 568 369 538 426 c 128,-1,70
 508 483 508 483 425 483 c 0,71,72
 405 483 405 483 390 472.5 c 128,-1,73
 375 462 375 462 375 444 c 0,74,75
 375 424 375 424 400 405.5 c 128,-1,76
 425 387 425 387 425 367 c 0,77,78
 425 334 425 334 402 311 c 128,-1,79
 379 288 379 288 347 288 c 128,-1,80
 315 288 315 288 292 311 c 128,-1,81
 269 334 269 334 269 367 c 0,82,83
 269 428 269 428 314.5 470 c 128,-1,84
 360 512 360 512 425 512 c 0,85,86
 696 512 696 512 696 256 c 0,87,88
 696 166 696 166 627 104.5 c 128,-1,89
 558 43 558 43 462 43 c 0,90,91
 446 43 446 43 416 59 c 128,-1,92
 386 75 386 75 372 75 c 0,93,0
 326 75 326 75 326 0 c 128,-1,1
132 -512 m 2,94,-1
 10 -512 l 2,95,96
 0 -512 0 -512 0 -502 c 2,97,-1
 0 502 l 2,98,99
 0 512 0 512 10 512 c 2,100,-1
 132 512 l 2,101,102
 142 512 142 512 142 502 c 2,103,-1
 142 -502 l 2,104,105
 142 -512 142 -512 132 -512 c 2,94,-1
EndSplineSet
EndChar

StartChar: clefs.C_change
Encoding: 57755 57755 179
Width: 564
Flags: W
LayerCount: 2
Fore
SplineSet
271 0 m 128,-1,1
 271 -58 271 -58 305 -58 c 0,2,3
 317 -58 317 -58 339.5 -44.5 c 128,-1,4
 362 -31 362 -31 376 -31 c 0,5,6
 452 -31 452 -31 507 -81.5 c 128,-1,7
 562 -132 562 -132 562 -205 c 0,8,9
 562 -410 562 -410 352 -410 c 0,10,11
 302 -410 302 -410 265 -376 c 128,-1,12
 228 -342 228 -342 228 -294 c 0,13,14
 228 -268 228 -268 246 -250 c 128,-1,15
 264 -232 264 -232 289.5 -232 c 128,-1,16
 315 -232 315 -232 333.5 -250 c 128,-1,17
 352 -268 352 -268 352 -294 c 0,18,19
 352 -309 352 -309 333.5 -325 c 128,-1,20
 315 -341 315 -341 315 -356 c 0,21,22
 315 -368 315 -368 326 -376.5 c 128,-1,23
 337 -385 337 -385 352 -385 c 0,24,25
 417 -385 417 -385 440 -340 c 128,-1,26
 463 -295 463 -295 463 -205 c 0,27,28
 463 -129 463 -129 445.5 -92 c 128,-1,29
 428 -55 428 -55 376 -55 c 0,30,31
 335 -55 335 -55 309.5 -90.5 c 128,-1,32
 284 -126 284 -126 284 -174 c 0,33,34
 284 -186 284 -186 271 -186 c 128,-1,35
 258 -186 258 -186 258 -174 c 0,36,37
 258 -80 258 -80 190 -15 c 1,38,-1
 190 -399 l 2,39,40
 190 -409 190 -409 180 -410 c 1,41,-1
 163 -410 l 2,42,43
 153 -410 153 -410 153 -399 c 2,44,-1
 153 399 l 2,45,46
 153 409 153 409 163 410 c 1,47,-1
 180 410 l 2,48,49
 190 410 190 410 190 399 c 2,50,-1
 190 15 l 1,51,52
 258 80 258 80 258 174 c 0,53,54
 258 186 258 186 271 186 c 0,55,56
 283 186 283 186 284 174 c 1,57,58
 284 126 284 126 309.5 90.5 c 128,-1,59
 335 55 335 55 376 55 c 0,60,61
 428 55 428 55 445.5 92 c 128,-1,62
 463 129 463 129 463 205 c 0,63,64
 463 294 463 294 440 339 c 128,-1,65
 417 384 417 384 352 384 c 0,66,67
 337 384 337 384 326 376.5 c 128,-1,68
 315 369 315 369 315 356 c 0,69,70
 315 341 315 341 333.5 325 c 128,-1,71
 352 309 352 309 352 294 c 0,72,73
 352 268 352 268 333.5 250 c 128,-1,74
 315 232 315 232 289.5 232 c 128,-1,75
 264 232 264 232 246 250 c 128,-1,76
 228 268 228 268 228 294 c 0,77,78
 228 342 228 342 265 376 c 128,-1,79
 302 410 302 410 352 410 c 0,80,81
 562 410 562 410 562 205 c 0,82,83
 562 132 562 132 507 81.5 c 128,-1,84
 452 31 452 31 376 31 c 0,85,86
 363 31 363 31 340 44.5 c 128,-1,87
 317 58 317 58 305 58 c 0,88,0
 271 58 271 58 271 0 c 128,-1,1
104 -410 m 2,89,-1
 10 -410 l 2,90,91
 0 -410 0 -410 0 -399 c 2,92,-1
 0 399 l 2,93,94
 0 409 0 409 10 410 c 1,95,-1
 104 410 l 2,96,97
 114 410 114 410 115 399 c 1,98,-1
 115 -399 l 1,99,100
 114 -410 114 -410 104 -410 c 2,89,-1
EndSplineSet
EndChar

StartChar: clefs.F
Encoding: 57756 57756 180
Width: 689
Flags: W
LayerCount: 2
Fore
SplineSet
570 -128 m 128,-1,1
 570 -106 570 -106 585.5 -91 c 128,-1,2
 601 -76 601 -76 622.5 -76 c 128,-1,3
 644 -76 644 -76 659.5 -91 c 128,-1,4
 675 -106 675 -106 675 -128 c 128,-1,5
 675 -150 675 -150 659.5 -165 c 128,-1,6
 644 -180 644 -180 622.5 -180 c 128,-1,7
 601 -180 601 -180 585.5 -165 c 128,-1,0
 570 -150 570 -150 570 -128 c 128,-1,1
570 128 m 128,-1,9
 570 150 570 150 585.5 165 c 128,-1,10
 601 180 601 180 622.5 180 c 128,-1,11
 644 180 644 180 659.5 165 c 128,-1,12
 675 150 675 150 675 128 c 128,-1,13
 675 106 675 106 659.5 91 c 128,-1,14
 644 76 644 76 622.5 76 c 128,-1,15
 601 76 601 76 585.5 91 c 128,-1,8
 570 106 570 106 570 128 c 128,-1,9
238 269 m 0,16,17
 373 269 373 269 455.5 201.5 c 128,-1,18
 538 134 538 134 538 12 c 0,19,20
 538 -66 538 -66 506.5 -136.5 c 128,-1,21
 475 -207 475 -207 427 -260 c 128,-1,22
 379 -313 379 -313 306 -364 c 128,-1,23
 233 -415 233 -415 164.5 -449.5 c 128,-1,24
 96 -484 96 -484 9 -521 c 1,25,26
 5 -525 5 -525 0 -525 c 0,27,28
 -13 -525 -13 -525 -13 -512 c 0,29,30
 -13 -507 -13 -507 -9 -503 c 1,31,32
 63 -461 63 -461 115.5 -426 c 128,-1,33
 168 -391 168 -391 227.5 -340.5 c 128,-1,34
 287 -290 287 -290 324.5 -241.5 c 128,-1,35
 362 -193 362 -193 387.5 -129.5 c 128,-1,36
 413 -66 413 -66 413 2 c 0,37,38
 413 99 413 99 365 171 c 128,-1,39
 317 243 317 243 238 243 c 0,40,41
 183 243 183 243 141.5 207 c 128,-1,42
 100 171 100 171 80 114 c 1,43,44
 98 122 98 122 115 122 c 0,45,46
 157 122 157 122 187 91.5 c 128,-1,47
 217 61 217 61 217 19 c 0,48,49
 217 -26 217 -26 187.5 -57.5 c 128,-1,50
 158 -89 158 -89 115 -89 c 0,51,52
 69 -89 69 -89 34.5 -57.5 c 128,-1,53
 0 -26 0 -26 0 19 c 0,54,55
 0 121 0 121 69.5 195 c 128,-1,56
 139 269 139 269 238 269 c 0,16,17
EndSplineSet
EndChar

StartChar: clefs.F_change
Encoding: 57757 57757 181
Width: 550
Flags: W
LayerCount: 2
Fore
SplineSet
457 -102.5 m 128,-1,1
 457 -85 457 -85 469 -72.5 c 128,-1,2
 481 -60 481 -60 498.5 -60 c 128,-1,3
 516 -60 516 -60 528.5 -72.5 c 128,-1,4
 541 -85 541 -85 541 -102.5 c 128,-1,5
 541 -120 541 -120 528.5 -132 c 128,-1,6
 516 -144 516 -144 498.5 -144 c 128,-1,7
 481 -144 481 -144 469 -132 c 128,-1,0
 457 -120 457 -120 457 -102.5 c 128,-1,1
457 102.5 m 128,-1,9
 457 120 457 120 469 132 c 128,-1,10
 481 144 481 144 498.5 144 c 128,-1,11
 516 144 516 144 528.5 132 c 128,-1,12
 541 120 541 120 541 102.5 c 128,-1,13
 541 85 541 85 528.5 72.5 c 128,-1,14
 516 60 516 60 498.5 60 c 128,-1,15
 481 60 481 60 469 72.5 c 128,-1,8
 457 85 457 85 457 102.5 c 128,-1,9
183 218 m 0,16,17
 294 218 294 218 362 164.5 c 128,-1,18
 430 111 430 111 430 12 c 0,19,20
 430 -50 430 -50 405 -107 c 128,-1,21
 380 -164 380 -164 342 -207 c 128,-1,22
 304 -250 304 -250 245.5 -291 c 128,-1,23
 187 -332 187 -332 133 -360 c 128,-1,24
 79 -388 79 -388 9 -419 c 1,25,26
 5 -423 5 -423 0 -423 c 0,27,28
 -13 -423 -13 -423 -13 -410 c 0,29,30
 -13 -405 -13 -405 -9 -400 c 1,31,32
 44 -365 44 -365 83 -336.5 c 128,-1,33
 122 -308 122 -308 167 -267.5 c 128,-1,34
 212 -227 212 -227 239.5 -188.5 c 128,-1,35
 267 -150 267 -150 286 -100 c 128,-1,36
 305 -50 305 -50 305 2 c 0,37,38
 305 79 305 79 273.5 135 c 128,-1,39
 242 191 242 191 183 191 c 0,40,41
 145 191 145 191 117.5 166 c 128,-1,42
 90 141 90 141 77 99 c 1,43,44
 87 101 87 101 92 101 c 0,45,46
 126 101 126 101 150 77 c 128,-1,47
 174 53 174 53 174 19 c 0,48,49
 174 -17 174 -17 150 -42.5 c 128,-1,50
 126 -68 126 -68 92 -68 c 0,51,52
 55 -68 55 -68 27.5 -42 c 128,-1,53
 0 -16 0 -16 0 19 c 0,54,55
 0 100 0 100 53 159 c 128,-1,56
 106 218 106 218 183 218 c 0,16,17
EndSplineSet
EndChar

StartChar: clefs.G
Encoding: 57758 57758 182
Width: 658
Flags: W
LayerCount: 2
Fore
SplineSet
653 -3 m 0,0,1
 653 -92 653 -92 602 -159 c 128,-1,2
 551 -226 551 -226 477 -251 c 1,3,4
 478 -270 478 -270 478 -311 c 0,5,6
 478 -363 478 -363 473 -432 c 1,7,8
 464 -530 464 -530 406.5 -600.5 c 128,-1,9
 349 -671 349 -671 263 -671 c 0,10,11
 174 -671 174 -671 110 -612 c 128,-1,12
 46 -553 46 -553 46 -467 c 0,13,14
 46 -423 46 -423 80.5 -391.5 c 128,-1,15
 115 -360 115 -360 161 -360 c 0,16,17
 202 -360 202 -360 230 -391.5 c 128,-1,18
 258 -423 258 -423 258 -467 c 0,19,20
 258 -507 258 -507 229.5 -535.5 c 128,-1,21
 201 -564 201 -564 161 -564 c 0,22,23
 146 -564 146 -564 130 -558 c 1,24,25
 152 -590 152 -590 187 -609 c 128,-1,26
 222 -628 222 -628 263 -628 c 0,27,28
 332 -628 332 -628 377.5 -568.5 c 128,-1,29
 423 -509 423 -509 430 -427 c 0,30,31
 435 -362 435 -362 435 -310 c 0,32,33
 435 -278 435 -278 434 -262 c 1,34,35
 391 -269 391 -269 358 -269 c 0,36,37
 210 -269 210 -269 105 -162.5 c 128,-1,38
 0 -56 0 -56 0 94 c 0,39,40
 0 129 0 129 7 165 c 128,-1,41
 14 201 14 201 21 227 c 128,-1,42
 28 253 28 253 48.5 292 c 128,-1,43
 69 331 69 331 77.5 349 c 128,-1,44
 86 367 86 367 118 410.5 c 128,-1,45
 150 454 150 454 157 463.5 c 128,-1,46
 164 473 164 473 202.5 522 c 128,-1,47
 241 571 241 571 245 577 c 1,48,49
 208 690 208 690 191.5 770.5 c 128,-1,50
 175 851 175 851 175 951 c 0,51,52
 175 1007 175 1007 189.5 1061 c 128,-1,53
 204 1115 204 1115 225 1153 c 128,-1,54
 246 1191 246 1191 268.5 1220.5 c 128,-1,55
 291 1250 291 1250 308 1264.5 c 128,-1,56
 325 1279 325 1279 331 1279 c 0,57,58
 347 1279 347 1279 387 1220.5 c 128,-1,59
 427 1162 427 1162 463.5 1068 c 128,-1,60
 500 974 500 974 500 896 c 0,61,62
 500 791 500 791 453 698.5 c 128,-1,63
 406 606 406 606 317 494 c 1,64,65
 359 367 359 367 387 268 c 1,66,67
 505 267 505 267 579 186 c 128,-1,68
 653 105 653 105 653 -3 c 0,0,1
475 -208 m 1,69,70
 522 -190 522 -190 554.5 -144.5 c 128,-1,71
 587 -99 587 -99 587 -40 c 0,72,73
 587 31 587 31 540 88 c 128,-1,74
 493 145 493 145 416 157 c 1,75,76
 464 -40 464 -40 475 -208 c 1,69,70
309 -133 m 0,77,78
 301 -133 301 -133 279.5 -121 c 128,-1,79
 258 -109 258 -109 232 -87.5 c 128,-1,80
 206 -66 206 -66 186.5 -25.5 c 128,-1,81
 167 15 167 15 167 62 c 0,82,83
 167 135 167 135 214 193.5 c 128,-1,84
 261 252 261 252 342 265 c 1,85,86
 318 348 318 348 285 453 c 1,87,88
 233 385 233 385 205.5 347.5 c 128,-1,89
 178 310 178 310 141.5 249.5 c 128,-1,90
 105 189 105 189 89.5 132 c 128,-1,91
 74 75 74 75 74 13 c 0,92,93
 74 -83 74 -83 162.5 -154 c 128,-1,94
 251 -225 251 -225 358 -225 c 0,95,96
 397 -225 397 -225 432 -219 c 1,97,98
 421 -44 421 -44 371 159 c 1,99,100
 308 155 308 155 270.5 119 c 128,-1,101
 233 83 233 83 233 34 c 0,102,103
 233 -48 233 -48 324 -94 c 1,104,105
 332 -102 332 -102 332 -110.5 c 128,-1,106
 332 -119 332 -119 325 -126 c 128,-1,107
 318 -133 318 -133 309 -133 c 0,77,78
386 1130 m 1,108,109
 312 1083 312 1083 269.5 1006 c 128,-1,110
 227 929 227 929 227 841 c 0,111,112
 227 775 227 775 276 618 c 1,113,114
 348 712 348 712 387 798 c 128,-1,115
 426 884 426 884 426 978 c 0,116,117
 426 1028 426 1028 418.5 1057 c 128,-1,118
 411 1086 411 1086 386 1130 c 1,108,109
EndSplineSet
EndChar

StartChar: clefs.G_change
Encoding: 57759 57759 183
Width: 526
Flags: W
LayerCount: 2
Fore
SplineSet
525 -2 m 0,0,1
 525 -73 525 -73 485 -126.5 c 128,-1,2
 445 -180 445 -180 387 -202 c 1,3,-1
 387 -236 l 2,4,5
 387 -297 387 -297 383 -346 c 0,6,7
 376 -426 376 -426 328 -483.5 c 128,-1,8
 280 -541 280 -541 209 -541 c 0,9,10
 136 -541 136 -541 84 -492.5 c 128,-1,11
 32 -444 32 -444 32 -375 c 0,12,13
 32 -340 32 -340 59.5 -315 c 128,-1,14
 87 -290 87 -290 124 -290 c 0,15,16
 157 -290 157 -290 179.5 -315 c 128,-1,17
 202 -340 202 -340 202 -375 c 0,18,19
 202 -408 202 -408 179 -430.5 c 128,-1,20
 156 -453 156 -453 124 -453 c 0,21,22
 123 -453 123 -453 120 -452.5 c 128,-1,23
 117 -452 117 -452 115 -452 c 1,24,25
 151 -498 151 -498 209 -498 c 0,26,27
 263 -498 263 -498 298.5 -452 c 128,-1,28
 334 -406 334 -406 340 -341 c 0,29,30
 344 -295 344 -295 344 -237 c 2,31,-1
 344 -213 l 1,32,33
 313 -218 313 -218 287 -218 c 0,34,35
 167 -218 167 -218 83.5 -131.5 c 128,-1,36
 0 -45 0 -45 0 76 c 0,37,38
 0 125 0 125 13.5 173 c 128,-1,39
 27 221 27 221 54 267.5 c 128,-1,40
 81 314 81 314 106 349.5 c 128,-1,41
 131 385 131 385 169 434 c 0,42,43
 181 449 181 449 187 458 c 1,44,45
 148 553 148 553 134 614 c 128,-1,46
 120 675 120 675 120 764 c 0,47,48
 120 810 120 810 132 853 c 128,-1,49
 144 896 144 896 162 925 c 128,-1,50
 180 954 180 954 199.5 977 c 128,-1,51
 219 1000 219 1000 234 1011 c 128,-1,52
 249 1022 249 1022 254 1022 c 0,53,54
 269 1022 269 1022 303 976 c 128,-1,55
 337 930 337 930 367 855 c 128,-1,56
 397 780 397 780 397 717 c 0,57,58
 397 634 397 634 361.5 561 c 128,-1,59
 326 488 326 488 258 398 c 1,60,61
 294 304 294 304 318 217 c 1,62,63
 410 213 410 213 467.5 148 c 128,-1,64
 525 83 525 83 525 -2 c 0,0,1
385 -158 m 1,65,66
 419 -143 419 -143 442 -109 c 128,-1,67
 465 -75 465 -75 465 -31 c 0,68,69
 465 21 465 21 431.5 64.5 c 128,-1,70
 398 108 398 108 344 120 c 1,71,72
 378 -19 378 -19 385 -158 c 1,65,66
247 -111 m 0,73,74
 239 -111 239 -111 221.5 -100.5 c 128,-1,75
 204 -90 204 -90 183 -72 c 128,-1,76
 162 -54 162 -54 146 -21.5 c 128,-1,77
 130 11 130 11 130 49 c 0,78,79
 130 109 130 109 169 157 c 128,-1,80
 208 205 208 205 274 215 c 1,81,82
 249 297 249 297 227 358 c 1,83,84
 187 306 187 306 165 275 c 128,-1,85
 143 244 143 244 115.5 195.5 c 128,-1,86
 88 147 88 147 75 101 c 128,-1,87
 62 55 62 55 62 6 c 0,88,89
 62 -68 62 -68 132.5 -121 c 128,-1,90
 203 -174 203 -174 287 -174 c 0,91,92
 318 -174 318 -174 342 -170 c 1,93,94
 335 -26 335 -26 299 124 c 1,95,96
 250 122 250 122 220 93.5 c 128,-1,97
 190 65 190 65 190 27 c 0,98,99
 190 -36 190 -36 261 -72 c 1,100,101
 269 -80 269 -80 269 -88 c 128,-1,102
 269 -96 269 -96 262.5 -103.5 c 128,-1,103
 256 -111 256 -111 247 -111 c 0,73,74
300 896 m 1,104,105
 239 861 239 861 203.5 800.5 c 128,-1,106
 168 740 168 740 168 670 c 0,107,108
 168 633 168 633 219 501 c 1,109,110
 274 576 274 576 304 644 c 128,-1,111
 334 712 334 712 334 786 c 0,112,113
 334 823 334 823 327 844 c 128,-1,114
 320 865 320 865 300 896 c 1,104,105
EndSplineSet
EndChar

StartChar: clefs.percussion
Encoding: 57760 57760 184
Width: 513
Flags: W
LayerCount: 2
Fore
SplineSet
502 -256 m 2,0,-1
 408 -256 l 2,1,2
 398 -256 398 -256 397 -246 c 1,3,-1
 397 246 l 2,4,5
 397 256 397 256 408 256 c 2,6,-1
 502 256 l 2,7,8
 512 256 512 256 512 246 c 2,9,-1
 512 -246 l 2,10,11
 512 -256 512 -256 502 -256 c 2,0,-1
276 -256 m 2,12,-1
 181 -256 l 2,13,14
 171 -256 171 -256 171 -246 c 2,15,-1
 171 246 l 2,16,17
 171 256 171 256 181 256 c 2,18,-1
 276 256 l 2,19,20
 286 256 286 256 287 246 c 1,21,-1
 287 -246 l 1,22,23
 286 -256 286 -256 276 -256 c 2,12,-1
EndSplineSet
EndChar

StartChar: clefs.percussion_change
Encoding: 57761 57761 185
Width: 410
Flags: W
LayerCount: 2
Fore
SplineSet
399 -205 m 2,0,-1
 328 -205 l 2,1,2
 318 -205 318 -205 317 -195 c 1,3,-1
 317 195 l 2,4,5
 317 205 317 205 328 205 c 2,6,-1
 399 205 l 2,7,8
 409 205 409 205 410 195 c 1,9,-1
 410 -195 l 1,10,11
 409 -205 409 -205 399 -205 c 2,0,-1
219 -205 m 2,12,-1
 147 -205 l 2,13,14
 137 -205 137 -205 137 -195 c 2,15,-1
 137 195 l 2,16,17
 137 205 137 205 147 205 c 2,18,-1
 219 205 l 2,19,20
 229 205 229 205 229 195 c 2,21,-1
 229 -195 l 2,22,23
 229 -205 229 -205 219 -205 c 2,12,-1
EndSplineSet
EndChar

StartChar: clefs.tab
Encoding: 57762 57762 186
Width: 718
Flags: W
LayerCount: 2
Fore
SplineSet
273 -435 m 0,0,1
 273 -463 273 -463 229 -463 c 0,2,3
 194 -463 194 -463 168.5 -441.5 c 128,-1,4
 143 -420 143 -420 143 -386 c 0,5,6
 143 -326 143 -326 215.5 -289.5 c 128,-1,7
 288 -253 288 -253 383 -253 c 0,8,9
 425 -253 425 -253 461.5 -258 c 128,-1,10
 498 -263 498 -263 531 -274 c 128,-1,11
 564 -285 564 -285 583.5 -307 c 128,-1,12
 603 -329 603 -329 603 -358 c 0,13,14
 603 -427 603 -427 532 -471 c 1,15,16
 636 -490 636 -490 637 -564 c 0,17,18
 637 -626 637 -626 581 -676 c 128,-1,19
 525 -726 525 -726 454 -726 c 0,20,21
 421 -726 421 -726 393 -712.5 c 128,-1,22
 365 -699 365 -699 352.5 -685.5 c 128,-1,23
 340 -672 340 -672 340 -665 c 0,24,25
 340 -656 340 -656 349.5 -647.5 c 128,-1,26
 359 -639 359 -639 369 -639 c 0,27,28
 373 -639 373 -639 386.5 -652 c 128,-1,29
 400 -665 400 -665 424 -665 c 0,30,31
 459 -665 459 -665 490 -636.5 c 128,-1,32
 521 -608 521 -608 521 -569 c 0,33,34
 521 -535 521 -535 492 -520 c 128,-1,35
 463 -505 463 -505 418 -505 c 0,36,37
 410 -505 410 -505 410 -488 c 0,38,39
 410 -463 410 -463 428 -464 c 1,40,41
 456 -464 456 -464 477.5 -439.5 c 128,-1,42
 499 -415 499 -415 499 -385 c 0,43,44
 499 -371 499 -371 494.5 -358 c 128,-1,45
 490 -345 490 -345 470.5 -329 c 128,-1,46
 451 -313 451 -313 417 -307 c 1,47,48
 389 -462 389 -462 376 -532 c 0,49,50
 360 -615 360 -615 314 -677 c 128,-1,51
 268 -739 268 -739 213 -739 c 0,52,53
 194 -739 194 -739 177.5 -731 c 128,-1,54
 161 -723 161 -723 141.5 -706.5 c 128,-1,55
 122 -690 122 -690 115 -685 c 0,56,57
 111 -682 111 -682 111 -676 c 0,58,59
 111 -667 111 -667 118.5 -658 c 128,-1,60
 126 -649 126 -649 135 -649 c 0,61,62
 140 -649 140 -649 163 -668 c 128,-1,63
 186 -687 186 -687 209 -687 c 0,64,65
 255 -687 255 -687 277.5 -628.5 c 128,-1,66
 300 -570 300 -570 300 -487 c 2,67,-1
 300 -479 l 2,68,69
 300 -423 300 -423 318 -312 c 1,70,71
 287 -322 287 -322 267 -341.5 c 128,-1,72
 247 -361 247 -361 247 -384 c 0,73,74
 247 -401 247 -401 260 -413 c 128,-1,75
 273 -425 273 -425 273 -435 c 0,0,1
72 -122 m 0,76,77
 76 -122 76 -122 96.5 -132 c 128,-1,78
 117 -142 117 -142 130 -142 c 0,79,80
 168 -142 168 -142 223 -87 c 0,81,82
 382 75 382 75 442 257 c 0,83,84
 454 295 454 295 501 295 c 0,85,86
 524 295 524 295 541.5 285 c 128,-1,87
 559 275 559 275 559 263 c 2,88,-1
 541 -111 l 1,89,90
 541 -142 541 -142 562 -141 c 0,91,92
 572 -141 572 -141 593.5 -131 c 128,-1,93
 615 -121 615 -121 618 -121 c 0,94,95
 627 -121 627 -121 628 -138 c 0,96,97
 628 -153 628 -153 615 -158 c 0,98,99
 606 -161 606 -161 575 -177 c 128,-1,100
 544 -193 544 -193 526 -193 c 0,101,102
 488 -193 488 -193 472 -133 c 0,103,104
 448 -42 448 -42 440 62 c 1,105,106
 403 14 403 14 351 -41 c 1,107,108
 369 -75 369 -75 417 -75 c 0,109,110
 422 -75 422 -75 428 -74 c 1,111,-1
 429 -74 l 2,112,113
 437 -74 437 -74 437 -89 c 0,114,115
 437 -107 437 -107 424 -112 c 0,116,117
 402 -119 402 -119 380 -119 c 0,118,119
 331 -119 331 -119 308 -85 c 1,120,-1
 268 -121 l 1,121,122
 184 -193 184 -193 131 -193 c 0,123,124
 116 -193 116 -193 102.5 -187.5 c 128,-1,125
 89 -182 89 -182 74 -173 c 128,-1,126
 59 -164 59 -164 51 -160 c 0,127,128
 46 -158 46 -158 46 -151 c 0,129,130
 46 -142 46 -142 54 -132 c 128,-1,131
 62 -122 62 -122 72 -122 c 0,76,77
295 553 m 0,132,133
 295 528 295 528 252 528 c 0,134,135
 214 528 214 528 186.5 553 c 128,-1,136
 159 578 159 578 159 614 c 0,137,138
 159 649 159 649 181 674.5 c 128,-1,139
 203 700 203 700 239.5 713 c 128,-1,140
 276 726 276 726 314.5 731.5 c 128,-1,141
 353 737 353 737 396 737 c 0,142,143
 419 737 419 737 482.5 716 c 128,-1,144
 546 695 546 695 571 695 c 0,145,146
 603 695 603 695 630.5 706.5 c 128,-1,147
 658 718 658 718 674 729 c 128,-1,148
 690 740 690 740 693 740 c 0,149,150
 701 740 701 740 709 733.5 c 128,-1,151
 717 727 717 727 717 721 c 128,-1,152
 717 715 717 715 698 697.5 c 128,-1,153
 679 680 679 680 641 662 c 128,-1,154
 603 644 603 644 563 644 c 0,155,156
 545 644 545 644 518 650 c 1,157,158
 502 545 502 545 482 453 c 0,159,160
 465 376 465 376 418 319.5 c 128,-1,161
 371 263 371 263 315 263 c 0,162,163
 292 263 292 263 273.5 272.5 c 128,-1,164
 255 282 255 282 232 302 c 128,-1,165
 209 322 209 322 198 329 c 0,166,167
 194 332 194 332 194 338 c 0,168,169
 194 346 194 346 201.5 355.5 c 128,-1,170
 209 365 209 365 217 365 c 0,171,172
 223 365 223 365 251 340 c 128,-1,173
 279 315 279 315 301 315 c 0,174,175
 341 315 341 315 363 361 c 128,-1,176
 385 407 385 407 388 469 c 0,177,178
 392 564 392 564 411 682 c 1,179,180
 391 687 391 687 378 687 c 0,181,182
 329 687 329 687 295.5 667 c 128,-1,183
 262 647 262 647 262 615 c 0,184,185
 262 592 262 592 278.5 578 c 128,-1,186
 295 564 295 564 295 553 c 0,132,133
EndSplineSet
EndChar

